<svg version="1.1" xmlns="http://www.w3.org/2000/svg" viewBox="0 0 781.4754968144712 336.1080852948753" width="781.4754968144712" height="336.1080852948753">
  <!-- svg-source:excalidraw -->
  
  <defs>
    <style>
      @font-face {
        font-family: "Virgil";
        src: url("https://excalidraw.com/Virgil.woff2");
      }
      @font-face {
        font-family: "Cascadia";
        src: url("https://excalidraw.com/Cascadia.woff2");
      }
    </style>
  </defs>
  <rect x="0" y="0" width="781.4754968144712" height="336.1080852948753" fill="#ffffff"></rect><g stroke-linecap="round" transform="translate(10 10) rotate(0 13.373374241769284 13.373374241769312)"><path d="M26.75 13.37 C26.75 14.15, 26.68 14.93, 26.54 15.7 C26.41 16.46, 26.2 17.22, 25.94 17.95 C25.68 18.67, 25.34 19.39, 24.96 20.06 C24.57 20.73, 24.12 21.38, 23.62 21.97 C23.12 22.56, 22.56 23.12, 21.97 23.62 C21.38 24.12, 20.73 24.57, 20.06 24.96 C19.39 25.34, 18.67 25.68, 17.95 25.94 C17.22 26.2, 16.46 26.41, 15.7 26.54 C14.93 26.68, 14.15 26.75, 13.37 26.75 C12.6 26.75, 11.81 26.68, 11.05 26.54 C10.29 26.41, 9.53 26.2, 8.8 25.94 C8.07 25.68, 7.36 25.34, 6.69 24.96 C6.02 24.57, 5.37 24.12, 4.78 23.62 C4.18 23.12, 3.63 22.56, 3.13 21.97 C2.63 21.38, 2.18 20.73, 1.79 20.06 C1.4 19.39, 1.07 18.67, 0.81 17.95 C0.54 17.22, 0.34 16.46, 0.2 15.7 C0.07 14.93, 0 14.15, 0 13.37 C0 12.6, 0.07 11.81, 0.2 11.05 C0.34 10.29, 0.54 9.53, 0.81 8.8 C1.07 8.07, 1.4 7.36, 1.79 6.69 C2.18 6.02, 2.63 5.37, 3.13 4.78 C3.63 4.18, 4.18 3.63, 4.78 3.13 C5.37 2.63, 6.02 2.18, 6.69 1.79 C7.36 1.4, 8.07 1.07, 8.8 0.81 C9.53 0.54, 10.29 0.34, 11.05 0.2 C11.81 0.07, 12.6 0, 13.37 0 C14.15 0, 14.93 0.07, 15.7 0.2 C16.46 0.34, 17.22 0.54, 17.95 0.81 C18.67 1.07, 19.39 1.4, 20.06 1.79 C20.73 2.18, 21.38 2.63, 21.97 3.13 C22.56 3.63, 23.12 4.18, 23.62 4.78 C24.12 5.37, 24.57 6.02, 24.96 6.69 C25.34 7.36, 25.68 8.07, 25.94 8.8 C26.2 9.53, 26.41 10.29, 26.54 11.05 C26.68 11.81, 26.71 12.99, 26.75 13.37 C26.78 13.76, 26.78 12.99, 26.75 13.37" stroke="none" stroke-width="0" fill="#868e96"></path><path d="M26.75 13.37 C26.75 14.15, 26.68 14.93, 26.54 15.7 C26.41 16.46, 26.2 17.22, 25.94 17.95 C25.68 18.67, 25.34 19.39, 24.96 20.06 C24.57 20.73, 24.12 21.38, 23.62 21.97 C23.12 22.56, 22.56 23.12, 21.97 23.62 C21.38 24.12, 20.73 24.57, 20.06 24.96 C19.39 25.34, 18.67 25.68, 17.95 25.94 C17.22 26.2, 16.46 26.41, 15.7 26.54 C14.93 26.68, 14.15 26.75, 13.37 26.75 C12.6 26.75, 11.81 26.68, 11.05 26.54 C10.29 26.41, 9.53 26.2, 8.8 25.94 C8.07 25.68, 7.36 25.34, 6.69 24.96 C6.02 24.57, 5.37 24.12, 4.78 23.62 C4.18 23.12, 3.63 22.56, 3.13 21.97 C2.63 21.38, 2.18 20.73, 1.79 20.06 C1.4 19.39, 1.07 18.67, 0.81 17.95 C0.54 17.22, 0.34 16.46, 0.2 15.7 C0.07 14.93, 0 14.15, 0 13.37 C0 12.6, 0.07 11.81, 0.2 11.05 C0.34 10.29, 0.54 9.53, 0.81 8.8 C1.07 8.07, 1.4 7.36, 1.79 6.69 C2.18 6.02, 2.63 5.37, 3.13 4.78 C3.63 4.18, 4.18 3.63, 4.78 3.13 C5.37 2.63, 6.02 2.18, 6.69 1.79 C7.36 1.4, 8.07 1.07, 8.8 0.81 C9.53 0.54, 10.29 0.34, 11.05 0.2 C11.81 0.07, 12.6 0, 13.37 0 C14.15 0, 14.93 0.07, 15.7 0.2 C16.46 0.34, 17.22 0.54, 17.95 0.81 C18.67 1.07, 19.39 1.4, 20.06 1.79 C20.73 2.18, 21.38 2.63, 21.97 3.13 C22.56 3.63, 23.12 4.18, 23.62 4.78 C24.12 5.37, 24.57 6.02, 24.96 6.69 C25.34 7.36, 25.68 8.07, 25.94 8.8 C26.2 9.53, 26.41 10.29, 26.54 11.05 C26.68 11.81, 26.71 12.99, 26.75 13.37 C26.78 13.76, 26.78 12.99, 26.75 13.37" stroke="#000000" stroke-width="4" fill="none"></path></g><g stroke-linecap="round"><g transform="translate(50.556726677285496 9.507907967497204) rotate(269.8685561241723 0.03231524157450849 13.111884023032474)"><path d="M0 0 C0.01 4.37, 0.05 21.85, 0.06 26.22 M0 0 C0.01 4.37, 0.05 21.85, 0.06 26.22" stroke="#000000" stroke-width="4" fill="none"></path></g></g><g stroke-linecap="round"><g transform="translate(60.60098582345017 9.784917127390145) rotate(269.8685561241723 0.03231524157450849 13.111884023032474)"><path d="M0 0 C0.01 4.37, 0.05 21.85, 0.06 26.22 M0 0 C0.01 4.37, 0.05 21.85, 0.06 26.22" stroke="#000000" stroke-width="4" fill="none"></path></g></g><g stroke-linecap="round" transform="translate(73 11) rotate(0 13.373374241769284 13.373374241769312)"><path d="M26.75 13.37 C26.75 14.15, 26.68 14.93, 26.54 15.7 C26.41 16.46, 26.2 17.22, 25.94 17.95 C25.68 18.67, 25.34 19.39, 24.96 20.06 C24.57 20.73, 24.12 21.38, 23.62 21.97 C23.12 22.56, 22.56 23.12, 21.97 23.62 C21.38 24.12, 20.73 24.57, 20.06 24.96 C19.39 25.34, 18.67 25.68, 17.95 25.94 C17.22 26.2, 16.46 26.41, 15.7 26.54 C14.93 26.68, 14.15 26.75, 13.37 26.75 C12.6 26.75, 11.81 26.68, 11.05 26.54 C10.29 26.41, 9.53 26.2, 8.8 25.94 C8.07 25.68, 7.36 25.34, 6.69 24.96 C6.02 24.57, 5.37 24.12, 4.78 23.62 C4.18 23.12, 3.63 22.56, 3.13 21.97 C2.63 21.38, 2.18 20.73, 1.79 20.06 C1.4 19.39, 1.07 18.67, 0.81 17.95 C0.54 17.22, 0.34 16.46, 0.2 15.7 C0.07 14.93, 0 14.15, 0 13.37 C0 12.6, 0.07 11.81, 0.2 11.05 C0.34 10.29, 0.54 9.53, 0.81 8.8 C1.07 8.07, 1.4 7.36, 1.79 6.69 C2.18 6.02, 2.63 5.37, 3.13 4.78 C3.63 4.18, 4.18 3.63, 4.78 3.13 C5.37 2.63, 6.02 2.18, 6.69 1.79 C7.36 1.4, 8.07 1.07, 8.8 0.81 C9.53 0.54, 10.29 0.34, 11.05 0.2 C11.81 0.07, 12.6 0, 13.37 0 C14.15 0, 14.93 0.07, 15.7 0.2 C16.46 0.34, 17.22 0.54, 17.95 0.81 C18.67 1.07, 19.39 1.4, 20.06 1.79 C20.73 2.18, 21.38 2.63, 21.97 3.13 C22.56 3.63, 23.12 4.18, 23.62 4.78 C24.12 5.37, 24.57 6.02, 24.96 6.69 C25.34 7.36, 25.68 8.07, 25.94 8.8 C26.2 9.53, 26.41 10.29, 26.54 11.05 C26.68 11.81, 26.71 12.99, 26.75 13.37 C26.78 13.76, 26.78 12.99, 26.75 13.37" stroke="none" stroke-width="0" fill="#868e96"></path><path d="M26.75 13.37 C26.75 14.15, 26.68 14.93, 26.54 15.7 C26.41 16.46, 26.2 17.22, 25.94 17.95 C25.68 18.67, 25.34 19.39, 24.96 20.06 C24.57 20.73, 24.12 21.38, 23.62 21.97 C23.12 22.56, 22.56 23.12, 21.97 23.62 C21.38 24.12, 20.73 24.57, 20.06 24.96 C19.39 25.34, 18.67 25.68, 17.95 25.94 C17.22 26.2, 16.46 26.41, 15.7 26.54 C14.93 26.68, 14.15 26.75, 13.37 26.75 C12.6 26.75, 11.81 26.68, 11.05 26.54 C10.29 26.41, 9.53 26.2, 8.8 25.94 C8.07 25.68, 7.36 25.34, 6.69 24.96 C6.02 24.57, 5.37 24.12, 4.78 23.62 C4.18 23.12, 3.63 22.56, 3.13 21.97 C2.63 21.38, 2.18 20.73, 1.79 20.06 C1.4 19.39, 1.07 18.67, 0.81 17.95 C0.54 17.22, 0.34 16.46, 0.2 15.7 C0.07 14.93, 0 14.15, 0 13.37 C0 12.6, 0.07 11.81, 0.2 11.05 C0.34 10.29, 0.54 9.53, 0.81 8.8 C1.07 8.07, 1.4 7.36, 1.79 6.69 C2.18 6.02, 2.63 5.37, 3.13 4.78 C3.63 4.18, 4.18 3.63, 4.78 3.13 C5.37 2.63, 6.02 2.18, 6.69 1.79 C7.36 1.4, 8.07 1.07, 8.8 0.81 C9.53 0.54, 10.29 0.34, 11.05 0.2 C11.81 0.07, 12.6 0, 13.37 0 C14.15 0, 14.93 0.07, 15.7 0.2 C16.46 0.34, 17.22 0.54, 17.95 0.81 C18.67 1.07, 19.39 1.4, 20.06 1.79 C20.73 2.18, 21.38 2.63, 21.97 3.13 C22.56 3.63, 23.12 4.18, 23.62 4.78 C24.12 5.37, 24.57 6.02, 24.96 6.69 C25.34 7.36, 25.68 8.07, 25.94 8.8 C26.2 9.53, 26.41 10.29, 26.54 11.05 C26.68 11.81, 26.71 12.99, 26.75 13.37 C26.78 13.76, 26.78 12.99, 26.75 13.37" stroke="#000000" stroke-width="4" fill="none"></path></g><g stroke-linecap="round"><g transform="translate(113.5567266772855 10.507907967497204) rotate(269.8685561241723 0.03231524157450849 13.111884023032474)"><path d="M0 0 C0.01 4.37, 0.05 21.85, 0.06 26.22 M0 0 C0.01 4.37, 0.05 21.85, 0.06 26.22" stroke="#000000" stroke-width="4" fill="none"></path></g></g><g stroke-linecap="round"><g transform="translate(120.60098582345017 9.784917127390145) rotate(269.8685561241723 0.03231524157450849 13.111884023032474)"><path d="M0 0 C0.01 4.37, 0.05 21.85, 0.06 26.22 M0 0 C0.01 4.37, 0.05 21.85, 0.06 26.22" stroke="#000000" stroke-width="4" fill="none"></path></g></g><g stroke-linecap="round" transform="translate(133 11) rotate(0 13.373374241769284 13.373374241769312)"><path d="M26.75 13.37 C26.75 14.15, 26.68 14.93, 26.54 15.7 C26.41 16.46, 26.2 17.22, 25.94 17.95 C25.68 18.67, 25.34 19.39, 24.96 20.06 C24.57 20.73, 24.12 21.38, 23.62 21.97 C23.12 22.56, 22.56 23.12, 21.97 23.62 C21.38 24.12, 20.73 24.57, 20.06 24.96 C19.39 25.34, 18.67 25.68, 17.95 25.94 C17.22 26.2, 16.46 26.41, 15.7 26.54 C14.93 26.68, 14.15 26.75, 13.37 26.75 C12.6 26.75, 11.81 26.68, 11.05 26.54 C10.29 26.41, 9.53 26.2, 8.8 25.94 C8.07 25.68, 7.36 25.34, 6.69 24.96 C6.02 24.57, 5.37 24.12, 4.78 23.62 C4.18 23.12, 3.63 22.56, 3.13 21.97 C2.63 21.38, 2.18 20.73, 1.79 20.06 C1.4 19.39, 1.07 18.67, 0.81 17.95 C0.54 17.22, 0.34 16.46, 0.2 15.7 C0.07 14.93, 0 14.15, 0 13.37 C0 12.6, 0.07 11.81, 0.2 11.05 C0.34 10.29, 0.54 9.53, 0.81 8.8 C1.07 8.07, 1.4 7.36, 1.79 6.69 C2.18 6.02, 2.63 5.37, 3.13 4.78 C3.63 4.18, 4.18 3.63, 4.78 3.13 C5.37 2.63, 6.02 2.18, 6.69 1.79 C7.36 1.4, 8.07 1.07, 8.8 0.81 C9.53 0.54, 10.29 0.34, 11.05 0.2 C11.81 0.07, 12.6 0, 13.37 0 C14.15 0, 14.93 0.07, 15.7 0.2 C16.46 0.34, 17.22 0.54, 17.95 0.81 C18.67 1.07, 19.39 1.4, 20.06 1.79 C20.73 2.18, 21.38 2.63, 21.97 3.13 C22.56 3.63, 23.12 4.18, 23.62 4.78 C24.12 5.37, 24.57 6.02, 24.96 6.69 C25.34 7.36, 25.68 8.07, 25.94 8.8 C26.2 9.53, 26.41 10.29, 26.54 11.05 C26.68 11.81, 26.71 12.99, 26.75 13.37 C26.78 13.76, 26.78 12.99, 26.75 13.37" stroke="none" stroke-width="0" fill="#868e96"></path><path d="M26.75 13.37 C26.75 14.15, 26.68 14.93, 26.54 15.7 C26.41 16.46, 26.2 17.22, 25.94 17.95 C25.68 18.67, 25.34 19.39, 24.96 20.06 C24.57 20.73, 24.12 21.38, 23.62 21.97 C23.12 22.56, 22.56 23.12, 21.97 23.62 C21.38 24.12, 20.73 24.57, 20.06 24.96 C19.39 25.34, 18.67 25.68, 17.95 25.94 C17.22 26.2, 16.46 26.41, 15.7 26.54 C14.93 26.68, 14.15 26.75, 13.37 26.75 C12.6 26.75, 11.81 26.68, 11.05 26.54 C10.29 26.41, 9.53 26.2, 8.8 25.94 C8.07 25.68, 7.36 25.34, 6.69 24.96 C6.02 24.57, 5.37 24.12, 4.78 23.62 C4.18 23.12, 3.63 22.56, 3.13 21.97 C2.63 21.38, 2.18 20.73, 1.79 20.06 C1.4 19.39, 1.07 18.67, 0.81 17.95 C0.54 17.22, 0.34 16.46, 0.2 15.7 C0.07 14.93, 0 14.15, 0 13.37 C0 12.6, 0.07 11.81, 0.2 11.05 C0.34 10.29, 0.54 9.53, 0.81 8.8 C1.07 8.07, 1.4 7.36, 1.79 6.69 C2.18 6.02, 2.63 5.37, 3.13 4.78 C3.63 4.18, 4.18 3.63, 4.78 3.13 C5.37 2.63, 6.02 2.18, 6.69 1.79 C7.36 1.4, 8.07 1.07, 8.8 0.81 C9.53 0.54, 10.29 0.34, 11.05 0.2 C11.81 0.07, 12.6 0, 13.37 0 C14.15 0, 14.93 0.07, 15.7 0.2 C16.46 0.34, 17.22 0.54, 17.95 0.81 C18.67 1.07, 19.39 1.4, 20.06 1.79 C20.73 2.18, 21.38 2.63, 21.97 3.13 C22.56 3.63, 23.12 4.18, 23.62 4.78 C24.12 5.37, 24.57 6.02, 24.96 6.69 C25.34 7.36, 25.68 8.07, 25.94 8.8 C26.2 9.53, 26.41 10.29, 26.54 11.05 C26.68 11.81, 26.71 12.99, 26.75 13.37 C26.78 13.76, 26.78 12.99, 26.75 13.37" stroke="#000000" stroke-width="4" fill="none"></path></g><g stroke-linecap="round"><g transform="translate(173.5567266772855 10.507907967497204) rotate(269.8685561241723 0.03231524157450849 13.111884023032474)"><path d="M0 0 C0.01 4.37, 0.05 21.85, 0.06 26.22 M0 0 C0.01 4.37, 0.05 21.85, 0.06 26.22" stroke="#000000" stroke-width="4" fill="none"></path></g></g><g stroke-linecap="round"><g transform="translate(274.6009858234502 87.78491712739014) rotate(269.8685561241723 0.03231524157450849 13.111884023032474)"><path d="M0 0 C0.01 4.37, 0.05 21.85, 0.06 26.22 M0 0 C0.01 4.37, 0.05 21.85, 0.06 26.22" stroke="#000000" stroke-width="4" fill="none"></path></g></g><g stroke-linecap="round" transform="translate(287 89) rotate(0 13.373374241769284 13.373374241769312)"><path d="M26.75 13.37 C26.75 14.15, 26.68 14.93, 26.54 15.7 C26.41 16.46, 26.2 17.22, 25.94 17.95 C25.68 18.67, 25.34 19.39, 24.96 20.06 C24.57 20.73, 24.12 21.38, 23.62 21.97 C23.12 22.56, 22.56 23.12, 21.97 23.62 C21.38 24.12, 20.73 24.57, 20.06 24.96 C19.39 25.34, 18.67 25.68, 17.95 25.94 C17.22 26.2, 16.46 26.41, 15.7 26.54 C14.93 26.68, 14.15 26.75, 13.37 26.75 C12.6 26.75, 11.81 26.68, 11.05 26.54 C10.29 26.41, 9.53 26.2, 8.8 25.94 C8.07 25.68, 7.36 25.34, 6.69 24.96 C6.02 24.57, 5.37 24.12, 4.78 23.62 C4.18 23.12, 3.63 22.56, 3.13 21.97 C2.63 21.38, 2.18 20.73, 1.79 20.06 C1.4 19.39, 1.07 18.67, 0.81 17.95 C0.54 17.22, 0.34 16.46, 0.2 15.7 C0.07 14.93, 0 14.15, 0 13.37 C0 12.6, 0.07 11.81, 0.2 11.05 C0.34 10.29, 0.54 9.53, 0.81 8.8 C1.07 8.07, 1.4 7.36, 1.79 6.69 C2.18 6.02, 2.63 5.37, 3.13 4.78 C3.63 4.18, 4.18 3.63, 4.78 3.13 C5.37 2.63, 6.02 2.18, 6.69 1.79 C7.36 1.4, 8.07 1.07, 8.8 0.81 C9.53 0.54, 10.29 0.34, 11.05 0.2 C11.81 0.07, 12.6 0, 13.37 0 C14.15 0, 14.93 0.07, 15.7 0.2 C16.46 0.34, 17.22 0.54, 17.95 0.81 C18.67 1.07, 19.39 1.4, 20.06 1.79 C20.73 2.18, 21.38 2.63, 21.97 3.13 C22.56 3.63, 23.12 4.18, 23.62 4.78 C24.12 5.37, 24.57 6.02, 24.96 6.69 C25.34 7.36, 25.68 8.07, 25.94 8.8 C26.2 9.53, 26.41 10.29, 26.54 11.05 C26.68 11.81, 26.71 12.99, 26.75 13.37 C26.78 13.76, 26.78 12.99, 26.75 13.37" stroke="none" stroke-width="0" fill="#868e96"></path><path d="M26.75 13.37 C26.75 14.15, 26.68 14.93, 26.54 15.7 C26.41 16.46, 26.2 17.22, 25.94 17.95 C25.68 18.67, 25.34 19.39, 24.96 20.06 C24.57 20.73, 24.12 21.38, 23.62 21.97 C23.12 22.56, 22.56 23.12, 21.97 23.62 C21.38 24.12, 20.73 24.57, 20.06 24.96 C19.39 25.34, 18.67 25.68, 17.95 25.94 C17.22 26.2, 16.46 26.41, 15.7 26.54 C14.93 26.68, 14.15 26.75, 13.37 26.75 C12.6 26.75, 11.81 26.68, 11.05 26.54 C10.29 26.41, 9.53 26.2, 8.8 25.94 C8.07 25.68, 7.36 25.34, 6.69 24.96 C6.02 24.57, 5.37 24.12, 4.78 23.62 C4.18 23.12, 3.63 22.56, 3.13 21.97 C2.63 21.38, 2.18 20.73, 1.79 20.06 C1.4 19.39, 1.07 18.67, 0.81 17.95 C0.54 17.22, 0.34 16.46, 0.2 15.7 C0.07 14.93, 0 14.15, 0 13.37 C0 12.6, 0.07 11.81, 0.2 11.05 C0.34 10.29, 0.54 9.53, 0.81 8.8 C1.07 8.07, 1.4 7.36, 1.79 6.69 C2.18 6.02, 2.63 5.37, 3.13 4.78 C3.63 4.18, 4.18 3.63, 4.78 3.13 C5.37 2.63, 6.02 2.18, 6.69 1.79 C7.36 1.4, 8.07 1.07, 8.8 0.81 C9.53 0.54, 10.29 0.34, 11.05 0.2 C11.81 0.07, 12.6 0, 13.37 0 C14.15 0, 14.93 0.07, 15.7 0.2 C16.46 0.34, 17.22 0.54, 17.95 0.81 C18.67 1.07, 19.39 1.4, 20.06 1.79 C20.73 2.18, 21.38 2.63, 21.97 3.13 C22.56 3.63, 23.12 4.18, 23.62 4.78 C24.12 5.37, 24.57 6.02, 24.96 6.69 C25.34 7.36, 25.68 8.07, 25.94 8.8 C26.2 9.53, 26.41 10.29, 26.54 11.05 C26.68 11.81, 26.71 12.99, 26.75 13.37 C26.78 13.76, 26.78 12.99, 26.75 13.37" stroke="#000000" stroke-width="4" fill="none"></path></g><g stroke-linecap="round"><g transform="translate(327.5567266772855 88.5079079674972) rotate(269.8685561241723 0.03231524157450849 13.111884023032474)"><path d="M0 0 C0.01 4.37, 0.05 21.85, 0.06 26.22 M0 0 C0.01 4.37, 0.05 21.85, 0.06 26.22" stroke="#000000" stroke-width="4" fill="none"></path></g></g><g stroke-linecap="round"><g transform="translate(337.6009858234502 88.78491712739014) rotate(269.8685561241723 0.03231524157450849 13.111884023032474)"><path d="M0 0 C0.01 4.37, 0.05 21.85, 0.06 26.22 M0 0 C0.01 4.37, 0.05 21.85, 0.06 26.22" stroke="#000000" stroke-width="4" fill="none"></path></g></g><g stroke-linecap="round" transform="translate(350 90) rotate(0 13.373374241769284 13.373374241769312)"><path d="M26.75 13.37 C26.75 14.15, 26.68 14.93, 26.54 15.7 C26.41 16.46, 26.2 17.22, 25.94 17.95 C25.68 18.67, 25.34 19.39, 24.96 20.06 C24.57 20.73, 24.12 21.38, 23.62 21.97 C23.12 22.56, 22.56 23.12, 21.97 23.62 C21.38 24.12, 20.73 24.57, 20.06 24.96 C19.39 25.34, 18.67 25.68, 17.95 25.94 C17.22 26.2, 16.46 26.41, 15.7 26.54 C14.93 26.68, 14.15 26.75, 13.37 26.75 C12.6 26.75, 11.81 26.68, 11.05 26.54 C10.29 26.41, 9.53 26.2, 8.8 25.94 C8.07 25.68, 7.36 25.34, 6.69 24.96 C6.02 24.57, 5.37 24.12, 4.78 23.62 C4.18 23.12, 3.63 22.56, 3.13 21.97 C2.63 21.38, 2.18 20.73, 1.79 20.06 C1.4 19.39, 1.07 18.67, 0.81 17.95 C0.54 17.22, 0.34 16.46, 0.2 15.7 C0.07 14.93, 0 14.15, 0 13.37 C0 12.6, 0.07 11.81, 0.2 11.05 C0.34 10.29, 0.54 9.53, 0.81 8.8 C1.07 8.07, 1.4 7.36, 1.79 6.69 C2.18 6.02, 2.63 5.37, 3.13 4.78 C3.63 4.18, 4.18 3.63, 4.78 3.13 C5.37 2.63, 6.02 2.18, 6.69 1.79 C7.36 1.4, 8.07 1.07, 8.8 0.81 C9.53 0.54, 10.29 0.34, 11.05 0.2 C11.81 0.07, 12.6 0, 13.37 0 C14.15 0, 14.93 0.07, 15.7 0.2 C16.46 0.34, 17.22 0.54, 17.95 0.81 C18.67 1.07, 19.39 1.4, 20.06 1.79 C20.73 2.18, 21.38 2.63, 21.97 3.13 C22.56 3.63, 23.12 4.18, 23.62 4.78 C24.12 5.37, 24.57 6.02, 24.96 6.69 C25.34 7.36, 25.68 8.07, 25.94 8.8 C26.2 9.53, 26.41 10.29, 26.54 11.05 C26.68 11.81, 26.71 12.99, 26.75 13.37 C26.78 13.76, 26.78 12.99, 26.75 13.37" stroke="none" stroke-width="0" fill="#868e96"></path><path d="M26.75 13.37 C26.75 14.15, 26.68 14.93, 26.54 15.7 C26.41 16.46, 26.2 17.22, 25.94 17.95 C25.68 18.67, 25.34 19.39, 24.96 20.06 C24.57 20.73, 24.12 21.38, 23.62 21.97 C23.12 22.56, 22.56 23.12, 21.97 23.62 C21.38 24.12, 20.73 24.57, 20.06 24.96 C19.39 25.34, 18.67 25.68, 17.95 25.94 C17.22 26.2, 16.46 26.41, 15.7 26.54 C14.93 26.68, 14.15 26.75, 13.37 26.75 C12.6 26.75, 11.81 26.68, 11.05 26.54 C10.29 26.41, 9.53 26.2, 8.8 25.94 C8.07 25.68, 7.36 25.34, 6.69 24.96 C6.02 24.57, 5.37 24.12, 4.78 23.62 C4.18 23.12, 3.63 22.56, 3.13 21.97 C2.63 21.38, 2.18 20.73, 1.79 20.06 C1.4 19.39, 1.07 18.67, 0.81 17.95 C0.54 17.22, 0.34 16.46, 0.2 15.7 C0.07 14.93, 0 14.15, 0 13.37 C0 12.6, 0.07 11.81, 0.2 11.05 C0.34 10.29, 0.54 9.53, 0.81 8.8 C1.07 8.07, 1.4 7.36, 1.79 6.69 C2.18 6.02, 2.63 5.37, 3.13 4.78 C3.63 4.18, 4.18 3.63, 4.78 3.13 C5.37 2.63, 6.02 2.18, 6.69 1.79 C7.36 1.4, 8.07 1.07, 8.8 0.81 C9.53 0.54, 10.29 0.34, 11.05 0.2 C11.81 0.07, 12.6 0, 13.37 0 C14.15 0, 14.93 0.07, 15.7 0.2 C16.46 0.34, 17.22 0.54, 17.95 0.81 C18.67 1.07, 19.39 1.4, 20.06 1.79 C20.73 2.18, 21.38 2.63, 21.97 3.13 C22.56 3.63, 23.12 4.18, 23.62 4.78 C24.12 5.37, 24.57 6.02, 24.96 6.69 C25.34 7.36, 25.68 8.07, 25.94 8.8 C26.2 9.53, 26.41 10.29, 26.54 11.05 C26.68 11.81, 26.71 12.99, 26.75 13.37 C26.78 13.76, 26.78 12.99, 26.75 13.37" stroke="#000000" stroke-width="4" fill="none"></path></g><g stroke-linecap="round"><g transform="translate(390.5567266772855 89.5079079674972) rotate(269.8685561241723 0.03231524157445165 13.111884023032474)"><path d="M0 0 C0.01 4.37, 0.05 21.85, 0.06 26.22 M0 0 C0.01 4.37, 0.05 21.85, 0.06 26.22" stroke="#000000" stroke-width="4" fill="none"></path></g></g><g stroke-linecap="round"><g transform="translate(397.6009858234502 88.78491712739014) rotate(269.8685561241723 0.03231524157445165 13.111884023032474)"><path d="M0 0 C0.01 4.37, 0.05 21.85, 0.06 26.22 M0 0 C0.01 4.37, 0.05 21.85, 0.06 26.22" stroke="#000000" stroke-width="4" fill="none"></path></g></g><g stroke-linecap="round" transform="translate(410 90) rotate(0 13.373374241769284 13.373374241769312)"><path d="M26.75 13.37 C26.75 14.15, 26.68 14.93, 26.54 15.7 C26.41 16.46, 26.2 17.22, 25.94 17.95 C25.68 18.67, 25.34 19.39, 24.96 20.06 C24.57 20.73, 24.12 21.38, 23.62 21.97 C23.12 22.56, 22.56 23.12, 21.97 23.62 C21.38 24.12, 20.73 24.57, 20.06 24.96 C19.39 25.34, 18.67 25.68, 17.95 25.94 C17.22 26.2, 16.46 26.41, 15.7 26.54 C14.93 26.68, 14.15 26.75, 13.37 26.75 C12.6 26.75, 11.81 26.68, 11.05 26.54 C10.29 26.41, 9.53 26.2, 8.8 25.94 C8.07 25.68, 7.36 25.34, 6.69 24.96 C6.02 24.57, 5.37 24.12, 4.78 23.62 C4.18 23.12, 3.63 22.56, 3.13 21.97 C2.63 21.38, 2.18 20.73, 1.79 20.06 C1.4 19.39, 1.07 18.67, 0.81 17.95 C0.54 17.22, 0.34 16.46, 0.2 15.7 C0.07 14.93, 0 14.15, 0 13.37 C0 12.6, 0.07 11.81, 0.2 11.05 C0.34 10.29, 0.54 9.53, 0.81 8.8 C1.07 8.07, 1.4 7.36, 1.79 6.69 C2.18 6.02, 2.63 5.37, 3.13 4.78 C3.63 4.18, 4.18 3.63, 4.78 3.13 C5.37 2.63, 6.02 2.18, 6.69 1.79 C7.36 1.4, 8.07 1.07, 8.8 0.81 C9.53 0.54, 10.29 0.34, 11.05 0.2 C11.81 0.07, 12.6 0, 13.37 0 C14.15 0, 14.93 0.07, 15.7 0.2 C16.46 0.34, 17.22 0.54, 17.95 0.81 C18.67 1.07, 19.39 1.4, 20.06 1.79 C20.73 2.18, 21.38 2.63, 21.97 3.13 C22.56 3.63, 23.12 4.18, 23.62 4.78 C24.12 5.37, 24.57 6.02, 24.96 6.69 C25.34 7.36, 25.68 8.07, 25.94 8.8 C26.2 9.53, 26.41 10.29, 26.54 11.05 C26.68 11.81, 26.71 12.99, 26.75 13.37 C26.78 13.76, 26.78 12.99, 26.75 13.37" stroke="none" stroke-width="0" fill="#868e96"></path><path d="M26.75 13.37 C26.75 14.15, 26.68 14.93, 26.54 15.7 C26.41 16.46, 26.2 17.22, 25.94 17.95 C25.68 18.67, 25.34 19.39, 24.96 20.06 C24.57 20.73, 24.12 21.38, 23.62 21.97 C23.12 22.56, 22.56 23.12, 21.97 23.62 C21.38 24.12, 20.73 24.57, 20.06 24.96 C19.39 25.34, 18.67 25.68, 17.95 25.94 C17.22 26.2, 16.46 26.41, 15.7 26.54 C14.93 26.68, 14.15 26.75, 13.37 26.75 C12.6 26.75, 11.81 26.68, 11.05 26.54 C10.29 26.41, 9.53 26.2, 8.8 25.94 C8.07 25.68, 7.36 25.34, 6.69 24.96 C6.02 24.57, 5.37 24.12, 4.78 23.62 C4.18 23.12, 3.63 22.56, 3.13 21.97 C2.63 21.38, 2.18 20.73, 1.79 20.06 C1.4 19.39, 1.07 18.67, 0.81 17.95 C0.54 17.22, 0.34 16.46, 0.2 15.7 C0.07 14.93, 0 14.15, 0 13.37 C0 12.6, 0.07 11.81, 0.2 11.05 C0.34 10.29, 0.54 9.53, 0.81 8.8 C1.07 8.07, 1.4 7.36, 1.79 6.69 C2.18 6.02, 2.63 5.37, 3.13 4.78 C3.63 4.18, 4.18 3.63, 4.78 3.13 C5.37 2.63, 6.02 2.18, 6.69 1.79 C7.36 1.4, 8.07 1.07, 8.8 0.81 C9.53 0.54, 10.29 0.34, 11.05 0.2 C11.81 0.07, 12.6 0, 13.37 0 C14.15 0, 14.93 0.07, 15.7 0.2 C16.46 0.34, 17.22 0.54, 17.95 0.81 C18.67 1.07, 19.39 1.4, 20.06 1.79 C20.73 2.18, 21.38 2.63, 21.97 3.13 C22.56 3.63, 23.12 4.18, 23.62 4.78 C24.12 5.37, 24.57 6.02, 24.96 6.69 C25.34 7.36, 25.68 8.07, 25.94 8.8 C26.2 9.53, 26.41 10.29, 26.54 11.05 C26.68 11.81, 26.71 12.99, 26.75 13.37 C26.78 13.76, 26.78 12.99, 26.75 13.37" stroke="#000000" stroke-width="4" fill="none"></path></g><g stroke-linecap="round"><g transform="translate(450.5567266772855 89.5079079674972) rotate(269.8685561241723 0.03231524157445165 13.111884023032474)"><path d="M0 0 C0.01 4.37, 0.05 21.85, 0.06 26.22 M0 0 C0.01 4.37, 0.05 21.85, 0.06 26.22" stroke="#000000" stroke-width="4" fill="none"></path></g></g><g stroke-linecap="round"><g transform="translate(546.8009858234507 13.584917127390213) rotate(269.8685561241723 0.03231524157445165 13.111884023032474)"><path d="M0 0 C0.01 4.37, 0.05 21.85, 0.06 26.22 M0 0 C0.01 4.37, 0.05 21.85, 0.06 26.22" stroke="#000000" stroke-width="4" fill="none"></path></g></g><g stroke-linecap="round" transform="translate(559.2000000000005 14.800000000000068) rotate(0 13.373374241769284 13.373374241769312)"><path d="M26.75 13.37 C26.75 14.15, 26.68 14.93, 26.54 15.7 C26.41 16.46, 26.2 17.22, 25.94 17.95 C25.68 18.67, 25.34 19.39, 24.96 20.06 C24.57 20.73, 24.12 21.38, 23.62 21.97 C23.12 22.56, 22.56 23.12, 21.97 23.62 C21.38 24.12, 20.73 24.57, 20.06 24.96 C19.39 25.34, 18.67 25.68, 17.95 25.94 C17.22 26.2, 16.46 26.41, 15.7 26.54 C14.93 26.68, 14.15 26.75, 13.37 26.75 C12.6 26.75, 11.81 26.68, 11.05 26.54 C10.29 26.41, 9.53 26.2, 8.8 25.94 C8.07 25.68, 7.36 25.34, 6.69 24.96 C6.02 24.57, 5.37 24.12, 4.78 23.62 C4.18 23.12, 3.63 22.56, 3.13 21.97 C2.63 21.38, 2.18 20.73, 1.79 20.06 C1.4 19.39, 1.07 18.67, 0.81 17.95 C0.54 17.22, 0.34 16.46, 0.2 15.7 C0.07 14.93, 0 14.15, 0 13.37 C0 12.6, 0.07 11.81, 0.2 11.05 C0.34 10.29, 0.54 9.53, 0.81 8.8 C1.07 8.07, 1.4 7.36, 1.79 6.69 C2.18 6.02, 2.63 5.37, 3.13 4.78 C3.63 4.18, 4.18 3.63, 4.78 3.13 C5.37 2.63, 6.02 2.18, 6.69 1.79 C7.36 1.4, 8.07 1.07, 8.8 0.81 C9.53 0.54, 10.29 0.34, 11.05 0.2 C11.81 0.07, 12.6 0, 13.37 0 C14.15 0, 14.93 0.07, 15.7 0.2 C16.46 0.34, 17.22 0.54, 17.95 0.81 C18.67 1.07, 19.39 1.4, 20.06 1.79 C20.73 2.18, 21.38 2.63, 21.97 3.13 C22.56 3.63, 23.12 4.18, 23.62 4.78 C24.12 5.37, 24.57 6.02, 24.96 6.69 C25.34 7.36, 25.68 8.07, 25.94 8.8 C26.2 9.53, 26.41 10.29, 26.54 11.05 C26.68 11.81, 26.71 12.99, 26.75 13.37 C26.78 13.76, 26.78 12.99, 26.75 13.37" stroke="none" stroke-width="0" fill="#868e96"></path><path d="M26.75 13.37 C26.75 14.15, 26.68 14.93, 26.54 15.7 C26.41 16.46, 26.2 17.22, 25.94 17.95 C25.68 18.67, 25.34 19.39, 24.96 20.06 C24.57 20.73, 24.12 21.38, 23.62 21.97 C23.12 22.56, 22.56 23.12, 21.97 23.62 C21.38 24.12, 20.73 24.57, 20.06 24.96 C19.39 25.34, 18.67 25.68, 17.95 25.94 C17.22 26.2, 16.46 26.41, 15.7 26.54 C14.93 26.68, 14.15 26.75, 13.37 26.75 C12.6 26.75, 11.81 26.68, 11.05 26.54 C10.29 26.41, 9.53 26.2, 8.8 25.94 C8.07 25.68, 7.36 25.34, 6.69 24.96 C6.02 24.57, 5.37 24.12, 4.78 23.62 C4.18 23.12, 3.63 22.56, 3.13 21.97 C2.63 21.38, 2.18 20.73, 1.79 20.06 C1.4 19.39, 1.07 18.67, 0.81 17.95 C0.54 17.22, 0.34 16.46, 0.2 15.7 C0.07 14.93, 0 14.15, 0 13.37 C0 12.6, 0.07 11.81, 0.2 11.05 C0.34 10.29, 0.54 9.53, 0.81 8.8 C1.07 8.07, 1.4 7.36, 1.79 6.69 C2.18 6.02, 2.63 5.37, 3.13 4.78 C3.63 4.18, 4.18 3.63, 4.78 3.13 C5.37 2.63, 6.02 2.18, 6.69 1.79 C7.36 1.4, 8.07 1.07, 8.8 0.81 C9.53 0.54, 10.29 0.34, 11.05 0.2 C11.81 0.07, 12.6 0, 13.37 0 C14.15 0, 14.93 0.07, 15.7 0.2 C16.46 0.34, 17.22 0.54, 17.95 0.81 C18.67 1.07, 19.39 1.4, 20.06 1.79 C20.73 2.18, 21.38 2.63, 21.97 3.13 C22.56 3.63, 23.12 4.18, 23.62 4.78 C24.12 5.37, 24.57 6.02, 24.96 6.69 C25.34 7.36, 25.68 8.07, 25.94 8.8 C26.2 9.53, 26.41 10.29, 26.54 11.05 C26.68 11.81, 26.71 12.99, 26.75 13.37 C26.78 13.76, 26.78 12.99, 26.75 13.37" stroke="#000000" stroke-width="4" fill="none"></path></g><g stroke-linecap="round"><g transform="translate(599.756726677286 14.307907967497272) rotate(269.8685561241723 0.03231524157445165 13.111884023032474)"><path d="M0 0 C0.01 4.37, 0.05 21.85, 0.06 26.22 M0 0 C0.01 4.37, 0.05 21.85, 0.06 26.22" stroke="#000000" stroke-width="4" fill="none"></path></g></g><g stroke-linecap="round"><g transform="translate(604.8009858234507 14.384917127390281) rotate(269.8685561241723 0.03231524157445165 13.111884023032474)"><path d="M0 0 C0.01 4.37, 0.05 21.85, 0.06 26.22 M0 0 C0.01 4.37, 0.05 21.85, 0.06 26.22" stroke="#000000" stroke-width="4" fill="none"></path></g></g><g stroke-linecap="round" transform="translate(617.2000000000005 15.600000000000136) rotate(0 13.373374241769284 13.373374241769312)"><path d="M26.75 13.37 C26.75 14.15, 26.68 14.93, 26.54 15.7 C26.41 16.46, 26.2 17.22, 25.94 17.95 C25.68 18.67, 25.34 19.39, 24.96 20.06 C24.57 20.73, 24.12 21.38, 23.62 21.97 C23.12 22.56, 22.56 23.12, 21.97 23.62 C21.38 24.12, 20.73 24.57, 20.06 24.96 C19.39 25.34, 18.67 25.68, 17.95 25.94 C17.22 26.2, 16.46 26.41, 15.7 26.54 C14.93 26.68, 14.15 26.75, 13.37 26.75 C12.6 26.75, 11.81 26.68, 11.05 26.54 C10.29 26.41, 9.53 26.2, 8.8 25.94 C8.07 25.68, 7.36 25.34, 6.69 24.96 C6.02 24.57, 5.37 24.12, 4.78 23.62 C4.18 23.12, 3.63 22.56, 3.13 21.97 C2.63 21.38, 2.18 20.73, 1.79 20.06 C1.4 19.39, 1.07 18.67, 0.81 17.95 C0.54 17.22, 0.34 16.46, 0.2 15.7 C0.07 14.93, 0 14.15, 0 13.37 C0 12.6, 0.07 11.81, 0.2 11.05 C0.34 10.29, 0.54 9.53, 0.81 8.8 C1.07 8.07, 1.4 7.36, 1.79 6.69 C2.18 6.02, 2.63 5.37, 3.13 4.78 C3.63 4.18, 4.18 3.63, 4.78 3.13 C5.37 2.63, 6.02 2.18, 6.69 1.79 C7.36 1.4, 8.07 1.07, 8.8 0.81 C9.53 0.54, 10.29 0.34, 11.05 0.2 C11.81 0.07, 12.6 0, 13.37 0 C14.15 0, 14.93 0.07, 15.7 0.2 C16.46 0.34, 17.22 0.54, 17.95 0.81 C18.67 1.07, 19.39 1.4, 20.06 1.79 C20.73 2.18, 21.38 2.63, 21.97 3.13 C22.56 3.63, 23.12 4.18, 23.62 4.78 C24.12 5.37, 24.57 6.02, 24.96 6.69 C25.34 7.36, 25.68 8.07, 25.94 8.8 C26.2 9.53, 26.41 10.29, 26.54 11.05 C26.68 11.81, 26.71 12.99, 26.75 13.37 C26.78 13.76, 26.78 12.99, 26.75 13.37" stroke="none" stroke-width="0" fill="#228be6"></path><path d="M26.75 13.37 C26.75 14.15, 26.68 14.93, 26.54 15.7 C26.41 16.46, 26.2 17.22, 25.94 17.95 C25.68 18.67, 25.34 19.39, 24.96 20.06 C24.57 20.73, 24.12 21.38, 23.62 21.97 C23.12 22.56, 22.56 23.12, 21.97 23.62 C21.38 24.12, 20.73 24.57, 20.06 24.96 C19.39 25.34, 18.67 25.68, 17.95 25.94 C17.22 26.2, 16.46 26.41, 15.7 26.54 C14.93 26.68, 14.15 26.75, 13.37 26.75 C12.6 26.75, 11.81 26.68, 11.05 26.54 C10.29 26.41, 9.53 26.2, 8.8 25.94 C8.07 25.68, 7.36 25.34, 6.69 24.96 C6.02 24.57, 5.37 24.12, 4.78 23.62 C4.18 23.12, 3.63 22.56, 3.13 21.97 C2.63 21.38, 2.18 20.73, 1.79 20.06 C1.4 19.39, 1.07 18.67, 0.81 17.95 C0.54 17.22, 0.34 16.46, 0.2 15.7 C0.07 14.93, 0 14.15, 0 13.37 C0 12.6, 0.07 11.81, 0.2 11.05 C0.34 10.29, 0.54 9.53, 0.81 8.8 C1.07 8.07, 1.4 7.36, 1.79 6.69 C2.18 6.02, 2.63 5.37, 3.13 4.78 C3.63 4.18, 4.18 3.63, 4.78 3.13 C5.37 2.63, 6.02 2.18, 6.69 1.79 C7.36 1.4, 8.07 1.07, 8.8 0.81 C9.53 0.54, 10.29 0.34, 11.05 0.2 C11.81 0.07, 12.6 0, 13.37 0 C14.15 0, 14.93 0.07, 15.7 0.2 C16.46 0.34, 17.22 0.54, 17.95 0.81 C18.67 1.07, 19.39 1.4, 20.06 1.79 C20.73 2.18, 21.38 2.63, 21.97 3.13 C22.56 3.63, 23.12 4.18, 23.62 4.78 C24.12 5.37, 24.57 6.02, 24.96 6.69 C25.34 7.36, 25.68 8.07, 25.94 8.8 C26.2 9.53, 26.41 10.29, 26.54 11.05 C26.68 11.81, 26.71 12.99, 26.75 13.37 C26.78 13.76, 26.78 12.99, 26.75 13.37" stroke="#c92a2a" stroke-width="4" fill="none"></path></g><g stroke-linecap="round"><g transform="translate(180.60098582345017 10.784917127390145) rotate(269.8685561241723 0.03231524157450849 13.111884023032474)"><path d="M0 0 C0.01 4.37, 0.05 21.85, 0.06 26.22 M0 0 C0.01 4.37, 0.05 21.85, 0.06 26.22" stroke="#000000" stroke-width="4" fill="none"></path></g></g><g stroke-linecap="round" transform="translate(193 12) rotate(0 13.373374241769284 13.373374241769312)"><path d="M26.75 13.37 C26.75 14.15, 26.68 14.93, 26.54 15.7 C26.41 16.46, 26.2 17.22, 25.94 17.95 C25.68 18.67, 25.34 19.39, 24.96 20.06 C24.57 20.73, 24.12 21.38, 23.62 21.97 C23.12 22.56, 22.56 23.12, 21.97 23.62 C21.38 24.12, 20.73 24.57, 20.06 24.96 C19.39 25.34, 18.67 25.68, 17.95 25.94 C17.22 26.2, 16.46 26.41, 15.7 26.54 C14.93 26.68, 14.15 26.75, 13.37 26.75 C12.6 26.75, 11.81 26.68, 11.05 26.54 C10.29 26.41, 9.53 26.2, 8.8 25.94 C8.07 25.68, 7.36 25.34, 6.69 24.96 C6.02 24.57, 5.37 24.12, 4.78 23.62 C4.18 23.12, 3.63 22.56, 3.13 21.97 C2.63 21.38, 2.18 20.73, 1.79 20.06 C1.4 19.39, 1.07 18.67, 0.81 17.95 C0.54 17.22, 0.34 16.46, 0.2 15.7 C0.07 14.93, 0 14.15, 0 13.37 C0 12.6, 0.07 11.81, 0.2 11.05 C0.34 10.29, 0.54 9.53, 0.81 8.8 C1.07 8.07, 1.4 7.36, 1.79 6.69 C2.18 6.02, 2.63 5.37, 3.13 4.78 C3.63 4.18, 4.18 3.63, 4.78 3.13 C5.37 2.63, 6.02 2.18, 6.69 1.79 C7.36 1.4, 8.07 1.07, 8.8 0.81 C9.53 0.54, 10.29 0.34, 11.05 0.2 C11.81 0.07, 12.6 0, 13.37 0 C14.15 0, 14.93 0.07, 15.7 0.2 C16.46 0.34, 17.22 0.54, 17.95 0.81 C18.67 1.07, 19.39 1.4, 20.06 1.79 C20.73 2.18, 21.38 2.63, 21.97 3.13 C22.56 3.63, 23.12 4.18, 23.62 4.78 C24.12 5.37, 24.57 6.02, 24.96 6.69 C25.34 7.36, 25.68 8.07, 25.94 8.8 C26.2 9.53, 26.41 10.29, 26.54 11.05 C26.68 11.81, 26.71 12.99, 26.75 13.37 C26.78 13.76, 26.78 12.99, 26.75 13.37" stroke="none" stroke-width="0" fill="#228be6"></path><path d="M26.75 13.37 C26.75 14.15, 26.68 14.93, 26.54 15.7 C26.41 16.46, 26.2 17.22, 25.94 17.95 C25.68 18.67, 25.34 19.39, 24.96 20.06 C24.57 20.73, 24.12 21.38, 23.62 21.97 C23.12 22.56, 22.56 23.12, 21.97 23.62 C21.38 24.12, 20.73 24.57, 20.06 24.96 C19.39 25.34, 18.67 25.68, 17.95 25.94 C17.22 26.2, 16.46 26.41, 15.7 26.54 C14.93 26.68, 14.15 26.75, 13.37 26.75 C12.6 26.75, 11.81 26.68, 11.05 26.54 C10.29 26.41, 9.53 26.2, 8.8 25.94 C8.07 25.68, 7.36 25.34, 6.69 24.96 C6.02 24.57, 5.37 24.12, 4.78 23.62 C4.18 23.12, 3.63 22.56, 3.13 21.97 C2.63 21.38, 2.18 20.73, 1.79 20.06 C1.4 19.39, 1.07 18.67, 0.81 17.95 C0.54 17.22, 0.34 16.46, 0.2 15.7 C0.07 14.93, 0 14.15, 0 13.37 C0 12.6, 0.07 11.81, 0.2 11.05 C0.34 10.29, 0.54 9.53, 0.81 8.8 C1.07 8.07, 1.4 7.36, 1.79 6.69 C2.18 6.02, 2.63 5.37, 3.13 4.78 C3.63 4.18, 4.18 3.63, 4.78 3.13 C5.37 2.63, 6.02 2.18, 6.69 1.79 C7.36 1.4, 8.07 1.07, 8.8 0.81 C9.53 0.54, 10.29 0.34, 11.05 0.2 C11.81 0.07, 12.6 0, 13.37 0 C14.15 0, 14.93 0.07, 15.7 0.2 C16.46 0.34, 17.22 0.54, 17.95 0.81 C18.67 1.07, 19.39 1.4, 20.06 1.79 C20.73 2.18, 21.38 2.63, 21.97 3.13 C22.56 3.63, 23.12 4.18, 23.62 4.78 C24.12 5.37, 24.57 6.02, 24.96 6.69 C25.34 7.36, 25.68 8.07, 25.94 8.8 C26.2 9.53, 26.41 10.29, 26.54 11.05 C26.68 11.81, 26.71 12.99, 26.75 13.37 C26.78 13.76, 26.78 12.99, 26.75 13.37" stroke="#000000" stroke-width="4" fill="none"></path></g><g stroke-linecap="round"><g transform="translate(233.5567266772855 11.507907967497204) rotate(269.8685561241723 0.03231524157450849 13.111884023032474)"><path d="M0 0 C0.01 4.37, 0.05 21.85, 0.06 26.22 M0 0 C0.01 4.37, 0.05 21.85, 0.06 26.22" stroke="#000000" stroke-width="4" fill="none"></path></g></g><g stroke-linecap="round"><g transform="translate(363.6009858234502 11.784917127390145) rotate(269.8685561241723 0.03231524157445165 13.111884023032474)"><path d="M0 0 C0.01 4.37, 0.05 21.85, 0.06 26.22 M0 0 C0.01 4.37, 0.05 21.85, 0.06 26.22" stroke="#000000" stroke-width="4" fill="none"></path></g></g><g stroke-linecap="round" transform="translate(376 13) rotate(0 13.373374241769284 13.373374241769312)"><path d="M26.75 13.37 C26.75 14.15, 26.68 14.93, 26.54 15.7 C26.41 16.46, 26.2 17.22, 25.94 17.95 C25.68 18.67, 25.34 19.39, 24.96 20.06 C24.57 20.73, 24.12 21.38, 23.62 21.97 C23.12 22.56, 22.56 23.12, 21.97 23.62 C21.38 24.12, 20.73 24.57, 20.06 24.96 C19.39 25.34, 18.67 25.68, 17.95 25.94 C17.22 26.2, 16.46 26.41, 15.7 26.54 C14.93 26.68, 14.15 26.75, 13.37 26.75 C12.6 26.75, 11.81 26.68, 11.05 26.54 C10.29 26.41, 9.53 26.2, 8.8 25.94 C8.07 25.68, 7.36 25.34, 6.69 24.96 C6.02 24.57, 5.37 24.12, 4.78 23.62 C4.18 23.12, 3.63 22.56, 3.13 21.97 C2.63 21.38, 2.18 20.73, 1.79 20.06 C1.4 19.39, 1.07 18.67, 0.81 17.95 C0.54 17.22, 0.34 16.46, 0.2 15.7 C0.07 14.93, 0 14.15, 0 13.37 C0 12.6, 0.07 11.81, 0.2 11.05 C0.34 10.29, 0.54 9.53, 0.81 8.8 C1.07 8.07, 1.4 7.36, 1.79 6.69 C2.18 6.02, 2.63 5.37, 3.13 4.78 C3.63 4.18, 4.18 3.63, 4.78 3.13 C5.37 2.63, 6.02 2.18, 6.69 1.79 C7.36 1.4, 8.07 1.07, 8.8 0.81 C9.53 0.54, 10.29 0.34, 11.05 0.2 C11.81 0.07, 12.6 0, 13.37 0 C14.15 0, 14.93 0.07, 15.7 0.2 C16.46 0.34, 17.22 0.54, 17.95 0.81 C18.67 1.07, 19.39 1.4, 20.06 1.79 C20.73 2.18, 21.38 2.63, 21.97 3.13 C22.56 3.63, 23.12 4.18, 23.62 4.78 C24.12 5.37, 24.57 6.02, 24.96 6.69 C25.34 7.36, 25.68 8.07, 25.94 8.8 C26.2 9.53, 26.41 10.29, 26.54 11.05 C26.68 11.81, 26.71 12.99, 26.75 13.37 C26.78 13.76, 26.78 12.99, 26.75 13.37" stroke="none" stroke-width="0" fill="#228be6"></path><path d="M26.75 13.37 C26.75 14.15, 26.68 14.93, 26.54 15.7 C26.41 16.46, 26.2 17.22, 25.94 17.95 C25.68 18.67, 25.34 19.39, 24.96 20.06 C24.57 20.73, 24.12 21.38, 23.62 21.97 C23.12 22.56, 22.56 23.12, 21.97 23.62 C21.38 24.12, 20.73 24.57, 20.06 24.96 C19.39 25.34, 18.67 25.68, 17.95 25.94 C17.22 26.2, 16.46 26.41, 15.7 26.54 C14.93 26.68, 14.15 26.75, 13.37 26.75 C12.6 26.75, 11.81 26.68, 11.05 26.54 C10.29 26.41, 9.53 26.2, 8.8 25.94 C8.07 25.68, 7.36 25.34, 6.69 24.96 C6.02 24.57, 5.37 24.12, 4.78 23.62 C4.18 23.12, 3.63 22.56, 3.13 21.97 C2.63 21.38, 2.18 20.73, 1.79 20.06 C1.4 19.39, 1.07 18.67, 0.81 17.95 C0.54 17.22, 0.34 16.46, 0.2 15.7 C0.07 14.93, 0 14.15, 0 13.37 C0 12.6, 0.07 11.81, 0.2 11.05 C0.34 10.29, 0.54 9.53, 0.81 8.8 C1.07 8.07, 1.4 7.36, 1.79 6.69 C2.18 6.02, 2.63 5.37, 3.13 4.78 C3.63 4.18, 4.18 3.63, 4.78 3.13 C5.37 2.63, 6.02 2.18, 6.69 1.79 C7.36 1.4, 8.07 1.07, 8.8 0.81 C9.53 0.54, 10.29 0.34, 11.05 0.2 C11.81 0.07, 12.6 0, 13.37 0 C14.15 0, 14.93 0.07, 15.7 0.2 C16.46 0.34, 17.22 0.54, 17.95 0.81 C18.67 1.07, 19.39 1.4, 20.06 1.79 C20.73 2.18, 21.38 2.63, 21.97 3.13 C22.56 3.63, 23.12 4.18, 23.62 4.78 C24.12 5.37, 24.57 6.02, 24.96 6.69 C25.34 7.36, 25.68 8.07, 25.94 8.8 C26.2 9.53, 26.41 10.29, 26.54 11.05 C26.68 11.81, 26.71 12.99, 26.75 13.37 C26.78 13.76, 26.78 12.99, 26.75 13.37" stroke="#000000" stroke-width="4" fill="none"></path></g><g stroke-linecap="round"><g transform="translate(416.5567266772855 12.507907967497204) rotate(269.8685561241723 0.03231524157445165 13.111884023032474)"><path d="M0 0 C0.01 4.37, 0.05 21.85, 0.06 26.22 M0 0 C0.01 4.37, 0.05 21.85, 0.06 26.22" stroke="#000000" stroke-width="4" fill="none"></path></g></g><g stroke-linecap="round"><g transform="translate(243.60098582345017 11.784917127390145) rotate(269.8685561241723 0.03231524157450849 13.111884023032474)"><path d="M0 0 C0.01 4.37, 0.05 21.85, 0.06 26.22 M0 0 C0.01 4.37, 0.05 21.85, 0.06 26.22" stroke="#000000" stroke-width="4" fill="none"></path></g></g><g stroke-linecap="round" transform="translate(256 13) rotate(0 13.373374241769284 13.373374241769312)"><path d="M26.75 13.37 C26.75 14.15, 26.68 14.93, 26.54 15.7 C26.41 16.46, 26.2 17.22, 25.94 17.95 C25.68 18.67, 25.34 19.39, 24.96 20.06 C24.57 20.73, 24.12 21.38, 23.62 21.97 C23.12 22.56, 22.56 23.12, 21.97 23.62 C21.38 24.12, 20.73 24.57, 20.06 24.96 C19.39 25.34, 18.67 25.68, 17.95 25.94 C17.22 26.2, 16.46 26.41, 15.7 26.54 C14.93 26.68, 14.15 26.75, 13.37 26.75 C12.6 26.75, 11.81 26.68, 11.05 26.54 C10.29 26.41, 9.53 26.2, 8.8 25.94 C8.07 25.68, 7.36 25.34, 6.69 24.96 C6.02 24.57, 5.37 24.12, 4.78 23.62 C4.18 23.12, 3.63 22.56, 3.13 21.97 C2.63 21.38, 2.18 20.73, 1.79 20.06 C1.4 19.39, 1.07 18.67, 0.81 17.95 C0.54 17.22, 0.34 16.46, 0.2 15.7 C0.07 14.93, 0 14.15, 0 13.37 C0 12.6, 0.07 11.81, 0.2 11.05 C0.34 10.29, 0.54 9.53, 0.81 8.8 C1.07 8.07, 1.4 7.36, 1.79 6.69 C2.18 6.02, 2.63 5.37, 3.13 4.78 C3.63 4.18, 4.18 3.63, 4.78 3.13 C5.37 2.63, 6.02 2.18, 6.69 1.79 C7.36 1.4, 8.07 1.07, 8.8 0.81 C9.53 0.54, 10.29 0.34, 11.05 0.2 C11.81 0.07, 12.6 0, 13.37 0 C14.15 0, 14.93 0.07, 15.7 0.2 C16.46 0.34, 17.22 0.54, 17.95 0.81 C18.67 1.07, 19.39 1.4, 20.06 1.79 C20.73 2.18, 21.38 2.63, 21.97 3.13 C22.56 3.63, 23.12 4.18, 23.62 4.78 C24.12 5.37, 24.57 6.02, 24.96 6.69 C25.34 7.36, 25.68 8.07, 25.94 8.8 C26.2 9.53, 26.41 10.29, 26.54 11.05 C26.68 11.81, 26.71 12.99, 26.75 13.37 C26.78 13.76, 26.78 12.99, 26.75 13.37" stroke="none" stroke-width="0" fill="#228be6"></path><path d="M26.75 13.37 C26.75 14.15, 26.68 14.93, 26.54 15.7 C26.41 16.46, 26.2 17.22, 25.94 17.95 C25.68 18.67, 25.34 19.39, 24.96 20.06 C24.57 20.73, 24.12 21.38, 23.62 21.97 C23.12 22.56, 22.56 23.12, 21.97 23.62 C21.38 24.12, 20.73 24.57, 20.06 24.96 C19.39 25.34, 18.67 25.68, 17.95 25.94 C17.22 26.2, 16.46 26.41, 15.7 26.54 C14.93 26.68, 14.15 26.75, 13.37 26.75 C12.6 26.75, 11.81 26.68, 11.05 26.54 C10.29 26.41, 9.53 26.2, 8.8 25.94 C8.07 25.68, 7.36 25.34, 6.69 24.96 C6.02 24.57, 5.37 24.12, 4.78 23.62 C4.18 23.12, 3.63 22.56, 3.13 21.97 C2.63 21.38, 2.18 20.73, 1.79 20.06 C1.4 19.39, 1.07 18.67, 0.81 17.95 C0.54 17.22, 0.34 16.46, 0.2 15.7 C0.07 14.93, 0 14.15, 0 13.37 C0 12.6, 0.07 11.81, 0.2 11.05 C0.34 10.29, 0.54 9.53, 0.81 8.8 C1.07 8.07, 1.4 7.36, 1.79 6.69 C2.18 6.02, 2.63 5.37, 3.13 4.78 C3.63 4.18, 4.18 3.63, 4.78 3.13 C5.37 2.63, 6.02 2.18, 6.69 1.79 C7.36 1.4, 8.07 1.07, 8.8 0.81 C9.53 0.54, 10.29 0.34, 11.05 0.2 C11.81 0.07, 12.6 0, 13.37 0 C14.15 0, 14.93 0.07, 15.7 0.2 C16.46 0.34, 17.22 0.54, 17.95 0.81 C18.67 1.07, 19.39 1.4, 20.06 1.79 C20.73 2.18, 21.38 2.63, 21.97 3.13 C22.56 3.63, 23.12 4.18, 23.62 4.78 C24.12 5.37, 24.57 6.02, 24.96 6.69 C25.34 7.36, 25.68 8.07, 25.94 8.8 C26.2 9.53, 26.41 10.29, 26.54 11.05 C26.68 11.81, 26.71 12.99, 26.75 13.37 C26.78 13.76, 26.78 12.99, 26.75 13.37" stroke="#000000" stroke-width="4" fill="none"></path></g><g stroke-linecap="round"><g transform="translate(296.5567266772855 12.507907967497204) rotate(269.8685561241723 0.03231524157450849 13.111884023032474)"><path d="M0 0 C0.01 4.37, 0.05 21.85, 0.06 26.22 M0 0 C0.01 4.37, 0.05 21.85, 0.06 26.22" stroke="#000000" stroke-width="4" fill="none"></path></g></g><g stroke-linecap="round"><g transform="translate(426.6009858234502 12.784917127390145) rotate(269.8685561241723 0.03231524157445165 13.111884023032474)"><path d="M0 0 C0.01 4.37, 0.05 21.85, 0.06 26.22 M0 0 C0.01 4.37, 0.05 21.85, 0.06 26.22" stroke="#000000" stroke-width="4" fill="none"></path></g></g><g stroke-linecap="round" transform="translate(439 14) rotate(0 13.373374241769284 13.373374241769312)"><path d="M26.75 13.37 C26.75 14.15, 26.68 14.93, 26.54 15.7 C26.41 16.46, 26.2 17.22, 25.94 17.95 C25.68 18.67, 25.34 19.39, 24.96 20.06 C24.57 20.73, 24.12 21.38, 23.62 21.97 C23.12 22.56, 22.56 23.12, 21.97 23.62 C21.38 24.12, 20.73 24.57, 20.06 24.96 C19.39 25.34, 18.67 25.68, 17.95 25.94 C17.22 26.2, 16.46 26.41, 15.7 26.54 C14.93 26.68, 14.15 26.75, 13.37 26.75 C12.6 26.75, 11.81 26.68, 11.05 26.54 C10.29 26.41, 9.53 26.2, 8.8 25.94 C8.07 25.68, 7.36 25.34, 6.69 24.96 C6.02 24.57, 5.37 24.12, 4.78 23.62 C4.18 23.12, 3.63 22.56, 3.13 21.97 C2.63 21.38, 2.18 20.73, 1.79 20.06 C1.4 19.39, 1.07 18.67, 0.81 17.95 C0.54 17.22, 0.34 16.46, 0.2 15.7 C0.07 14.93, 0 14.15, 0 13.37 C0 12.6, 0.07 11.81, 0.2 11.05 C0.34 10.29, 0.54 9.53, 0.81 8.8 C1.07 8.07, 1.4 7.36, 1.79 6.69 C2.18 6.02, 2.63 5.37, 3.13 4.78 C3.63 4.18, 4.18 3.63, 4.78 3.13 C5.37 2.63, 6.02 2.18, 6.69 1.79 C7.36 1.4, 8.07 1.07, 8.8 0.81 C9.53 0.54, 10.29 0.34, 11.05 0.2 C11.81 0.07, 12.6 0, 13.37 0 C14.15 0, 14.93 0.07, 15.7 0.2 C16.46 0.34, 17.22 0.54, 17.95 0.81 C18.67 1.07, 19.39 1.4, 20.06 1.79 C20.73 2.18, 21.38 2.63, 21.97 3.13 C22.56 3.63, 23.12 4.18, 23.62 4.78 C24.12 5.37, 24.57 6.02, 24.96 6.69 C25.34 7.36, 25.68 8.07, 25.94 8.8 C26.2 9.53, 26.41 10.29, 26.54 11.05 C26.68 11.81, 26.71 12.99, 26.75 13.37 C26.78 13.76, 26.78 12.99, 26.75 13.37" stroke="none" stroke-width="0" fill="#228be6"></path><path d="M26.75 13.37 C26.75 14.15, 26.68 14.93, 26.54 15.7 C26.41 16.46, 26.2 17.22, 25.94 17.95 C25.68 18.67, 25.34 19.39, 24.96 20.06 C24.57 20.73, 24.12 21.38, 23.62 21.97 C23.12 22.56, 22.56 23.12, 21.97 23.62 C21.38 24.12, 20.73 24.57, 20.06 24.96 C19.39 25.34, 18.67 25.68, 17.95 25.94 C17.22 26.2, 16.46 26.41, 15.7 26.54 C14.93 26.68, 14.15 26.75, 13.37 26.75 C12.6 26.75, 11.81 26.68, 11.05 26.54 C10.29 26.41, 9.53 26.2, 8.8 25.94 C8.07 25.68, 7.36 25.34, 6.69 24.96 C6.02 24.57, 5.37 24.12, 4.78 23.62 C4.18 23.12, 3.63 22.56, 3.13 21.97 C2.63 21.38, 2.18 20.73, 1.79 20.06 C1.4 19.39, 1.07 18.67, 0.81 17.95 C0.54 17.22, 0.34 16.46, 0.2 15.7 C0.07 14.93, 0 14.15, 0 13.37 C0 12.6, 0.07 11.81, 0.2 11.05 C0.34 10.29, 0.54 9.53, 0.81 8.8 C1.07 8.07, 1.4 7.36, 1.79 6.69 C2.18 6.02, 2.63 5.37, 3.13 4.78 C3.63 4.18, 4.18 3.63, 4.78 3.13 C5.37 2.63, 6.02 2.18, 6.69 1.79 C7.36 1.4, 8.07 1.07, 8.8 0.81 C9.53 0.54, 10.29 0.34, 11.05 0.2 C11.81 0.07, 12.6 0, 13.37 0 C14.15 0, 14.93 0.07, 15.7 0.2 C16.46 0.34, 17.22 0.54, 17.95 0.81 C18.67 1.07, 19.39 1.4, 20.06 1.79 C20.73 2.18, 21.38 2.63, 21.97 3.13 C22.56 3.63, 23.12 4.18, 23.62 4.78 C24.12 5.37, 24.57 6.02, 24.96 6.69 C25.34 7.36, 25.68 8.07, 25.94 8.8 C26.2 9.53, 26.41 10.29, 26.54 11.05 C26.68 11.81, 26.71 12.99, 26.75 13.37 C26.78 13.76, 26.78 12.99, 26.75 13.37" stroke="#000000" stroke-width="4" fill="none"></path></g><g stroke-linecap="round"><g transform="translate(479.5567266772855 13.507907967497204) rotate(269.8685561241723 0.03231524157445165 13.111884023032474)"><path d="M0 0 C0.01 4.37, 0.05 21.85, 0.06 26.22 M0 0 C0.01 4.37, 0.05 21.85, 0.06 26.22" stroke="#000000" stroke-width="4" fill="none"></path></g></g><g stroke-linecap="round"><g transform="translate(303.6009858234502 11.784917127390145) rotate(269.8685561241723 0.03231524157450849 13.111884023032474)"><path d="M0 0 C0.01 4.37, 0.05 21.85, 0.06 26.22 M0 0 C0.01 4.37, 0.05 21.85, 0.06 26.22" stroke="#000000" stroke-width="4" fill="none"></path></g></g><g stroke-linecap="round" transform="translate(316 13) rotate(0 13.373374241769284 13.373374241769312)"><path d="M26.75 13.37 C26.75 14.15, 26.68 14.93, 26.54 15.7 C26.41 16.46, 26.2 17.22, 25.94 17.95 C25.68 18.67, 25.34 19.39, 24.96 20.06 C24.57 20.73, 24.12 21.38, 23.62 21.97 C23.12 22.56, 22.56 23.12, 21.97 23.62 C21.38 24.12, 20.73 24.57, 20.06 24.96 C19.39 25.34, 18.67 25.68, 17.95 25.94 C17.22 26.2, 16.46 26.41, 15.7 26.54 C14.93 26.68, 14.15 26.75, 13.37 26.75 C12.6 26.75, 11.81 26.68, 11.05 26.54 C10.29 26.41, 9.53 26.2, 8.8 25.94 C8.07 25.68, 7.36 25.34, 6.69 24.96 C6.02 24.57, 5.37 24.12, 4.78 23.62 C4.18 23.12, 3.63 22.56, 3.13 21.97 C2.63 21.38, 2.18 20.73, 1.79 20.06 C1.4 19.39, 1.07 18.67, 0.81 17.95 C0.54 17.22, 0.34 16.46, 0.2 15.7 C0.07 14.93, 0 14.15, 0 13.37 C0 12.6, 0.07 11.81, 0.2 11.05 C0.34 10.29, 0.54 9.53, 0.81 8.8 C1.07 8.07, 1.4 7.36, 1.79 6.69 C2.18 6.02, 2.63 5.37, 3.13 4.78 C3.63 4.18, 4.18 3.63, 4.78 3.13 C5.37 2.63, 6.02 2.18, 6.69 1.79 C7.36 1.4, 8.07 1.07, 8.8 0.81 C9.53 0.54, 10.29 0.34, 11.05 0.2 C11.81 0.07, 12.6 0, 13.37 0 C14.15 0, 14.93 0.07, 15.7 0.2 C16.46 0.34, 17.22 0.54, 17.95 0.81 C18.67 1.07, 19.39 1.4, 20.06 1.79 C20.73 2.18, 21.38 2.63, 21.97 3.13 C22.56 3.63, 23.12 4.18, 23.62 4.78 C24.12 5.37, 24.57 6.02, 24.96 6.69 C25.34 7.36, 25.68 8.07, 25.94 8.8 C26.2 9.53, 26.41 10.29, 26.54 11.05 C26.68 11.81, 26.71 12.99, 26.75 13.37 C26.78 13.76, 26.78 12.99, 26.75 13.37" stroke="none" stroke-width="0" fill="#228be6"></path><path d="M26.75 13.37 C26.75 14.15, 26.68 14.93, 26.54 15.7 C26.41 16.46, 26.2 17.22, 25.94 17.95 C25.68 18.67, 25.34 19.39, 24.96 20.06 C24.57 20.73, 24.12 21.38, 23.62 21.97 C23.12 22.56, 22.56 23.12, 21.97 23.62 C21.38 24.12, 20.73 24.57, 20.06 24.96 C19.39 25.34, 18.67 25.68, 17.95 25.94 C17.22 26.2, 16.46 26.41, 15.7 26.54 C14.93 26.68, 14.15 26.75, 13.37 26.75 C12.6 26.75, 11.81 26.68, 11.05 26.54 C10.29 26.41, 9.53 26.2, 8.8 25.94 C8.07 25.68, 7.36 25.34, 6.69 24.96 C6.02 24.57, 5.37 24.12, 4.78 23.62 C4.18 23.12, 3.63 22.56, 3.13 21.97 C2.63 21.38, 2.18 20.73, 1.79 20.06 C1.4 19.39, 1.07 18.67, 0.81 17.95 C0.54 17.22, 0.34 16.46, 0.2 15.7 C0.07 14.93, 0 14.15, 0 13.37 C0 12.6, 0.07 11.81, 0.2 11.05 C0.34 10.29, 0.54 9.53, 0.81 8.8 C1.07 8.07, 1.4 7.36, 1.79 6.69 C2.18 6.02, 2.63 5.37, 3.13 4.78 C3.63 4.18, 4.18 3.63, 4.78 3.13 C5.37 2.63, 6.02 2.18, 6.69 1.79 C7.36 1.4, 8.07 1.07, 8.8 0.81 C9.53 0.54, 10.29 0.34, 11.05 0.2 C11.81 0.07, 12.6 0, 13.37 0 C14.15 0, 14.93 0.07, 15.7 0.2 C16.46 0.34, 17.22 0.54, 17.95 0.81 C18.67 1.07, 19.39 1.4, 20.06 1.79 C20.73 2.18, 21.38 2.63, 21.97 3.13 C22.56 3.63, 23.12 4.18, 23.62 4.78 C24.12 5.37, 24.57 6.02, 24.96 6.69 C25.34 7.36, 25.68 8.07, 25.94 8.8 C26.2 9.53, 26.41 10.29, 26.54 11.05 C26.68 11.81, 26.71 12.99, 26.75 13.37 C26.78 13.76, 26.78 12.99, 26.75 13.37" stroke="#000000" stroke-width="4" fill="none"></path></g><g stroke-linecap="round"><g transform="translate(356.5567266772855 12.507907967497204) rotate(269.8685561241723 0.03231524157445165 13.111884023032474)"><path d="M0 0 C0.01 4.37, 0.05 21.85, 0.06 26.22 M0 0 C0.01 4.37, 0.05 21.85, 0.06 26.22" stroke="#000000" stroke-width="4" fill="none"></path></g></g><g stroke-linecap="round"><g transform="translate(486.6009858234502 12.784917127390145) rotate(269.8685561241723 0.03231524157445165 13.111884023032474)"><path d="M0 0 C0.01 4.37, 0.05 21.85, 0.06 26.22 M0 0 C0.01 4.37, 0.05 21.85, 0.06 26.22" stroke="#000000" stroke-width="4" fill="none"></path></g></g><g stroke-linecap="round" transform="translate(499 14) rotate(0 13.373374241769284 13.373374241769312)"><path d="M26.75 13.37 C26.75 14.15, 26.68 14.93, 26.54 15.7 C26.41 16.46, 26.2 17.22, 25.94 17.95 C25.68 18.67, 25.34 19.39, 24.96 20.06 C24.57 20.73, 24.12 21.38, 23.62 21.97 C23.12 22.56, 22.56 23.12, 21.97 23.62 C21.38 24.12, 20.73 24.57, 20.06 24.96 C19.39 25.34, 18.67 25.68, 17.95 25.94 C17.22 26.2, 16.46 26.41, 15.7 26.54 C14.93 26.68, 14.15 26.75, 13.37 26.75 C12.6 26.75, 11.81 26.68, 11.05 26.54 C10.29 26.41, 9.53 26.2, 8.8 25.94 C8.07 25.68, 7.36 25.34, 6.69 24.96 C6.02 24.57, 5.37 24.12, 4.78 23.62 C4.18 23.12, 3.63 22.56, 3.13 21.97 C2.63 21.38, 2.18 20.73, 1.79 20.06 C1.4 19.39, 1.07 18.67, 0.81 17.95 C0.54 17.22, 0.34 16.46, 0.2 15.7 C0.07 14.93, 0 14.15, 0 13.37 C0 12.6, 0.07 11.81, 0.2 11.05 C0.34 10.29, 0.54 9.53, 0.81 8.8 C1.07 8.07, 1.4 7.36, 1.79 6.69 C2.18 6.02, 2.63 5.37, 3.13 4.78 C3.63 4.18, 4.18 3.63, 4.78 3.13 C5.37 2.63, 6.02 2.18, 6.69 1.79 C7.36 1.4, 8.07 1.07, 8.8 0.81 C9.53 0.54, 10.29 0.34, 11.05 0.2 C11.81 0.07, 12.6 0, 13.37 0 C14.15 0, 14.93 0.07, 15.7 0.2 C16.46 0.34, 17.22 0.54, 17.95 0.81 C18.67 1.07, 19.39 1.4, 20.06 1.79 C20.73 2.18, 21.38 2.63, 21.97 3.13 C22.56 3.63, 23.12 4.18, 23.62 4.78 C24.12 5.37, 24.57 6.02, 24.96 6.69 C25.34 7.36, 25.68 8.07, 25.94 8.8 C26.2 9.53, 26.41 10.29, 26.54 11.05 C26.68 11.81, 26.71 12.99, 26.75 13.37 C26.78 13.76, 26.78 12.99, 26.75 13.37" stroke="none" stroke-width="0" fill="#228be6"></path><path d="M26.75 13.37 C26.75 14.15, 26.68 14.93, 26.54 15.7 C26.41 16.46, 26.2 17.22, 25.94 17.95 C25.68 18.67, 25.34 19.39, 24.96 20.06 C24.57 20.73, 24.12 21.38, 23.62 21.97 C23.12 22.56, 22.56 23.12, 21.97 23.62 C21.38 24.12, 20.73 24.57, 20.06 24.96 C19.39 25.34, 18.67 25.68, 17.95 25.94 C17.22 26.2, 16.46 26.41, 15.7 26.54 C14.93 26.68, 14.15 26.75, 13.37 26.75 C12.6 26.75, 11.81 26.68, 11.05 26.54 C10.29 26.41, 9.53 26.2, 8.8 25.94 C8.07 25.68, 7.36 25.34, 6.69 24.96 C6.02 24.57, 5.37 24.12, 4.78 23.62 C4.18 23.12, 3.63 22.56, 3.13 21.97 C2.63 21.38, 2.18 20.73, 1.79 20.06 C1.4 19.39, 1.07 18.67, 0.81 17.95 C0.54 17.22, 0.34 16.46, 0.2 15.7 C0.07 14.93, 0 14.15, 0 13.37 C0 12.6, 0.07 11.81, 0.2 11.05 C0.34 10.29, 0.54 9.53, 0.81 8.8 C1.07 8.07, 1.4 7.36, 1.79 6.69 C2.18 6.02, 2.63 5.37, 3.13 4.78 C3.63 4.18, 4.18 3.63, 4.78 3.13 C5.37 2.63, 6.02 2.18, 6.69 1.79 C7.36 1.4, 8.07 1.07, 8.8 0.81 C9.53 0.54, 10.29 0.34, 11.05 0.2 C11.81 0.07, 12.6 0, 13.37 0 C14.15 0, 14.93 0.07, 15.7 0.2 C16.46 0.34, 17.22 0.54, 17.95 0.81 C18.67 1.07, 19.39 1.4, 20.06 1.79 C20.73 2.18, 21.38 2.63, 21.97 3.13 C22.56 3.63, 23.12 4.18, 23.62 4.78 C24.12 5.37, 24.57 6.02, 24.96 6.69 C25.34 7.36, 25.68 8.07, 25.94 8.8 C26.2 9.53, 26.41 10.29, 26.54 11.05 C26.68 11.81, 26.71 12.99, 26.75 13.37 C26.78 13.76, 26.78 12.99, 26.75 13.37" stroke="#000000" stroke-width="4" fill="none"></path></g><g stroke-linecap="round"><g transform="translate(539.5567266772855 13.507907967497204) rotate(269.8685561241723 0.03231524157445165 13.111884023032474)"><path d="M0 0 C0.01 4.37, 0.05 21.85, 0.06 26.22 M0 0 C0.01 4.37, 0.05 21.85, 0.06 26.22" stroke="#000000" stroke-width="4" fill="none"></path></g></g><g stroke-linecap="round"><g transform="translate(161.90099723997128 23.065146751936595) rotate(0 57.5 38.99999999999997)"><path d="M0 0 C4.4 2.87, 14.05 5.4, 26.4 17.2 C38.75 29, 59.33 60.67, 74.1 70.8 C88.87 80.93, 108.18 76.8, 115 78 M0 0 C4.4 2.87, 14.05 5.4, 26.4 17.2 C38.75 29, 59.33 60.67, 74.1 70.8 C88.87 80.93, 108.18 76.8, 115 78" stroke="#000000" stroke-width="4" fill="none"></path></g></g><g stroke-linecap="round"><g transform="translate(445.5009972399712 102.66514675193662) rotate(0 54.69999999999993 -38.00000000000006)"><path d="M0 0 C7.13 -1.2, 27.65 3.27, 42.8 -7.2 C57.95 -17.67, 79.8 -51.33, 90.9 -62.8 C102 -74.27, 106.32 -73.8, 109.4 -76 M0 0 C7.13 -1.2, 27.65 3.27, 42.8 -7.2 C57.95 -17.67, 79.8 -51.33, 90.9 -62.8 C102 -74.27, 106.32 -73.8, 109.4 -76" stroke="#000000" stroke-width="4" fill="none"></path></g></g><g transform="translate(608.4754968144712 52.10808529487531) rotate(0 24 12)"><text x="0" y="19" font-family="Cascadia, Segoe UI Emoji" font-size="20px" fill="#c92a2a" text-anchor="start" style="white-space: pre;" direction="ltr">HEAD</text></g><g transform="translate(275.47549681447117 135.6080852948753) rotate(0 88.5 12)"><text x="0" y="19" font-family="Cascadia, Segoe UI Emoji" font-size="20px" fill="#343a40" text-anchor="start" style="white-space: pre;" direction="ltr">styles/gh-pages</text></g><g transform="translate(309.47549681447117 52.10808529487531) rotate(0 53 12)"><text x="0" y="19" font-family="Cascadia, Segoe UI Emoji" font-size="20px" fill="#364fc7" text-anchor="start" style="white-space: pre;" direction="ltr">repo/main</text></g><g stroke-linecap="round"><g transform="translate(604.8009858234507 261.28491712739026) rotate(269.8685561241723 0.03231524157445165 13.111884023032474)"><path d="M0 0 C0.01 4.37, 0.05 21.85, 0.06 26.22 M0 0 C0.01 4.37, 0.05 21.85, 0.06 26.22" stroke="#000000" stroke-width="4" fill="none"></path></g></g><g stroke-linecap="round" transform="translate(617.2000000000005 262.5000000000001) rotate(0 13.373374241769284 13.373374241769284)"><path d="M26.75 13.37 C26.75 14.15, 26.68 14.93, 26.54 15.7 C26.41 16.46, 26.2 17.22, 25.94 17.95 C25.68 18.67, 25.34 19.39, 24.96 20.06 C24.57 20.73, 24.12 21.38, 23.62 21.97 C23.12 22.56, 22.56 23.12, 21.97 23.62 C21.38 24.12, 20.73 24.57, 20.06 24.96 C19.39 25.34, 18.67 25.68, 17.95 25.94 C17.22 26.2, 16.46 26.41, 15.7 26.54 C14.93 26.68, 14.15 26.75, 13.37 26.75 C12.6 26.75, 11.81 26.68, 11.05 26.54 C10.29 26.41, 9.53 26.2, 8.8 25.94 C8.07 25.68, 7.36 25.34, 6.69 24.96 C6.02 24.57, 5.37 24.12, 4.78 23.62 C4.18 23.12, 3.63 22.56, 3.13 21.97 C2.63 21.38, 2.18 20.73, 1.79 20.06 C1.4 19.39, 1.07 18.67, 0.81 17.95 C0.54 17.22, 0.34 16.46, 0.2 15.7 C0.07 14.93, 0 14.15, 0 13.37 C0 12.6, 0.07 11.81, 0.2 11.05 C0.34 10.29, 0.54 9.53, 0.81 8.8 C1.07 8.07, 1.4 7.36, 1.79 6.69 C2.18 6.02, 2.63 5.37, 3.13 4.78 C3.63 4.18, 4.18 3.63, 4.78 3.13 C5.37 2.63, 6.02 2.18, 6.69 1.79 C7.36 1.4, 8.07 1.07, 8.8 0.81 C9.53 0.54, 10.29 0.34, 11.05 0.2 C11.81 0.07, 12.6 0, 13.37 0 C14.15 0, 14.93 0.07, 15.7 0.2 C16.46 0.34, 17.22 0.54, 17.95 0.81 C18.67 1.07, 19.39 1.4, 20.06 1.79 C20.73 2.18, 21.38 2.63, 21.97 3.13 C22.56 3.63, 23.12 4.18, 23.62 4.78 C24.12 5.37, 24.57 6.02, 24.96 6.69 C25.34 7.36, 25.68 8.07, 25.94 8.8 C26.2 9.53, 26.41 10.29, 26.54 11.05 C26.68 11.81, 26.71 12.99, 26.75 13.37 C26.78 13.76, 26.78 12.99, 26.75 13.37" stroke="none" stroke-width="0" fill="#228be6"></path><path d="M26.75 13.37 C26.75 14.15, 26.68 14.93, 26.54 15.7 C26.41 16.46, 26.2 17.22, 25.94 17.95 C25.68 18.67, 25.34 19.39, 24.96 20.06 C24.57 20.73, 24.12 21.38, 23.62 21.97 C23.12 22.56, 22.56 23.12, 21.97 23.62 C21.38 24.12, 20.73 24.57, 20.06 24.96 C19.39 25.34, 18.67 25.68, 17.95 25.94 C17.22 26.2, 16.46 26.41, 15.7 26.54 C14.93 26.68, 14.15 26.75, 13.37 26.75 C12.6 26.75, 11.81 26.68, 11.05 26.54 C10.29 26.41, 9.53 26.2, 8.8 25.94 C8.07 25.68, 7.36 25.34, 6.69 24.96 C6.02 24.57, 5.37 24.12, 4.78 23.62 C4.18 23.12, 3.63 22.56, 3.13 21.97 C2.63 21.38, 2.18 20.73, 1.79 20.06 C1.4 19.39, 1.07 18.67, 0.81 17.95 C0.54 17.22, 0.34 16.46, 0.2 15.7 C0.07 14.93, 0 14.15, 0 13.37 C0 12.6, 0.07 11.81, 0.2 11.05 C0.34 10.29, 0.54 9.53, 0.81 8.8 C1.07 8.07, 1.4 7.36, 1.79 6.69 C2.18 6.02, 2.63 5.37, 3.13 4.78 C3.63 4.18, 4.18 3.63, 4.78 3.13 C5.37 2.63, 6.02 2.18, 6.69 1.79 C7.36 1.4, 8.07 1.07, 8.8 0.81 C9.53 0.54, 10.29 0.34, 11.05 0.2 C11.81 0.07, 12.6 0, 13.37 0 C14.15 0, 14.93 0.07, 15.7 0.2 C16.46 0.34, 17.22 0.54, 17.95 0.81 C18.67 1.07, 19.39 1.4, 20.06 1.79 C20.73 2.18, 21.38 2.63, 21.97 3.13 C22.56 3.63, 23.12 4.18, 23.62 4.78 C24.12 5.37, 24.57 6.02, 24.96 6.69 C25.34 7.36, 25.68 8.07, 25.94 8.8 C26.2 9.53, 26.41 10.29, 26.54 11.05 C26.68 11.81, 26.71 12.99, 26.75 13.37 C26.78 13.76, 26.78 12.99, 26.75 13.37" stroke="#000000" stroke-width="4" fill="none"></path></g><g stroke-linecap="round"><g transform="translate(657.756726677286 262.0079079674973) rotate(269.8685561241723 0.03231524157445165 13.111884023032474)"><path d="M0 0 C0.01 4.37, 0.05 21.85, 0.06 26.22 M0 0 C0.01 4.37, 0.05 21.85, 0.06 26.22" stroke="#000000" stroke-width="4" fill="none"></path></g></g><g stroke-linecap="round"><g transform="translate(661.8009858234507 262.28491712739026) rotate(269.8685561241723 0.03231524157445165 13.111884023032474)"><path d="M0 0 C0.01 4.37, 0.05 21.85, 0.06 26.22 M0 0 C0.01 4.37, 0.05 21.85, 0.06 26.22" stroke="#000000" stroke-width="4" fill="none"></path></g></g><g stroke-linecap="round" transform="translate(674.2000000000005 263.5000000000001) rotate(0 13.373374241769284 13.373374241769284)"><path d="M26.75 13.37 C26.75 14.15, 26.68 14.93, 26.54 15.7 C26.41 16.46, 26.2 17.22, 25.94 17.95 C25.68 18.67, 25.34 19.39, 24.96 20.06 C24.57 20.73, 24.12 21.38, 23.62 21.97 C23.12 22.56, 22.56 23.12, 21.97 23.62 C21.38 24.12, 20.73 24.57, 20.06 24.96 C19.39 25.34, 18.67 25.68, 17.95 25.94 C17.22 26.2, 16.46 26.41, 15.7 26.54 C14.93 26.68, 14.15 26.75, 13.37 26.75 C12.6 26.75, 11.81 26.68, 11.05 26.54 C10.29 26.41, 9.53 26.2, 8.8 25.94 C8.07 25.68, 7.36 25.34, 6.69 24.96 C6.02 24.57, 5.37 24.12, 4.78 23.62 C4.18 23.12, 3.63 22.56, 3.13 21.97 C2.63 21.38, 2.18 20.73, 1.79 20.06 C1.4 19.39, 1.07 18.67, 0.81 17.95 C0.54 17.22, 0.34 16.46, 0.2 15.7 C0.07 14.93, 0 14.15, 0 13.37 C0 12.6, 0.07 11.81, 0.2 11.05 C0.34 10.29, 0.54 9.53, 0.81 8.8 C1.07 8.07, 1.4 7.36, 1.79 6.69 C2.18 6.02, 2.63 5.37, 3.13 4.78 C3.63 4.18, 4.18 3.63, 4.78 3.13 C5.37 2.63, 6.02 2.18, 6.69 1.79 C7.36 1.4, 8.07 1.07, 8.8 0.81 C9.53 0.54, 10.29 0.34, 11.05 0.2 C11.81 0.07, 12.6 0, 13.37 0 C14.15 0, 14.93 0.07, 15.7 0.2 C16.46 0.34, 17.22 0.54, 17.95 0.81 C18.67 1.07, 19.39 1.4, 20.06 1.79 C20.73 2.18, 21.38 2.63, 21.97 3.13 C22.56 3.63, 23.12 4.18, 23.62 4.78 C24.12 5.37, 24.57 6.02, 24.96 6.69 C25.34 7.36, 25.68 8.07, 25.94 8.8 C26.2 9.53, 26.41 10.29, 26.54 11.05 C26.68 11.81, 26.71 12.99, 26.75 13.37 C26.78 13.76, 26.78 12.99, 26.75 13.37" stroke="none" stroke-width="0" fill="#fab005"></path><path d="M26.75 13.37 C26.75 14.15, 26.68 14.93, 26.54 15.7 C26.41 16.46, 26.2 17.22, 25.94 17.95 C25.68 18.67, 25.34 19.39, 24.96 20.06 C24.57 20.73, 24.12 21.38, 23.62 21.97 C23.12 22.56, 22.56 23.12, 21.97 23.62 C21.38 24.12, 20.73 24.57, 20.06 24.96 C19.39 25.34, 18.67 25.68, 17.95 25.94 C17.22 26.2, 16.46 26.41, 15.7 26.54 C14.93 26.68, 14.15 26.75, 13.37 26.75 C12.6 26.75, 11.81 26.68, 11.05 26.54 C10.29 26.41, 9.53 26.2, 8.8 25.94 C8.07 25.68, 7.36 25.34, 6.69 24.96 C6.02 24.57, 5.37 24.12, 4.78 23.62 C4.18 23.12, 3.63 22.56, 3.13 21.97 C2.63 21.38, 2.18 20.73, 1.79 20.06 C1.4 19.39, 1.07 18.67, 0.81 17.95 C0.54 17.22, 0.34 16.46, 0.2 15.7 C0.07 14.93, 0 14.15, 0 13.37 C0 12.6, 0.07 11.81, 0.2 11.05 C0.34 10.29, 0.54 9.53, 0.81 8.8 C1.07 8.07, 1.4 7.36, 1.79 6.69 C2.18 6.02, 2.63 5.37, 3.13 4.78 C3.63 4.18, 4.18 3.63, 4.78 3.13 C5.37 2.63, 6.02 2.18, 6.69 1.79 C7.36 1.4, 8.07 1.07, 8.8 0.81 C9.53 0.54, 10.29 0.34, 11.05 0.2 C11.81 0.07, 12.6 0, 13.37 0 C14.15 0, 14.93 0.07, 15.7 0.2 C16.46 0.34, 17.22 0.54, 17.95 0.81 C18.67 1.07, 19.39 1.4, 20.06 1.79 C20.73 2.18, 21.38 2.63, 21.97 3.13 C22.56 3.63, 23.12 4.18, 23.62 4.78 C24.12 5.37, 24.57 6.02, 24.96 6.69 C25.34 7.36, 25.68 8.07, 25.94 8.8 C26.2 9.53, 26.41 10.29, 26.54 11.05 C26.68 11.81, 26.71 12.99, 26.75 13.37 C26.78 13.76, 26.78 12.99, 26.75 13.37" stroke="#000000" stroke-width="4" fill="none"></path></g><g stroke-linecap="round"><g transform="translate(714.756726677286 263.0079079674973) rotate(269.8685561241723 0.03231524157445165 13.111884023032474)"><path d="M0 0 C0.01 4.37, 0.05 21.85, 0.06 26.22 M0 0 C0.01 4.37, 0.05 21.85, 0.06 26.22" stroke="#000000" stroke-width="4" fill="none"></path></g></g><g stroke-linecap="round"><g transform="translate(720.8009858234507 263.28491712739026) rotate(269.8685561241723 0.03231524157445165 13.111884023032474)"><path d="M0 0 C0.01 4.37, 0.05 21.85, 0.06 26.22 M0 0 C0.01 4.37, 0.05 21.85, 0.06 26.22" stroke="#000000" stroke-width="4" fill="none"></path></g></g><g stroke-linecap="round" transform="translate(733.2000000000005 264.5000000000001) rotate(0 13.373374241769284 13.373374241769284)"><path d="M26.75 13.37 C26.75 14.15, 26.68 14.93, 26.54 15.7 C26.41 16.46, 26.2 17.22, 25.94 17.95 C25.68 18.67, 25.34 19.39, 24.96 20.06 C24.57 20.73, 24.12 21.38, 23.62 21.97 C23.12 22.56, 22.56 23.12, 21.97 23.62 C21.38 24.12, 20.73 24.57, 20.06 24.96 C19.39 25.34, 18.67 25.68, 17.95 25.94 C17.22 26.2, 16.46 26.41, 15.7 26.54 C14.93 26.68, 14.15 26.75, 13.37 26.75 C12.6 26.75, 11.81 26.68, 11.05 26.54 C10.29 26.41, 9.53 26.2, 8.8 25.94 C8.07 25.68, 7.36 25.34, 6.69 24.96 C6.02 24.57, 5.37 24.12, 4.78 23.62 C4.18 23.12, 3.63 22.56, 3.13 21.97 C2.63 21.38, 2.18 20.73, 1.79 20.06 C1.4 19.39, 1.07 18.67, 0.81 17.95 C0.54 17.22, 0.34 16.46, 0.2 15.7 C0.07 14.93, 0 14.15, 0 13.37 C0 12.6, 0.07 11.81, 0.2 11.05 C0.34 10.29, 0.54 9.53, 0.81 8.8 C1.07 8.07, 1.4 7.36, 1.79 6.69 C2.18 6.02, 2.63 5.37, 3.13 4.78 C3.63 4.18, 4.18 3.63, 4.78 3.13 C5.37 2.63, 6.02 2.18, 6.69 1.79 C7.36 1.4, 8.07 1.07, 8.8 0.81 C9.53 0.54, 10.29 0.34, 11.05 0.2 C11.81 0.07, 12.6 0, 13.37 0 C14.15 0, 14.93 0.07, 15.7 0.2 C16.46 0.34, 17.22 0.54, 17.95 0.81 C18.67 1.07, 19.39 1.4, 20.06 1.79 C20.73 2.18, 21.38 2.63, 21.97 3.13 C22.56 3.63, 23.12 4.18, 23.62 4.78 C24.12 5.37, 24.57 6.02, 24.96 6.69 C25.34 7.36, 25.68 8.07, 25.94 8.8 C26.2 9.53, 26.41 10.29, 26.54 11.05 C26.68 11.81, 26.71 12.99, 26.75 13.37 C26.78 13.76, 26.78 12.99, 26.75 13.37" stroke="none" stroke-width="0" fill="#fab005"></path><path d="M26.75 13.37 C26.75 14.15, 26.68 14.93, 26.54 15.7 C26.41 16.46, 26.2 17.22, 25.94 17.95 C25.68 18.67, 25.34 19.39, 24.96 20.06 C24.57 20.73, 24.12 21.38, 23.62 21.97 C23.12 22.56, 22.56 23.12, 21.97 23.62 C21.38 24.12, 20.73 24.57, 20.06 24.96 C19.39 25.34, 18.67 25.68, 17.95 25.94 C17.22 26.2, 16.46 26.41, 15.7 26.54 C14.93 26.68, 14.15 26.75, 13.37 26.75 C12.6 26.75, 11.81 26.68, 11.05 26.54 C10.29 26.41, 9.53 26.2, 8.8 25.94 C8.07 25.68, 7.36 25.34, 6.69 24.96 C6.02 24.57, 5.37 24.12, 4.78 23.62 C4.18 23.12, 3.63 22.56, 3.13 21.97 C2.63 21.38, 2.18 20.73, 1.79 20.06 C1.4 19.39, 1.07 18.67, 0.81 17.95 C0.54 17.22, 0.34 16.46, 0.2 15.7 C0.07 14.93, 0 14.15, 0 13.37 C0 12.6, 0.07 11.81, 0.2 11.05 C0.34 10.29, 0.54 9.53, 0.81 8.8 C1.07 8.07, 1.4 7.36, 1.79 6.69 C2.18 6.02, 2.63 5.37, 3.13 4.78 C3.63 4.18, 4.18 3.63, 4.78 3.13 C5.37 2.63, 6.02 2.18, 6.69 1.79 C7.36 1.4, 8.07 1.07, 8.8 0.81 C9.53 0.54, 10.29 0.34, 11.05 0.2 C11.81 0.07, 12.6 0, 13.37 0 C14.15 0, 14.93 0.07, 15.7 0.2 C16.46 0.34, 17.22 0.54, 17.95 0.81 C18.67 1.07, 19.39 1.4, 20.06 1.79 C20.73 2.18, 21.38 2.63, 21.97 3.13 C22.56 3.63, 23.12 4.18, 23.62 4.78 C24.12 5.37, 24.57 6.02, 24.96 6.69 C25.34 7.36, 25.68 8.07, 25.94 8.8 C26.2 9.53, 26.41 10.29, 26.54 11.05 C26.68 11.81, 26.71 12.99, 26.75 13.37 C26.78 13.76, 26.78 12.99, 26.75 13.37" stroke="#c92a2a" stroke-width="4" fill="none"></path></g><g stroke-linecap="round" transform="translate(196.33333333333303 260.5000000000001) rotate(0 13.373374241769284 13.373374241769284)"><path d="M26.75 13.37 C26.75 14.15, 26.68 14.93, 26.54 15.7 C26.41 16.46, 26.2 17.22, 25.94 17.95 C25.68 18.67, 25.34 19.39, 24.96 20.06 C24.57 20.73, 24.12 21.38, 23.62 21.97 C23.12 22.56, 22.56 23.12, 21.97 23.62 C21.38 24.12, 20.73 24.57, 20.06 24.96 C19.39 25.34, 18.67 25.68, 17.95 25.94 C17.22 26.2, 16.46 26.41, 15.7 26.54 C14.93 26.68, 14.15 26.75, 13.37 26.75 C12.6 26.75, 11.81 26.68, 11.05 26.54 C10.29 26.41, 9.53 26.2, 8.8 25.94 C8.07 25.68, 7.36 25.34, 6.69 24.96 C6.02 24.57, 5.37 24.12, 4.78 23.62 C4.18 23.12, 3.63 22.56, 3.13 21.97 C2.63 21.38, 2.18 20.73, 1.79 20.06 C1.4 19.39, 1.07 18.67, 0.81 17.95 C0.54 17.22, 0.34 16.46, 0.2 15.7 C0.07 14.93, 0 14.15, 0 13.37 C0 12.6, 0.07 11.81, 0.2 11.05 C0.34 10.29, 0.54 9.53, 0.81 8.8 C1.07 8.07, 1.4 7.36, 1.79 6.69 C2.18 6.02, 2.63 5.37, 3.13 4.78 C3.63 4.18, 4.18 3.63, 4.78 3.13 C5.37 2.63, 6.02 2.18, 6.69 1.79 C7.36 1.4, 8.07 1.07, 8.8 0.81 C9.53 0.54, 10.29 0.34, 11.05 0.2 C11.81 0.07, 12.6 0, 13.37 0 C14.15 0, 14.93 0.07, 15.7 0.2 C16.46 0.34, 17.22 0.54, 17.95 0.81 C18.67 1.07, 19.39 1.4, 20.06 1.79 C20.73 2.18, 21.38 2.63, 21.97 3.13 C22.56 3.63, 23.12 4.18, 23.62 4.78 C24.12 5.37, 24.57 6.02, 24.96 6.69 C25.34 7.36, 25.68 8.07, 25.94 8.8 C26.2 9.53, 26.41 10.29, 26.54 11.05 C26.68 11.81, 26.71 12.99, 26.75 13.37 C26.78 13.76, 26.78 12.99, 26.75 13.37" stroke="none" stroke-width="0" fill="#228be6"></path><path d="M26.75 13.37 C26.75 14.15, 26.68 14.93, 26.54 15.7 C26.41 16.46, 26.2 17.22, 25.94 17.95 C25.68 18.67, 25.34 19.39, 24.96 20.06 C24.57 20.73, 24.12 21.38, 23.62 21.97 C23.12 22.56, 22.56 23.12, 21.97 23.62 C21.38 24.12, 20.73 24.57, 20.06 24.96 C19.39 25.34, 18.67 25.68, 17.95 25.94 C17.22 26.2, 16.46 26.41, 15.7 26.54 C14.93 26.68, 14.15 26.75, 13.37 26.75 C12.6 26.75, 11.81 26.68, 11.05 26.54 C10.29 26.41, 9.53 26.2, 8.8 25.94 C8.07 25.68, 7.36 25.34, 6.69 24.96 C6.02 24.57, 5.37 24.12, 4.78 23.62 C4.18 23.12, 3.63 22.56, 3.13 21.97 C2.63 21.38, 2.18 20.73, 1.79 20.06 C1.4 19.39, 1.07 18.67, 0.81 17.95 C0.54 17.22, 0.34 16.46, 0.2 15.7 C0.07 14.93, 0 14.15, 0 13.37 C0 12.6, 0.07 11.81, 0.2 11.05 C0.34 10.29, 0.54 9.53, 0.81 8.8 C1.07 8.07, 1.4 7.36, 1.79 6.69 C2.18 6.02, 2.63 5.37, 3.13 4.78 C3.63 4.18, 4.18 3.63, 4.78 3.13 C5.37 2.63, 6.02 2.18, 6.69 1.79 C7.36 1.4, 8.07 1.07, 8.8 0.81 C9.53 0.54, 10.29 0.34, 11.05 0.2 C11.81 0.07, 12.6 0, 13.37 0 C14.15 0, 14.93 0.07, 15.7 0.2 C16.46 0.34, 17.22 0.54, 17.95 0.81 C18.67 1.07, 19.39 1.4, 20.06 1.79 C20.73 2.18, 21.38 2.63, 21.97 3.13 C22.56 3.63, 23.12 4.18, 23.62 4.78 C24.12 5.37, 24.57 6.02, 24.96 6.69 C25.34 7.36, 25.68 8.07, 25.94 8.8 C26.2 9.53, 26.41 10.29, 26.54 11.05 C26.68 11.81, 26.71 12.99, 26.75 13.37 C26.78 13.76, 26.78 12.99, 26.75 13.37" stroke="#000000" stroke-width="4" fill="none"></path></g><g stroke-linecap="round"><g transform="translate(236.89006001061853 260.0079079674973) rotate(269.8685561241723 0.03231524157450849 13.111884023032474)"><path d="M0 0 C0.01 4.37, 0.05 21.85, 0.06 26.22 M0 0 C0.01 4.37, 0.05 21.85, 0.06 26.22" stroke="#000000" stroke-width="4" fill="none"></path></g></g><g stroke-linecap="round"><g transform="translate(366.9343191567832 260.2849171273904) rotate(269.8685561241723 0.03231524157445165 13.111884023032474)"><path d="M0 0 C0.01 4.37, 0.05 21.85, 0.06 26.22 M0 0 C0.01 4.37, 0.05 21.85, 0.06 26.22" stroke="#000000" stroke-width="4" fill="none"></path></g></g><g stroke-linecap="round" transform="translate(379.33333333333303 261.5000000000001) rotate(0 13.373374241769284 13.373374241769284)"><path d="M26.75 13.37 C26.75 14.15, 26.68 14.93, 26.54 15.7 C26.41 16.46, 26.2 17.22, 25.94 17.95 C25.68 18.67, 25.34 19.39, 24.96 20.06 C24.57 20.73, 24.12 21.38, 23.62 21.97 C23.12 22.56, 22.56 23.12, 21.97 23.62 C21.38 24.12, 20.73 24.57, 20.06 24.96 C19.39 25.34, 18.67 25.68, 17.95 25.94 C17.22 26.2, 16.46 26.41, 15.7 26.54 C14.93 26.68, 14.15 26.75, 13.37 26.75 C12.6 26.75, 11.81 26.68, 11.05 26.54 C10.29 26.41, 9.53 26.2, 8.8 25.94 C8.07 25.68, 7.36 25.34, 6.69 24.96 C6.02 24.57, 5.37 24.12, 4.78 23.62 C4.18 23.12, 3.63 22.56, 3.13 21.97 C2.63 21.38, 2.18 20.73, 1.79 20.06 C1.4 19.39, 1.07 18.67, 0.81 17.95 C0.54 17.22, 0.34 16.46, 0.2 15.7 C0.07 14.93, 0 14.15, 0 13.37 C0 12.6, 0.07 11.81, 0.2 11.05 C0.34 10.29, 0.54 9.53, 0.81 8.8 C1.07 8.07, 1.4 7.36, 1.79 6.69 C2.18 6.02, 2.63 5.37, 3.13 4.78 C3.63 4.18, 4.18 3.63, 4.78 3.13 C5.37 2.63, 6.02 2.18, 6.69 1.79 C7.36 1.4, 8.07 1.07, 8.8 0.81 C9.53 0.54, 10.29 0.34, 11.05 0.2 C11.81 0.07, 12.6 0, 13.37 0 C14.15 0, 14.93 0.07, 15.7 0.2 C16.46 0.34, 17.22 0.54, 17.95 0.81 C18.67 1.07, 19.39 1.4, 20.06 1.79 C20.73 2.18, 21.38 2.63, 21.97 3.13 C22.56 3.63, 23.12 4.18, 23.62 4.78 C24.12 5.37, 24.57 6.02, 24.96 6.69 C25.34 7.36, 25.68 8.07, 25.94 8.8 C26.2 9.53, 26.41 10.29, 26.54 11.05 C26.68 11.81, 26.71 12.99, 26.75 13.37 C26.78 13.76, 26.78 12.99, 26.75 13.37" stroke="none" stroke-width="0" fill="#228be6"></path><path d="M26.75 13.37 C26.75 14.15, 26.68 14.93, 26.54 15.7 C26.41 16.46, 26.2 17.22, 25.94 17.95 C25.68 18.67, 25.34 19.39, 24.96 20.06 C24.57 20.73, 24.12 21.38, 23.62 21.97 C23.12 22.56, 22.56 23.12, 21.97 23.62 C21.38 24.12, 20.73 24.57, 20.06 24.96 C19.39 25.34, 18.67 25.68, 17.95 25.94 C17.22 26.2, 16.46 26.41, 15.7 26.54 C14.93 26.68, 14.15 26.75, 13.37 26.75 C12.6 26.75, 11.81 26.68, 11.05 26.54 C10.29 26.41, 9.53 26.2, 8.8 25.94 C8.07 25.68, 7.36 25.34, 6.69 24.96 C6.02 24.57, 5.37 24.12, 4.78 23.62 C4.18 23.12, 3.63 22.56, 3.13 21.97 C2.63 21.38, 2.18 20.73, 1.79 20.06 C1.4 19.39, 1.07 18.67, 0.81 17.95 C0.54 17.22, 0.34 16.46, 0.2 15.7 C0.07 14.93, 0 14.15, 0 13.37 C0 12.6, 0.07 11.81, 0.2 11.05 C0.34 10.29, 0.54 9.53, 0.81 8.8 C1.07 8.07, 1.4 7.36, 1.79 6.69 C2.18 6.02, 2.63 5.37, 3.13 4.78 C3.63 4.18, 4.18 3.63, 4.78 3.13 C5.37 2.63, 6.02 2.18, 6.69 1.79 C7.36 1.4, 8.07 1.07, 8.8 0.81 C9.53 0.54, 10.29 0.34, 11.05 0.2 C11.81 0.07, 12.6 0, 13.37 0 C14.15 0, 14.93 0.07, 15.7 0.2 C16.46 0.34, 17.22 0.54, 17.95 0.81 C18.67 1.07, 19.39 1.4, 20.06 1.79 C20.73 2.18, 21.38 2.63, 21.97 3.13 C22.56 3.63, 23.12 4.18, 23.62 4.78 C24.12 5.37, 24.57 6.02, 24.96 6.69 C25.34 7.36, 25.68 8.07, 25.94 8.8 C26.2 9.53, 26.41 10.29, 26.54 11.05 C26.68 11.81, 26.71 12.99, 26.75 13.37 C26.78 13.76, 26.78 12.99, 26.75 13.37" stroke="#000000" stroke-width="4" fill="none"></path></g><g stroke-linecap="round"><g transform="translate(419.8900600106185 261.0079079674973) rotate(269.8685561241723 0.03231524157445165 13.111884023032474)"><path d="M0 0 C0.01 4.37, 0.05 21.85, 0.06 26.22 M0 0 C0.01 4.37, 0.05 21.85, 0.06 26.22" stroke="#000000" stroke-width="4" fill="none"></path></g></g><g stroke-linecap="round"><g transform="translate(246.9343191567832 260.2849171273904) rotate(269.8685561241723 0.03231524157450849 13.111884023032474)"><path d="M0 0 C0.01 4.37, 0.05 21.85, 0.06 26.22 M0 0 C0.01 4.37, 0.05 21.85, 0.06 26.22" stroke="#000000" stroke-width="4" fill="none"></path></g></g><g stroke-linecap="round" transform="translate(259.33333333333303 261.5000000000001) rotate(0 13.373374241769284 13.373374241769284)"><path d="M26.75 13.37 C26.75 14.15, 26.68 14.93, 26.54 15.7 C26.41 16.46, 26.2 17.22, 25.94 17.95 C25.68 18.67, 25.34 19.39, 24.96 20.06 C24.57 20.73, 24.12 21.38, 23.62 21.97 C23.12 22.56, 22.56 23.12, 21.97 23.62 C21.38 24.12, 20.73 24.57, 20.06 24.96 C19.39 25.34, 18.67 25.68, 17.95 25.94 C17.22 26.2, 16.46 26.41, 15.7 26.54 C14.93 26.68, 14.15 26.75, 13.37 26.75 C12.6 26.75, 11.81 26.68, 11.05 26.54 C10.29 26.41, 9.53 26.2, 8.8 25.94 C8.07 25.68, 7.36 25.34, 6.69 24.96 C6.02 24.57, 5.37 24.12, 4.78 23.62 C4.18 23.12, 3.63 22.56, 3.13 21.97 C2.63 21.38, 2.18 20.73, 1.79 20.06 C1.4 19.39, 1.07 18.67, 0.81 17.95 C0.54 17.22, 0.34 16.46, 0.2 15.7 C0.07 14.93, 0 14.15, 0 13.37 C0 12.6, 0.07 11.81, 0.2 11.05 C0.34 10.29, 0.54 9.53, 0.81 8.8 C1.07 8.07, 1.4 7.36, 1.79 6.69 C2.18 6.02, 2.63 5.37, 3.13 4.78 C3.63 4.18, 4.18 3.63, 4.78 3.13 C5.37 2.63, 6.02 2.18, 6.69 1.79 C7.36 1.4, 8.07 1.07, 8.8 0.81 C9.53 0.54, 10.29 0.34, 11.05 0.2 C11.81 0.07, 12.6 0, 13.37 0 C14.15 0, 14.93 0.07, 15.7 0.2 C16.46 0.34, 17.22 0.54, 17.95 0.81 C18.67 1.07, 19.39 1.4, 20.06 1.79 C20.73 2.18, 21.38 2.63, 21.97 3.13 C22.56 3.63, 23.12 4.18, 23.62 4.78 C24.12 5.37, 24.57 6.02, 24.96 6.69 C25.34 7.36, 25.68 8.07, 25.94 8.8 C26.2 9.53, 26.41 10.29, 26.54 11.05 C26.68 11.81, 26.71 12.99, 26.75 13.37 C26.78 13.76, 26.78 12.99, 26.75 13.37" stroke="none" stroke-width="0" fill="#228be6"></path><path d="M26.75 13.37 C26.75 14.15, 26.68 14.93, 26.54 15.7 C26.41 16.46, 26.2 17.22, 25.94 17.95 C25.68 18.67, 25.34 19.39, 24.96 20.06 C24.57 20.73, 24.12 21.38, 23.62 21.97 C23.12 22.56, 22.56 23.12, 21.97 23.62 C21.38 24.12, 20.73 24.57, 20.06 24.96 C19.39 25.34, 18.67 25.68, 17.95 25.94 C17.22 26.2, 16.46 26.41, 15.7 26.54 C14.93 26.68, 14.15 26.75, 13.37 26.75 C12.6 26.75, 11.81 26.68, 11.05 26.54 C10.29 26.41, 9.53 26.2, 8.8 25.94 C8.07 25.68, 7.36 25.34, 6.69 24.96 C6.02 24.57, 5.37 24.12, 4.78 23.62 C4.18 23.12, 3.63 22.56, 3.13 21.97 C2.63 21.38, 2.18 20.73, 1.79 20.06 C1.4 19.39, 1.07 18.67, 0.81 17.95 C0.54 17.22, 0.34 16.46, 0.2 15.7 C0.07 14.93, 0 14.15, 0 13.37 C0 12.6, 0.07 11.81, 0.2 11.05 C0.34 10.29, 0.54 9.53, 0.81 8.8 C1.07 8.07, 1.4 7.36, 1.79 6.69 C2.18 6.02, 2.63 5.37, 3.13 4.78 C3.63 4.18, 4.18 3.63, 4.78 3.13 C5.37 2.63, 6.02 2.18, 6.69 1.79 C7.36 1.4, 8.07 1.07, 8.8 0.81 C9.53 0.54, 10.29 0.34, 11.05 0.2 C11.81 0.07, 12.6 0, 13.37 0 C14.15 0, 14.93 0.07, 15.7 0.2 C16.46 0.34, 17.22 0.54, 17.95 0.81 C18.67 1.07, 19.39 1.4, 20.06 1.79 C20.73 2.18, 21.38 2.63, 21.97 3.13 C22.56 3.63, 23.12 4.18, 23.62 4.78 C24.12 5.37, 24.57 6.02, 24.96 6.69 C25.34 7.36, 25.68 8.07, 25.94 8.8 C26.2 9.53, 26.41 10.29, 26.54 11.05 C26.68 11.81, 26.71 12.99, 26.75 13.37 C26.78 13.76, 26.78 12.99, 26.75 13.37" stroke="#000000" stroke-width="4" fill="none"></path></g><g stroke-linecap="round"><g transform="translate(299.8900600106185 261.0079079674973) rotate(269.8685561241723 0.03231524157450849 13.111884023032474)"><path d="M0 0 C0.01 4.37, 0.05 21.85, 0.06 26.22 M0 0 C0.01 4.37, 0.05 21.85, 0.06 26.22" stroke="#000000" stroke-width="4" fill="none"></path></g></g><g stroke-linecap="round"><g transform="translate(429.9343191567832 261.2849171273904) rotate(269.8685561241723 0.03231524157445165 13.111884023032474)"><path d="M0 0 C0.01 4.37, 0.05 21.85, 0.06 26.22 M0 0 C0.01 4.37, 0.05 21.85, 0.06 26.22" stroke="#000000" stroke-width="4" fill="none"></path></g></g><g stroke-linecap="round" transform="translate(442.33333333333303 262.5000000000001) rotate(0 13.373374241769284 13.373374241769284)"><path d="M26.75 13.37 C26.75 14.15, 26.68 14.93, 26.54 15.7 C26.41 16.46, 26.2 17.22, 25.94 17.95 C25.68 18.67, 25.34 19.39, 24.96 20.06 C24.57 20.73, 24.12 21.38, 23.62 21.97 C23.12 22.56, 22.56 23.12, 21.97 23.62 C21.38 24.12, 20.73 24.57, 20.06 24.96 C19.39 25.34, 18.67 25.68, 17.95 25.94 C17.22 26.2, 16.46 26.41, 15.7 26.54 C14.93 26.68, 14.15 26.75, 13.37 26.75 C12.6 26.75, 11.81 26.68, 11.05 26.54 C10.29 26.41, 9.53 26.2, 8.8 25.94 C8.07 25.68, 7.36 25.34, 6.69 24.96 C6.02 24.57, 5.37 24.12, 4.78 23.62 C4.18 23.12, 3.63 22.56, 3.13 21.97 C2.63 21.38, 2.18 20.73, 1.79 20.06 C1.4 19.39, 1.07 18.67, 0.81 17.95 C0.54 17.22, 0.34 16.46, 0.2 15.7 C0.07 14.93, 0 14.15, 0 13.37 C0 12.6, 0.07 11.81, 0.2 11.05 C0.34 10.29, 0.54 9.53, 0.81 8.8 C1.07 8.07, 1.4 7.36, 1.79 6.69 C2.18 6.02, 2.63 5.37, 3.13 4.78 C3.63 4.18, 4.18 3.63, 4.78 3.13 C5.37 2.63, 6.02 2.18, 6.69 1.79 C7.36 1.4, 8.07 1.07, 8.8 0.81 C9.53 0.54, 10.29 0.34, 11.05 0.2 C11.81 0.07, 12.6 0, 13.37 0 C14.15 0, 14.93 0.07, 15.7 0.2 C16.46 0.34, 17.22 0.54, 17.95 0.81 C18.67 1.07, 19.39 1.4, 20.06 1.79 C20.73 2.18, 21.38 2.63, 21.97 3.13 C22.56 3.63, 23.12 4.18, 23.62 4.78 C24.12 5.37, 24.57 6.02, 24.96 6.69 C25.34 7.36, 25.68 8.07, 25.94 8.8 C26.2 9.53, 26.41 10.29, 26.54 11.05 C26.68 11.81, 26.71 12.99, 26.75 13.37 C26.78 13.76, 26.78 12.99, 26.75 13.37" stroke="none" stroke-width="0" fill="#228be6"></path><path d="M26.75 13.37 C26.75 14.15, 26.68 14.93, 26.54 15.7 C26.41 16.46, 26.2 17.22, 25.94 17.95 C25.68 18.67, 25.34 19.39, 24.96 20.06 C24.57 20.73, 24.12 21.38, 23.62 21.97 C23.12 22.56, 22.56 23.12, 21.97 23.62 C21.38 24.12, 20.73 24.57, 20.06 24.96 C19.39 25.34, 18.67 25.68, 17.95 25.94 C17.22 26.2, 16.46 26.41, 15.7 26.54 C14.93 26.68, 14.15 26.75, 13.37 26.75 C12.6 26.75, 11.81 26.68, 11.05 26.54 C10.29 26.41, 9.53 26.2, 8.8 25.94 C8.07 25.68, 7.36 25.34, 6.69 24.96 C6.02 24.57, 5.37 24.12, 4.78 23.62 C4.18 23.12, 3.63 22.56, 3.13 21.97 C2.63 21.38, 2.18 20.73, 1.79 20.06 C1.4 19.39, 1.07 18.67, 0.81 17.95 C0.54 17.22, 0.34 16.46, 0.2 15.7 C0.07 14.93, 0 14.15, 0 13.37 C0 12.6, 0.07 11.81, 0.2 11.05 C0.34 10.29, 0.54 9.53, 0.81 8.8 C1.07 8.07, 1.4 7.36, 1.79 6.69 C2.18 6.02, 2.63 5.37, 3.13 4.78 C3.63 4.18, 4.18 3.63, 4.78 3.13 C5.37 2.63, 6.02 2.18, 6.69 1.79 C7.36 1.4, 8.07 1.07, 8.8 0.81 C9.53 0.54, 10.29 0.34, 11.05 0.2 C11.81 0.07, 12.6 0, 13.37 0 C14.15 0, 14.93 0.07, 15.7 0.2 C16.46 0.34, 17.22 0.54, 17.95 0.81 C18.67 1.07, 19.39 1.4, 20.06 1.79 C20.73 2.18, 21.38 2.63, 21.97 3.13 C22.56 3.63, 23.12 4.18, 23.62 4.78 C24.12 5.37, 24.57 6.02, 24.96 6.69 C25.34 7.36, 25.68 8.07, 25.94 8.8 C26.2 9.53, 26.41 10.29, 26.54 11.05 C26.68 11.81, 26.71 12.99, 26.75 13.37 C26.78 13.76, 26.78 12.99, 26.75 13.37" stroke="#000000" stroke-width="4" fill="none"></path></g><g stroke-linecap="round"><g transform="translate(482.890060010619 262.0079079674973) rotate(269.8685561241723 0.03231524157445165 13.111884023032474)"><path d="M0 0 C0.01 4.37, 0.05 21.85, 0.06 26.22 M0 0 C0.01 4.37, 0.05 21.85, 0.06 26.22" stroke="#000000" stroke-width="4" fill="none"></path></g></g><g stroke-linecap="round"><g transform="translate(306.9343191567832 260.2849171273904) rotate(269.8685561241723 0.03231524157450849 13.111884023032474)"><path d="M0 0 C0.01 4.37, 0.05 21.85, 0.06 26.22 M0 0 C0.01 4.37, 0.05 21.85, 0.06 26.22" stroke="#000000" stroke-width="4" fill="none"></path></g></g><g stroke-linecap="round" transform="translate(319.33333333333303 261.5000000000001) rotate(0 13.373374241769284 13.373374241769284)"><path d="M26.75 13.37 C26.75 14.15, 26.68 14.93, 26.54 15.7 C26.41 16.46, 26.2 17.22, 25.94 17.95 C25.68 18.67, 25.34 19.39, 24.96 20.06 C24.57 20.73, 24.12 21.38, 23.62 21.97 C23.12 22.56, 22.56 23.12, 21.97 23.62 C21.38 24.12, 20.73 24.57, 20.06 24.96 C19.39 25.34, 18.67 25.68, 17.95 25.94 C17.22 26.2, 16.46 26.41, 15.7 26.54 C14.93 26.68, 14.15 26.75, 13.37 26.75 C12.6 26.75, 11.81 26.68, 11.05 26.54 C10.29 26.41, 9.53 26.2, 8.8 25.94 C8.07 25.68, 7.36 25.34, 6.69 24.96 C6.02 24.57, 5.37 24.12, 4.78 23.62 C4.18 23.12, 3.63 22.56, 3.13 21.97 C2.63 21.38, 2.18 20.73, 1.79 20.06 C1.4 19.39, 1.07 18.67, 0.81 17.95 C0.54 17.22, 0.34 16.46, 0.2 15.7 C0.07 14.93, 0 14.15, 0 13.37 C0 12.6, 0.07 11.81, 0.2 11.05 C0.34 10.29, 0.54 9.53, 0.81 8.8 C1.07 8.07, 1.4 7.36, 1.79 6.69 C2.18 6.02, 2.63 5.37, 3.13 4.78 C3.63 4.18, 4.18 3.63, 4.78 3.13 C5.37 2.63, 6.02 2.18, 6.69 1.79 C7.36 1.4, 8.07 1.07, 8.8 0.81 C9.53 0.54, 10.29 0.34, 11.05 0.2 C11.81 0.07, 12.6 0, 13.37 0 C14.15 0, 14.93 0.07, 15.7 0.2 C16.46 0.34, 17.22 0.54, 17.95 0.81 C18.67 1.07, 19.39 1.4, 20.06 1.79 C20.73 2.18, 21.38 2.63, 21.97 3.13 C22.56 3.63, 23.12 4.18, 23.62 4.78 C24.12 5.37, 24.57 6.02, 24.96 6.69 C25.34 7.36, 25.68 8.07, 25.94 8.8 C26.2 9.53, 26.41 10.29, 26.54 11.05 C26.68 11.81, 26.71 12.99, 26.75 13.37 C26.78 13.76, 26.78 12.99, 26.75 13.37" stroke="none" stroke-width="0" fill="#228be6"></path><path d="M26.75 13.37 C26.75 14.15, 26.68 14.93, 26.54 15.7 C26.41 16.46, 26.2 17.22, 25.94 17.95 C25.68 18.67, 25.34 19.39, 24.96 20.06 C24.57 20.73, 24.12 21.38, 23.62 21.97 C23.12 22.56, 22.56 23.12, 21.97 23.62 C21.38 24.12, 20.73 24.57, 20.06 24.96 C19.39 25.34, 18.67 25.68, 17.95 25.94 C17.22 26.2, 16.46 26.41, 15.7 26.54 C14.93 26.68, 14.15 26.75, 13.37 26.75 C12.6 26.75, 11.81 26.68, 11.05 26.54 C10.29 26.41, 9.53 26.2, 8.8 25.94 C8.07 25.68, 7.36 25.34, 6.69 24.96 C6.02 24.57, 5.37 24.12, 4.78 23.62 C4.18 23.12, 3.63 22.56, 3.13 21.97 C2.63 21.38, 2.18 20.73, 1.79 20.06 C1.4 19.39, 1.07 18.67, 0.81 17.95 C0.54 17.22, 0.34 16.46, 0.2 15.7 C0.07 14.93, 0 14.15, 0 13.37 C0 12.6, 0.07 11.81, 0.2 11.05 C0.34 10.29, 0.54 9.53, 0.81 8.8 C1.07 8.07, 1.4 7.36, 1.79 6.69 C2.18 6.02, 2.63 5.37, 3.13 4.78 C3.63 4.18, 4.18 3.63, 4.78 3.13 C5.37 2.63, 6.02 2.18, 6.69 1.79 C7.36 1.4, 8.07 1.07, 8.8 0.81 C9.53 0.54, 10.29 0.34, 11.05 0.2 C11.81 0.07, 12.6 0, 13.37 0 C14.15 0, 14.93 0.07, 15.7 0.2 C16.46 0.34, 17.22 0.54, 17.95 0.81 C18.67 1.07, 19.39 1.4, 20.06 1.79 C20.73 2.18, 21.38 2.63, 21.97 3.13 C22.56 3.63, 23.12 4.18, 23.62 4.78 C24.12 5.37, 24.57 6.02, 24.96 6.69 C25.34 7.36, 25.68 8.07, 25.94 8.8 C26.2 9.53, 26.41 10.29, 26.54 11.05 C26.68 11.81, 26.71 12.99, 26.75 13.37 C26.78 13.76, 26.78 12.99, 26.75 13.37" stroke="#000000" stroke-width="4" fill="none"></path></g><g stroke-linecap="round"><g transform="translate(359.8900600106185 261.0079079674973) rotate(269.8685561241723 0.03231524157445165 13.111884023032474)"><path d="M0 0 C0.01 4.37, 0.05 21.85, 0.06 26.22 M0 0 C0.01 4.37, 0.05 21.85, 0.06 26.22" stroke="#000000" stroke-width="4" fill="none"></path></g></g><g stroke-linecap="round"><g transform="translate(489.93431915678366 261.2849171273904) rotate(269.8685561241723 0.03231524157445165 13.111884023032474)"><path d="M0 0 C0.01 4.37, 0.05 21.85, 0.06 26.22 M0 0 C0.01 4.37, 0.05 21.85, 0.06 26.22" stroke="#000000" stroke-width="4" fill="none"></path></g></g><g stroke-linecap="round" transform="translate(502.3333333333335 262.5000000000001) rotate(0 13.373374241769284 13.373374241769284)"><path d="M26.75 13.37 C26.75 14.15, 26.68 14.93, 26.54 15.7 C26.41 16.46, 26.2 17.22, 25.94 17.95 C25.68 18.67, 25.34 19.39, 24.96 20.06 C24.57 20.73, 24.12 21.38, 23.62 21.97 C23.12 22.56, 22.56 23.12, 21.97 23.62 C21.38 24.12, 20.73 24.57, 20.06 24.96 C19.39 25.34, 18.67 25.68, 17.95 25.94 C17.22 26.2, 16.46 26.41, 15.7 26.54 C14.93 26.68, 14.15 26.75, 13.37 26.75 C12.6 26.75, 11.81 26.68, 11.05 26.54 C10.29 26.41, 9.53 26.2, 8.8 25.94 C8.07 25.68, 7.36 25.34, 6.69 24.96 C6.02 24.57, 5.37 24.12, 4.78 23.62 C4.18 23.12, 3.63 22.56, 3.13 21.97 C2.63 21.38, 2.18 20.73, 1.79 20.06 C1.4 19.39, 1.07 18.67, 0.81 17.95 C0.54 17.22, 0.34 16.46, 0.2 15.7 C0.07 14.93, 0 14.15, 0 13.37 C0 12.6, 0.07 11.81, 0.2 11.05 C0.34 10.29, 0.54 9.53, 0.81 8.8 C1.07 8.07, 1.4 7.36, 1.79 6.69 C2.18 6.02, 2.63 5.37, 3.13 4.78 C3.63 4.18, 4.18 3.63, 4.78 3.13 C5.37 2.63, 6.02 2.18, 6.69 1.79 C7.36 1.4, 8.07 1.07, 8.8 0.81 C9.53 0.54, 10.29 0.34, 11.05 0.2 C11.81 0.07, 12.6 0, 13.37 0 C14.15 0, 14.93 0.07, 15.7 0.2 C16.46 0.34, 17.22 0.54, 17.95 0.81 C18.67 1.07, 19.39 1.4, 20.06 1.79 C20.73 2.18, 21.38 2.63, 21.97 3.13 C22.56 3.63, 23.12 4.18, 23.62 4.78 C24.12 5.37, 24.57 6.02, 24.96 6.69 C25.34 7.36, 25.68 8.07, 25.94 8.8 C26.2 9.53, 26.41 10.29, 26.54 11.05 C26.68 11.81, 26.71 12.99, 26.75 13.37 C26.78 13.76, 26.78 12.99, 26.75 13.37" stroke="none" stroke-width="0" fill="#228be6"></path><path d="M26.75 13.37 C26.75 14.15, 26.68 14.93, 26.54 15.7 C26.41 16.46, 26.2 17.22, 25.94 17.95 C25.68 18.67, 25.34 19.39, 24.96 20.06 C24.57 20.73, 24.12 21.38, 23.62 21.97 C23.12 22.56, 22.56 23.12, 21.97 23.62 C21.38 24.12, 20.73 24.57, 20.06 24.96 C19.39 25.34, 18.67 25.68, 17.95 25.94 C17.22 26.2, 16.46 26.41, 15.7 26.54 C14.93 26.68, 14.15 26.75, 13.37 26.75 C12.6 26.75, 11.81 26.68, 11.05 26.54 C10.29 26.41, 9.53 26.2, 8.8 25.94 C8.07 25.68, 7.36 25.34, 6.69 24.96 C6.02 24.57, 5.37 24.12, 4.78 23.62 C4.18 23.12, 3.63 22.56, 3.13 21.97 C2.63 21.38, 2.18 20.73, 1.79 20.06 C1.4 19.39, 1.07 18.67, 0.81 17.95 C0.54 17.22, 0.34 16.46, 0.2 15.7 C0.07 14.93, 0 14.15, 0 13.37 C0 12.6, 0.07 11.81, 0.2 11.05 C0.34 10.29, 0.54 9.53, 0.81 8.8 C1.07 8.07, 1.4 7.36, 1.79 6.69 C2.18 6.02, 2.63 5.37, 3.13 4.78 C3.63 4.18, 4.18 3.63, 4.78 3.13 C5.37 2.63, 6.02 2.18, 6.69 1.79 C7.36 1.4, 8.07 1.07, 8.8 0.81 C9.53 0.54, 10.29 0.34, 11.05 0.2 C11.81 0.07, 12.6 0, 13.37 0 C14.15 0, 14.93 0.07, 15.7 0.2 C16.46 0.34, 17.22 0.54, 17.95 0.81 C18.67 1.07, 19.39 1.4, 20.06 1.79 C20.73 2.18, 21.38 2.63, 21.97 3.13 C22.56 3.63, 23.12 4.18, 23.62 4.78 C24.12 5.37, 24.57 6.02, 24.96 6.69 C25.34 7.36, 25.68 8.07, 25.94 8.8 C26.2 9.53, 26.41 10.29, 26.54 11.05 C26.68 11.81, 26.71 12.99, 26.75 13.37 C26.78 13.76, 26.78 12.99, 26.75 13.37" stroke="#000000" stroke-width="4" fill="none"></path></g><g stroke-linecap="round"><g transform="translate(542.890060010619 262.0079079674973) rotate(269.8685561241723 0.03231524157445165 13.111884023032474)"><path d="M0 0 C0.01 4.37, 0.05 21.85, 0.06 26.22 M0 0 C0.01 4.37, 0.05 21.85, 0.06 26.22" stroke="#000000" stroke-width="4" fill="none"></path></g></g><g stroke-linecap="round"><g transform="translate(555.7607855997599 274.82176050855037) rotate(0 18.42592592592598 -0.18518518518516203)"><path d="M0 0 C6.14 -0.06, 30.71 -0.31, 36.85 -0.37 M0 0 C6.14 -0.06, 30.71 -0.31, 36.85 -0.37" stroke="#e67700" stroke-width="4" fill="none"></path></g></g><g transform="translate(723.4754968144712 302.1080852948753) rotate(0 24 12)"><text x="0" y="19" font-family="Cascadia, Segoe UI Emoji" font-size="20px" fill="#c92a2a" text-anchor="start" style="white-space: pre;" direction="ltr">HEAD</text></g><g transform="translate(316.47549681447117 302.1080852948753) rotate(0 53 12)"><text x="0" y="19" font-family="Cascadia, Segoe UI Emoji" font-size="20px" fill="#364fc7" text-anchor="start" style="white-space: pre;" direction="ltr">repo/main</text></g><g stroke-linecap="round"><g transform="translate(630.4754968144712 84.10808529487531) rotate(0 0 79)"><path d="M0 0 C0 26.33, 0 131.67, 0 158" stroke="#000000" stroke-width="4.5" fill="none" stroke-dasharray="8 12"></path></g><g transform="translate(630.4754968144712 84.10808529487531) rotate(0 0 79)"><path d="M-10.26 129.81 C-7.98 136.07, -5.71 142.33, 0 158" stroke="#000000" stroke-width="4.5" fill="none"></path></g><g transform="translate(630.4754968144712 84.10808529487531) rotate(0 0 79)"><path d="M10.26 129.81 C7.98 136.07, 5.71 142.33, 0 158" stroke="#000000" stroke-width="4.5" fill="none"></path></g></g><g stroke-linecap="round"><g transform="translate(205.47549681447117 80.10808529487531) rotate(0 0 79)"><path d="M0 0 C0 26.33, 0 131.67, 0 158" stroke="#000000" stroke-width="4.5" fill="none" stroke-dasharray="8 12"></path></g><g transform="translate(205.47549681447117 80.10808529487531) rotate(0 0 79)"><path d="M-10.26 129.81 C-6.88 139.1, -3.5 148.39, 0 158" stroke="#000000" stroke-width="4.5" fill="none"></path></g><g transform="translate(205.47549681447117 80.10808529487531) rotate(0 0 79)"><path d="M10.26 129.81 C6.88 139.1, 3.5 148.39, 0 158" stroke="#000000" stroke-width="4.5" fill="none"></path></g></g><g stroke-linecap="round" transform="translate(256.47549681447117 174.1080852948753) rotate(0 164.5 32.5)"><path d="M0 0 C0 0, 0 0, 0 0 M0 0 C0 0, 0 0, 0 0 M-0.73 6.99 C1.86 4.25, 1.77 2.45, 4.73 0.33 M-0.38 6.02 C1.95 3.71, 3.53 1.95, 4.8 0.72 M1.32 11.79 C3.62 9.78, 6.37 3.08, 9.1 -0.67 M-0.23 12.08 C2.26 9.57, 6.08 6.23, 9.86 -0.01 M-1.07 16.59 C1.66 16.44, 6.59 8.82, 15.8 1.34 M-0.34 18.66 C6.57 11.76, 10.38 5.57, 14.81 -0.09 M1.81 25.52 C7.4 15.76, 11.96 9.86, 22.17 1.05 M0.49 24.42 C5.2 17.69, 11.28 10.32, 21.19 -0.09 M0.97 31.09 C9.72 20.16, 18.22 8.95, 24.83 1.09 M0.4 29.67 C7.56 19.89, 17.26 10.58, 26.64 0.44 M0.14 37.06 C9.41 26.43, 20.75 14.11, 31.43 1.7 M-1.18 36.98 C6.05 29.46, 12.43 22.17, 32.36 -0.06 M-0.95 43.65 C8.76 32.59, 17.79 24.94, 36.04 1.58 M-0.09 41.92 C14.1 25.88, 26.5 11.44, 37.14 -0.62 M0.53 48.84 C8.13 38.29, 18.39 29.08, 41.37 -1.1 M0.12 49.82 C14.06 33.74, 27.7 16.56, 42.16 0.75 M0.02 54.05 C12.49 41.76, 24.2 29.76, 46.54 0.31 M0.21 55.06 C15.86 34.93, 32.12 17.48, 47.19 -0.45 M1.41 61.17 C12.7 46.5, 24.69 29.77, 53.32 -2.08 M-0.39 61.5 C19.57 38.74, 39.89 16.64, 53.37 -0.71 M-0.12 64.8 C15.93 47.24, 28.87 31.23, 57.92 -1.68 M1.72 66.27 C22.79 40.66, 44.67 15, 57.44 0 M4.31 66.25 C17.52 48.79, 30.66 34.56, 65.15 -0.45 M6.84 65.26 C19.72 49.97, 32.92 34.44, 64.5 0.72 M11.68 64.1 C28.55 45.65, 44.2 27.3, 68.28 0.13 M11.12 65.17 C26.72 50.05, 40.17 33.41, 68.27 0.02 M16 68.13 C39.3 39.57, 61.22 15.87, 75.2 0.04 M15.88 66.93 C34.1 45.23, 50.49 26.61, 73.82 0.47 M21.91 65.56 C42.12 44.09, 60.43 22.36, 80.23 1.76 M21.84 65.49 C37.21 48.28, 54.17 28.22, 79.82 -0.84 M28.49 66.11 C43.48 47.45, 59.2 28.47, 86.33 -0.82 M27.29 66.33 C46.25 43.36, 66.75 21, 85.32 0.21 M31.45 66.95 C52.13 42.39, 71.73 21.87, 88.87 -1.27 M32.89 65.92 C49.46 47.82, 65.65 27.91, 89.97 -0.77 M38.9 65.72 C52.04 50.4, 67.62 30.24, 93.88 0.24 M37.94 66.27 C56.79 42.94, 76.24 20.24, 94.78 -0.13 M41.62 65.53 C58.3 48.53, 75.06 29.08, 101.8 -1.93 M43.04 65.38 C59.42 48.52, 75.19 29.54, 100.36 0.28 M48.81 67.98 C65.47 49.07, 79.46 29.98, 105.72 -2 M48.46 65.79 C69.71 43, 90.32 19.75, 105.7 -0.37 M54.3 66.09 C75.46 38.64, 99.92 14.78, 111.12 -1.7 M54.8 65.04 C71.78 46.68, 87.52 27, 110.38 0.61 M60.33 65.41 C79.76 40.44, 101.03 17.5, 117.52 -0.53 M59.26 66.2 C70.68 51.65, 83.76 35.79, 116.69 0.67 M63.82 64.9 C78.32 49.53, 92.57 32.59, 121.44 1.45 M64.42 66.34 C77.05 51.32, 89.25 36.38, 121.16 0.76 M68.07 66.03 C84.84 46.73, 104.88 27.13, 127.47 0.93 M70.46 65.05 C84.22 50.33, 97.17 35.25, 126.08 0.15 M77.04 65.73 C89.56 49.63, 102.91 31.76, 133.85 1.03 M75.92 64.94 C94.02 43.7, 113.47 22.09, 131.59 -0.45 M79.11 65.38 C93.95 48.05, 107.17 33.92, 136.24 0.4 M79.95 66.14 C98.7 45.78, 114.88 27.74, 137.97 -0.25 M85.32 63.85 C104.53 48.04, 117.84 27.24, 141.96 -1.92 M87.07 64.78 C107.17 41.77, 126.17 19.01, 142.31 0.01 M93.08 66.47 C106.63 46.15, 121.67 29.18, 149.71 -1.35 M91.38 65.52 C111.39 44.33, 129.8 22.57, 148.87 0.65 M96.49 66.03 C114.29 42.03, 133.93 22.63, 151.86 1.11 M97.36 66.02 C107.81 51.1, 121.01 36.87, 153.71 -0.54 M102.06 67.82 C121.37 42.95, 143.71 17.99, 158.2 -0.03 M102.11 65.49 C118.88 45.65, 135.6 26.72, 159.04 0.28 M106.27 67.32 C116.8 51.88, 129.98 39.19, 166.17 -1.84 M107.42 65.86 C125.53 45.71, 142.39 25.67, 163.91 -0.56 M110.66 67.47 C132.12 44.48, 147.2 24.32, 168.59 0.12 M113.3 66.6 C134.55 40.74, 155.54 15.75, 168.5 0.3 M116.81 67.96 C131.45 48.77, 146.65 31.76, 175.97 0.73 M117.55 65.45 C129.02 53.42, 140.89 38.91, 174.82 -0.25 M123.98 66.93 C138.56 48.36, 153.2 31.12, 180.21 -1.63 M123.83 65.65 C144.25 41.34, 165.98 16.57, 181.01 0.66 M128.81 65.99 C141.96 51.65, 153.53 39.63, 184.88 -0.14 M127.88 66.47 C148.15 42.91, 166.26 21.74, 186.06 0.44 M131.62 67.22 C152.64 40.93, 173.61 19.71, 188.93 1.5 M134.33 65.69 C152 44.51, 170.28 22.64, 190.07 -0.48 M140.11 66.18 C162.01 39.28, 183.17 11.98, 196.99 -1.93 M138.9 66.11 C156.5 45.3, 177.08 23.41, 197.01 -0.18 M143.68 64.88 C159.72 50.37, 173.48 33.11, 203.09 -0.21 M145.19 66.03 C159.07 48.06, 174.48 30.52, 200.96 -0.7 M149.08 64.81 C164.63 45.99, 183.83 24.34, 208.91 1.38 M148.89 65.78 C164.09 48.17, 178.9 31.36, 206.83 0.43 M154.77 63.92 C167.61 49.6, 181.15 33.38, 211.54 -0.99 M154.55 66.21 C171.46 46.85, 188.77 28.21, 212.68 0.69 M158.57 65.64 C182.18 38.71, 203.38 12.11, 217.73 -0.69 M159.85 65.17 C172.33 50.95, 186.07 35.28, 218.39 -0.92 M163.98 63.86 C176.22 53.94, 188.77 36.86, 223.64 0.42 M166.3 66.04 C183.78 45.61, 199.97 25.03, 221.99 0.61 M171.91 67.96 C186.36 45.11, 205.41 26.19, 229.07 0.9 M169.54 66.2 C190.62 43.26, 210.44 19.33, 228.34 -1.19 M174.92 63.74 C193.87 44.02, 214.32 20.57, 233.24 0.81 M176.06 65.56 C188.6 49.55, 202.29 33.15, 233.41 0.24 M180.97 66.53 C192.92 49.34, 206.6 35.99, 236.36 -0.59 M181.48 65.04 C201.07 43.12, 222.63 19.27, 238.39 -0.31 M187.69 66.07 C200.18 48.01, 215.41 30.12, 242.68 0.44 M187.24 65.08 C199.95 49.2, 214.23 33.31, 243.2 -1.01 M190.1 67.62 C205.41 51.26, 214.95 36.98, 247.51 1.37 M190.93 66.13 C204.87 51.68, 216.13 36.15, 248.01 -0.25 M198.89 64.88 C216.69 42.83, 235.8 20.99, 254.82 -0.9 M196.96 65.14 C214.45 45.84, 230.91 26.47, 255.36 0.56 M204.15 65.02 C223.92 44.1, 244.43 19.1, 260.98 -0.96 M202.89 66.13 C221.85 43.72, 240.6 21.62, 260.41 -0.45 M209.63 65.69 C225.64 43.81, 244.28 24.09, 265.02 0.05 M208.12 64.56 C219.98 52.06, 230.69 38.38, 265.67 0.85 M212.47 64 C228.03 48.94, 241.04 32.99, 268.37 -0.54 M212.14 65.97 C230.53 43.93, 250.32 21.83, 269.25 1.14 M217.49 65.52 C240.24 43.56, 258 19, 277.12 -1.94 M219.34 66.37 C230.58 51.79, 242.38 38.24, 275.63 0.06 M224.91 65.32 C243.91 44.8, 265.02 19.18, 281.77 1.14 M223.19 66.83 C236.19 52.02, 248.66 36.09, 279.9 0.82 M227.94 65.66 C246.17 45.65, 265.96 22.78, 287.48 -0.58 M228.36 66.64 C248.49 43.34, 269.2 20.88, 286.5 0.6 M235.83 65.27 C243.65 52.46, 256.03 39.29, 289.79 2.11 M234.29 66.13 C250.89 46.48, 268.56 25.69, 291.5 1.13 M240.88 64.61 C256.71 48.27, 270.13 28.37, 296.94 -2.11 M238.63 65.4 C256.35 44.86, 274.71 26.36, 297.3 -0.85 M244.07 67.61 C259.25 52.37, 273.28 34.56, 301.53 -0.1 M245.45 65.56 C259.15 49.95, 274.64 33.82, 302.94 0.9 M250.76 66.66 C266.81 44.9, 285.36 24.84, 306.86 -1.25 M249.38 65.22 C271.27 40.35, 295.35 14.64, 306.79 0.63 M256.98 67.62 C271.43 45.64, 289.03 27.94, 314.59 -0.48 M256.44 65.03 C277.72 38.99, 301.36 14.58, 312.85 -0.85 M261.18 66.82 C275.15 49.41, 289.07 32.85, 319.09 -1.23 M260.25 66.14 C280.91 43.19, 300.86 21.41, 317.48 0.23 M266.43 64.07 C278.46 50.65, 291.67 37.31, 323.08 1.51 M266.78 66.72 C282.37 48.59, 296.05 31.36, 323.63 -0.8 M272.24 67.63 C285.08 48.74, 300.98 33.24, 327.98 -1.78 M270.62 66.46 C290.07 45.81, 306.59 25.16, 329.63 -0.63 M276.75 67.24 C296.38 44.48, 315.47 22.28, 331.62 4.14 M277.71 65.05 C288.77 49.63, 302.5 35.81, 331.44 2.86 M280.54 67.1 C299.24 46.9, 316.39 25.92, 332.51 9.94 M281.62 66.73 C295.34 51.78, 307.59 37.51, 331.38 8.77 M288.81 66.89 C300.15 49.97, 313.71 35.34, 332.76 14.49 M288.26 64.71 C300.42 50.3, 313.12 35.61, 331.6 13.47 M291.19 66.76 C303.25 53.5, 310.92 44.16, 333.28 19.16 M292.16 65.76 C299.67 56.04, 308.99 46.82, 331.74 20.34 M299.95 64.31 C309.2 50.47, 322.11 36.62, 329.97 26.52 M297.19 66.62 C306.77 55.76, 315.95 44.44, 331.63 28.03 M301.78 67.63 C311.44 54.37, 319.46 46.83, 332.77 33.63 M302.85 66.59 C314.22 54.08, 325.09 40.33, 332.85 33.22 M308.03 64.27 C314.23 56.74, 321.65 52.16, 332.66 37.26 M309 65.96 C317.56 54.9, 327.16 45.37, 332.23 39.34 M314.43 66.24 C321.47 57.08, 326.06 48.1, 331.32 43.63 M314.1 66.53 C318.14 61.11, 323.48 55.37, 331.96 43.84 M319.38 66.96 C325.17 59.11, 327.3 54.15, 332.74 49.56 M319.93 66.11 C323.47 61.59, 327.94 55.23, 331.86 50.72 M323.98 66.3 C328.19 63.26, 329.16 59.93, 332.4 56.56 M324.15 65.49 C326.33 63.79, 328.28 61.45, 331.47 57.63" stroke="#fd7e144f" stroke-width="0.5" fill="none"></path><path d="M-0.28 0.41 C72.01 0.48, 141.89 0.14, 328.67 0.64 M-0.38 0.21 C113.32 0.64, 225.38 1.4, 329.19 -0.08 M329.53 1.88 C328.81 20.47, 327.42 43.55, 327.54 64.27 M329.75 -0.36 C329.44 14.86, 328.65 30.22, 328.01 65.18 M330.28 65.37 C229.22 67.24, 130.49 66.22, -0.69 63.73 M329.63 65.66 C256.02 65.43, 183.7 64.17, 0.58 64.34 M-1.56 66.81 C-1.24 50.41, 1 38.93, 0.01 -0.98 M-0.4 65.49 C0.26 41.86, 0.13 20.67, 0.02 -0.22" stroke="#00000000" stroke-width="1" fill="none"></path></g><g transform="translate(260.47549681447117 183.6080852948753) rotate(0 158.5 21.5)"><text x="0" y="35" font-family="Cascadia, Segoe UI Emoji" font-size="36px" fill="#000000" text-anchor="start" style="white-space: pre;" direction="ltr">git-filter-repo</text></g></svg>