<svg version="1.1" xmlns="http://www.w3.org/2000/svg" viewBox="0 0 780.4754968144712 336.1080852948753" width="780.4754968144712" height="336.1080852948753">
  <!-- svg-source:excalidraw -->
  
  <defs>
    <style>
      @font-face {
        font-family: "Virgil";
        src: url("https://excalidraw.com/Virgil.woff2");
      }
      @font-face {
        font-family: "Cascadia";
        src: url("https://excalidraw.com/Cascadia.woff2");
      }
    </style>
  </defs>
  <rect x="0" y="0" width="780.4754968144712" height="336.1080852948753" fill="#ffffff"></rect><g stroke-linecap="round" transform="translate(10 10) rotate(0 13.373374241769284 13.373374241769312)"><path d="M26.75 13.37 C26.75 14.15, 26.68 14.93, 26.54 15.7 C26.41 16.46, 26.2 17.22, 25.94 17.95 C25.68 18.67, 25.34 19.39, 24.96 20.06 C24.57 20.73, 24.12 21.38, 23.62 21.97 C23.12 22.56, 22.56 23.12, 21.97 23.62 C21.38 24.12, 20.73 24.57, 20.06 24.96 C19.39 25.34, 18.67 25.68, 17.95 25.94 C17.22 26.2, 16.46 26.41, 15.7 26.54 C14.93 26.68, 14.15 26.75, 13.37 26.75 C12.6 26.75, 11.81 26.68, 11.05 26.54 C10.29 26.41, 9.53 26.2, 8.8 25.94 C8.07 25.68, 7.36 25.34, 6.69 24.96 C6.02 24.57, 5.37 24.12, 4.78 23.62 C4.18 23.12, 3.63 22.56, 3.13 21.97 C2.63 21.38, 2.18 20.73, 1.79 20.06 C1.4 19.39, 1.07 18.67, 0.81 17.95 C0.54 17.22, 0.34 16.46, 0.2 15.7 C0.07 14.93, 0 14.15, 0 13.37 C0 12.6, 0.07 11.81, 0.2 11.05 C0.34 10.29, 0.54 9.53, 0.81 8.8 C1.07 8.07, 1.4 7.36, 1.79 6.69 C2.18 6.02, 2.63 5.37, 3.13 4.78 C3.63 4.18, 4.18 3.63, 4.78 3.13 C5.37 2.63, 6.02 2.18, 6.69 1.79 C7.36 1.4, 8.07 1.07, 8.8 0.81 C9.53 0.54, 10.29 0.34, 11.05 0.2 C11.81 0.07, 12.6 0, 13.37 0 C14.15 0, 14.93 0.07, 15.7 0.2 C16.46 0.34, 17.22 0.54, 17.95 0.81 C18.67 1.07, 19.39 1.4, 20.06 1.79 C20.73 2.18, 21.38 2.63, 21.97 3.13 C22.56 3.63, 23.12 4.18, 23.62 4.78 C24.12 5.37, 24.57 6.02, 24.96 6.69 C25.34 7.36, 25.68 8.07, 25.94 8.8 C26.2 9.53, 26.41 10.29, 26.54 11.05 C26.68 11.81, 26.71 12.99, 26.75 13.37 C26.78 13.76, 26.78 12.99, 26.75 13.37" stroke="none" stroke-width="0" fill="#868e96"></path><path d="M26.75 13.37 C26.75 14.15, 26.68 14.93, 26.54 15.7 C26.41 16.46, 26.2 17.22, 25.94 17.95 C25.68 18.67, 25.34 19.39, 24.96 20.06 C24.57 20.73, 24.12 21.38, 23.62 21.97 C23.12 22.56, 22.56 23.12, 21.97 23.62 C21.38 24.12, 20.73 24.57, 20.06 24.96 C19.39 25.34, 18.67 25.68, 17.95 25.94 C17.22 26.2, 16.46 26.41, 15.7 26.54 C14.93 26.68, 14.15 26.75, 13.37 26.75 C12.6 26.75, 11.81 26.68, 11.05 26.54 C10.29 26.41, 9.53 26.2, 8.8 25.94 C8.07 25.68, 7.36 25.34, 6.69 24.96 C6.02 24.57, 5.37 24.12, 4.78 23.62 C4.18 23.12, 3.63 22.56, 3.13 21.97 C2.63 21.38, 2.18 20.73, 1.79 20.06 C1.4 19.39, 1.07 18.67, 0.81 17.95 C0.54 17.22, 0.34 16.46, 0.2 15.7 C0.07 14.93, 0 14.15, 0 13.37 C0 12.6, 0.07 11.81, 0.2 11.05 C0.34 10.29, 0.54 9.53, 0.81 8.8 C1.07 8.07, 1.4 7.36, 1.79 6.69 C2.18 6.02, 2.63 5.37, 3.13 4.78 C3.63 4.18, 4.18 3.63, 4.78 3.13 C5.37 2.63, 6.02 2.18, 6.69 1.79 C7.36 1.4, 8.07 1.07, 8.8 0.81 C9.53 0.54, 10.29 0.34, 11.05 0.2 C11.81 0.07, 12.6 0, 13.37 0 C14.15 0, 14.93 0.07, 15.7 0.2 C16.46 0.34, 17.22 0.54, 17.95 0.81 C18.67 1.07, 19.39 1.4, 20.06 1.79 C20.73 2.18, 21.38 2.63, 21.97 3.13 C22.56 3.63, 23.12 4.18, 23.62 4.78 C24.12 5.37, 24.57 6.02, 24.96 6.69 C25.34 7.36, 25.68 8.07, 25.94 8.8 C26.2 9.53, 26.41 10.29, 26.54 11.05 C26.68 11.81, 26.71 12.99, 26.75 13.37 C26.78 13.76, 26.78 12.99, 26.75 13.37" stroke="#000000" stroke-width="4" fill="none"></path></g><g stroke-linecap="round"><g transform="translate(50.556726677285496 9.507907967497204) rotate(269.8685561241723 0.03231524157450849 13.111884023032474)"><path d="M0 0 C0.01 4.37, 0.05 21.85, 0.06 26.22 M0 0 C0.01 4.37, 0.05 21.85, 0.06 26.22" stroke="#000000" stroke-width="4" fill="none"></path></g></g><g stroke-linecap="round"><g transform="translate(60.60098582345017 9.784917127390145) rotate(269.8685561241723 0.03231524157450849 13.111884023032474)"><path d="M0 0 C0.01 4.37, 0.05 21.85, 0.06 26.22 M0 0 C0.01 4.37, 0.05 21.85, 0.06 26.22" stroke="#000000" stroke-width="4" fill="none"></path></g></g><g stroke-linecap="round" transform="translate(73 11) rotate(0 13.373374241769284 13.373374241769312)"><path d="M26.75 13.37 C26.75 14.15, 26.68 14.93, 26.54 15.7 C26.41 16.46, 26.2 17.22, 25.94 17.95 C25.68 18.67, 25.34 19.39, 24.96 20.06 C24.57 20.73, 24.12 21.38, 23.62 21.97 C23.12 22.56, 22.56 23.12, 21.97 23.62 C21.38 24.12, 20.73 24.57, 20.06 24.96 C19.39 25.34, 18.67 25.68, 17.95 25.94 C17.22 26.2, 16.46 26.41, 15.7 26.54 C14.93 26.68, 14.15 26.75, 13.37 26.75 C12.6 26.75, 11.81 26.68, 11.05 26.54 C10.29 26.41, 9.53 26.2, 8.8 25.94 C8.07 25.68, 7.36 25.34, 6.69 24.96 C6.02 24.57, 5.37 24.12, 4.78 23.62 C4.18 23.12, 3.63 22.56, 3.13 21.97 C2.63 21.38, 2.18 20.73, 1.79 20.06 C1.4 19.39, 1.07 18.67, 0.81 17.95 C0.54 17.22, 0.34 16.46, 0.2 15.7 C0.07 14.93, 0 14.15, 0 13.37 C0 12.6, 0.07 11.81, 0.2 11.05 C0.34 10.29, 0.54 9.53, 0.81 8.8 C1.07 8.07, 1.4 7.36, 1.79 6.69 C2.18 6.02, 2.63 5.37, 3.13 4.78 C3.63 4.18, 4.18 3.63, 4.78 3.13 C5.37 2.63, 6.02 2.18, 6.69 1.79 C7.36 1.4, 8.07 1.07, 8.8 0.81 C9.53 0.54, 10.29 0.34, 11.05 0.2 C11.81 0.07, 12.6 0, 13.37 0 C14.15 0, 14.93 0.07, 15.7 0.2 C16.46 0.34, 17.22 0.54, 17.95 0.81 C18.67 1.07, 19.39 1.4, 20.06 1.79 C20.73 2.18, 21.38 2.63, 21.97 3.13 C22.56 3.63, 23.12 4.18, 23.62 4.78 C24.12 5.37, 24.57 6.02, 24.96 6.69 C25.34 7.36, 25.68 8.07, 25.94 8.8 C26.2 9.53, 26.41 10.29, 26.54 11.05 C26.68 11.81, 26.71 12.99, 26.75 13.37 C26.78 13.76, 26.78 12.99, 26.75 13.37" stroke="none" stroke-width="0" fill="#868e96"></path><path d="M26.75 13.37 C26.75 14.15, 26.68 14.93, 26.54 15.7 C26.41 16.46, 26.2 17.22, 25.94 17.95 C25.68 18.67, 25.34 19.39, 24.96 20.06 C24.57 20.73, 24.12 21.38, 23.62 21.97 C23.12 22.56, 22.56 23.12, 21.97 23.62 C21.38 24.12, 20.73 24.57, 20.06 24.96 C19.39 25.34, 18.67 25.68, 17.95 25.94 C17.22 26.2, 16.46 26.41, 15.7 26.54 C14.93 26.68, 14.15 26.75, 13.37 26.75 C12.6 26.75, 11.81 26.68, 11.05 26.54 C10.29 26.41, 9.53 26.2, 8.8 25.94 C8.07 25.68, 7.36 25.34, 6.69 24.96 C6.02 24.57, 5.37 24.12, 4.78 23.62 C4.18 23.12, 3.63 22.56, 3.13 21.97 C2.63 21.38, 2.18 20.73, 1.79 20.06 C1.4 19.39, 1.07 18.67, 0.81 17.95 C0.54 17.22, 0.34 16.46, 0.2 15.7 C0.07 14.93, 0 14.15, 0 13.37 C0 12.6, 0.07 11.81, 0.2 11.05 C0.34 10.29, 0.54 9.53, 0.81 8.8 C1.07 8.07, 1.4 7.36, 1.79 6.69 C2.18 6.02, 2.63 5.37, 3.13 4.78 C3.63 4.18, 4.18 3.63, 4.78 3.13 C5.37 2.63, 6.02 2.18, 6.69 1.79 C7.36 1.4, 8.07 1.07, 8.8 0.81 C9.53 0.54, 10.29 0.34, 11.05 0.2 C11.81 0.07, 12.6 0, 13.37 0 C14.15 0, 14.93 0.07, 15.7 0.2 C16.46 0.34, 17.22 0.54, 17.95 0.81 C18.67 1.07, 19.39 1.4, 20.06 1.79 C20.73 2.18, 21.38 2.63, 21.97 3.13 C22.56 3.63, 23.12 4.18, 23.62 4.78 C24.12 5.37, 24.57 6.02, 24.96 6.69 C25.34 7.36, 25.68 8.07, 25.94 8.8 C26.2 9.53, 26.41 10.29, 26.54 11.05 C26.68 11.81, 26.71 12.99, 26.75 13.37 C26.78 13.76, 26.78 12.99, 26.75 13.37" stroke="#000000" stroke-width="4" fill="none"></path></g><g stroke-linecap="round"><g transform="translate(113.5567266772855 10.507907967497204) rotate(269.8685561241723 0.03231524157450849 13.111884023032474)"><path d="M0 0 C0.01 4.37, 0.05 21.85, 0.06 26.22 M0 0 C0.01 4.37, 0.05 21.85, 0.06 26.22" stroke="#000000" stroke-width="4" fill="none"></path></g></g><g stroke-linecap="round"><g transform="translate(120.60098582345017 9.784917127390145) rotate(269.8685561241723 0.03231524157450849 13.111884023032474)"><path d="M0 0 C0.01 4.37, 0.05 21.85, 0.06 26.22 M0 0 C0.01 4.37, 0.05 21.85, 0.06 26.22" stroke="#000000" stroke-width="4" fill="none"></path></g></g><g stroke-linecap="round" transform="translate(133 11) rotate(0 13.373374241769284 13.373374241769312)"><path d="M26.75 13.37 C26.75 14.15, 26.68 14.93, 26.54 15.7 C26.41 16.46, 26.2 17.22, 25.94 17.95 C25.68 18.67, 25.34 19.39, 24.96 20.06 C24.57 20.73, 24.12 21.38, 23.62 21.97 C23.12 22.56, 22.56 23.12, 21.97 23.62 C21.38 24.12, 20.73 24.57, 20.06 24.96 C19.39 25.34, 18.67 25.68, 17.95 25.94 C17.22 26.2, 16.46 26.41, 15.7 26.54 C14.93 26.68, 14.15 26.75, 13.37 26.75 C12.6 26.75, 11.81 26.68, 11.05 26.54 C10.29 26.41, 9.53 26.2, 8.8 25.94 C8.07 25.68, 7.36 25.34, 6.69 24.96 C6.02 24.57, 5.37 24.12, 4.78 23.62 C4.18 23.12, 3.63 22.56, 3.13 21.97 C2.63 21.38, 2.18 20.73, 1.79 20.06 C1.4 19.39, 1.07 18.67, 0.81 17.95 C0.54 17.22, 0.34 16.46, 0.2 15.7 C0.07 14.93, 0 14.15, 0 13.37 C0 12.6, 0.07 11.81, 0.2 11.05 C0.34 10.29, 0.54 9.53, 0.81 8.8 C1.07 8.07, 1.4 7.36, 1.79 6.69 C2.18 6.02, 2.63 5.37, 3.13 4.78 C3.63 4.18, 4.18 3.63, 4.78 3.13 C5.37 2.63, 6.02 2.18, 6.69 1.79 C7.36 1.4, 8.07 1.07, 8.8 0.81 C9.53 0.54, 10.29 0.34, 11.05 0.2 C11.81 0.07, 12.6 0, 13.37 0 C14.15 0, 14.93 0.07, 15.7 0.2 C16.46 0.34, 17.22 0.54, 17.95 0.81 C18.67 1.07, 19.39 1.4, 20.06 1.79 C20.73 2.18, 21.38 2.63, 21.97 3.13 C22.56 3.63, 23.12 4.18, 23.62 4.78 C24.12 5.37, 24.57 6.02, 24.96 6.69 C25.34 7.36, 25.68 8.07, 25.94 8.8 C26.2 9.53, 26.41 10.29, 26.54 11.05 C26.68 11.81, 26.71 12.99, 26.75 13.37 C26.78 13.76, 26.78 12.99, 26.75 13.37" stroke="none" stroke-width="0" fill="#868e96"></path><path d="M26.75 13.37 C26.75 14.15, 26.68 14.93, 26.54 15.7 C26.41 16.46, 26.2 17.22, 25.94 17.95 C25.68 18.67, 25.34 19.39, 24.96 20.06 C24.57 20.73, 24.12 21.38, 23.62 21.97 C23.12 22.56, 22.56 23.12, 21.97 23.62 C21.38 24.12, 20.73 24.57, 20.06 24.96 C19.39 25.34, 18.67 25.68, 17.95 25.94 C17.22 26.2, 16.46 26.41, 15.7 26.54 C14.93 26.68, 14.15 26.75, 13.37 26.75 C12.6 26.75, 11.81 26.68, 11.05 26.54 C10.29 26.41, 9.53 26.2, 8.8 25.94 C8.07 25.68, 7.36 25.34, 6.69 24.96 C6.02 24.57, 5.37 24.12, 4.78 23.62 C4.18 23.12, 3.63 22.56, 3.13 21.97 C2.63 21.38, 2.18 20.73, 1.79 20.06 C1.4 19.39, 1.07 18.67, 0.81 17.95 C0.54 17.22, 0.34 16.46, 0.2 15.7 C0.07 14.93, 0 14.15, 0 13.37 C0 12.6, 0.07 11.81, 0.2 11.05 C0.34 10.29, 0.54 9.53, 0.81 8.8 C1.07 8.07, 1.4 7.36, 1.79 6.69 C2.18 6.02, 2.63 5.37, 3.13 4.78 C3.63 4.18, 4.18 3.63, 4.78 3.13 C5.37 2.63, 6.02 2.18, 6.69 1.79 C7.36 1.4, 8.07 1.07, 8.8 0.81 C9.53 0.54, 10.29 0.34, 11.05 0.2 C11.81 0.07, 12.6 0, 13.37 0 C14.15 0, 14.93 0.07, 15.7 0.2 C16.46 0.34, 17.22 0.54, 17.95 0.81 C18.67 1.07, 19.39 1.4, 20.06 1.79 C20.73 2.18, 21.38 2.63, 21.97 3.13 C22.56 3.63, 23.12 4.18, 23.62 4.78 C24.12 5.37, 24.57 6.02, 24.96 6.69 C25.34 7.36, 25.68 8.07, 25.94 8.8 C26.2 9.53, 26.41 10.29, 26.54 11.05 C26.68 11.81, 26.71 12.99, 26.75 13.37 C26.78 13.76, 26.78 12.99, 26.75 13.37" stroke="#000000" stroke-width="4" fill="none"></path></g><g stroke-linecap="round"><g transform="translate(173.5567266772855 10.507907967497204) rotate(269.8685561241723 0.03231524157450849 13.111884023032474)"><path d="M0 0 C0.01 4.37, 0.05 21.85, 0.06 26.22 M0 0 C0.01 4.37, 0.05 21.85, 0.06 26.22" stroke="#000000" stroke-width="4" fill="none"></path></g></g><g stroke-linecap="round"><g transform="translate(274.6009858234502 87.78491712739014) rotate(269.8685561241723 0.03231524157450849 13.111884023032474)"><path d="M0 0 C0.01 4.37, 0.05 21.85, 0.06 26.22 M0 0 C0.01 4.37, 0.05 21.85, 0.06 26.22" stroke="#000000" stroke-width="4" fill="none"></path></g></g><g stroke-linecap="round" transform="translate(287 89) rotate(0 13.373374241769284 13.373374241769312)"><path d="M26.75 13.37 C26.75 14.15, 26.68 14.93, 26.54 15.7 C26.41 16.46, 26.2 17.22, 25.94 17.95 C25.68 18.67, 25.34 19.39, 24.96 20.06 C24.57 20.73, 24.12 21.38, 23.62 21.97 C23.12 22.56, 22.56 23.12, 21.97 23.62 C21.38 24.12, 20.73 24.57, 20.06 24.96 C19.39 25.34, 18.67 25.68, 17.95 25.94 C17.22 26.2, 16.46 26.41, 15.7 26.54 C14.93 26.68, 14.15 26.75, 13.37 26.75 C12.6 26.75, 11.81 26.68, 11.05 26.54 C10.29 26.41, 9.53 26.2, 8.8 25.94 C8.07 25.68, 7.36 25.34, 6.69 24.96 C6.02 24.57, 5.37 24.12, 4.78 23.62 C4.18 23.12, 3.63 22.56, 3.13 21.97 C2.63 21.38, 2.18 20.73, 1.79 20.06 C1.4 19.39, 1.07 18.67, 0.81 17.95 C0.54 17.22, 0.34 16.46, 0.2 15.7 C0.07 14.93, 0 14.15, 0 13.37 C0 12.6, 0.07 11.81, 0.2 11.05 C0.34 10.29, 0.54 9.53, 0.81 8.8 C1.07 8.07, 1.4 7.36, 1.79 6.69 C2.18 6.02, 2.63 5.37, 3.13 4.78 C3.63 4.18, 4.18 3.63, 4.78 3.13 C5.37 2.63, 6.02 2.18, 6.69 1.79 C7.36 1.4, 8.07 1.07, 8.8 0.81 C9.53 0.54, 10.29 0.34, 11.05 0.2 C11.81 0.07, 12.6 0, 13.37 0 C14.15 0, 14.93 0.07, 15.7 0.2 C16.46 0.34, 17.22 0.54, 17.95 0.81 C18.67 1.07, 19.39 1.4, 20.06 1.79 C20.73 2.18, 21.38 2.63, 21.97 3.13 C22.56 3.63, 23.12 4.18, 23.62 4.78 C24.12 5.37, 24.57 6.02, 24.96 6.69 C25.34 7.36, 25.68 8.07, 25.94 8.8 C26.2 9.53, 26.41 10.29, 26.54 11.05 C26.68 11.81, 26.71 12.99, 26.75 13.37 C26.78 13.76, 26.78 12.99, 26.75 13.37" stroke="none" stroke-width="0" fill="#868e96"></path><path d="M26.75 13.37 C26.75 14.15, 26.68 14.93, 26.54 15.7 C26.41 16.46, 26.2 17.22, 25.94 17.95 C25.68 18.67, 25.34 19.39, 24.96 20.06 C24.57 20.73, 24.12 21.38, 23.62 21.97 C23.12 22.56, 22.56 23.12, 21.97 23.62 C21.38 24.12, 20.73 24.57, 20.06 24.96 C19.39 25.34, 18.67 25.68, 17.95 25.94 C17.22 26.2, 16.46 26.41, 15.7 26.54 C14.93 26.68, 14.15 26.75, 13.37 26.75 C12.6 26.75, 11.81 26.68, 11.05 26.54 C10.29 26.41, 9.53 26.2, 8.8 25.94 C8.07 25.68, 7.36 25.34, 6.69 24.96 C6.02 24.57, 5.37 24.12, 4.78 23.62 C4.18 23.12, 3.63 22.56, 3.13 21.97 C2.63 21.38, 2.18 20.73, 1.79 20.06 C1.4 19.39, 1.07 18.67, 0.81 17.95 C0.54 17.22, 0.34 16.46, 0.2 15.7 C0.07 14.93, 0 14.15, 0 13.37 C0 12.6, 0.07 11.81, 0.2 11.05 C0.34 10.29, 0.54 9.53, 0.81 8.8 C1.07 8.07, 1.4 7.36, 1.79 6.69 C2.18 6.02, 2.63 5.37, 3.13 4.78 C3.63 4.18, 4.18 3.63, 4.78 3.13 C5.37 2.63, 6.02 2.18, 6.69 1.79 C7.36 1.4, 8.07 1.07, 8.8 0.81 C9.53 0.54, 10.29 0.34, 11.05 0.2 C11.81 0.07, 12.6 0, 13.37 0 C14.15 0, 14.93 0.07, 15.7 0.2 C16.46 0.34, 17.22 0.54, 17.95 0.81 C18.67 1.07, 19.39 1.4, 20.06 1.79 C20.73 2.18, 21.38 2.63, 21.97 3.13 C22.56 3.63, 23.12 4.18, 23.62 4.78 C24.12 5.37, 24.57 6.02, 24.96 6.69 C25.34 7.36, 25.68 8.07, 25.94 8.8 C26.2 9.53, 26.41 10.29, 26.54 11.05 C26.68 11.81, 26.71 12.99, 26.75 13.37 C26.78 13.76, 26.78 12.99, 26.75 13.37" stroke="#000000" stroke-width="4" fill="none"></path></g><g stroke-linecap="round"><g transform="translate(327.5567266772855 88.5079079674972) rotate(269.8685561241723 0.03231524157450849 13.111884023032474)"><path d="M0 0 C0.01 4.37, 0.05 21.85, 0.06 26.22 M0 0 C0.01 4.37, 0.05 21.85, 0.06 26.22" stroke="#000000" stroke-width="4" fill="none"></path></g></g><g stroke-linecap="round"><g transform="translate(337.6009858234502 88.78491712739014) rotate(269.8685561241723 0.03231524157450849 13.111884023032474)"><path d="M0 0 C0.01 4.37, 0.05 21.85, 0.06 26.22 M0 0 C0.01 4.37, 0.05 21.85, 0.06 26.22" stroke="#000000" stroke-width="4" fill="none"></path></g></g><g stroke-linecap="round" transform="translate(350 90) rotate(0 13.373374241769284 13.373374241769312)"><path d="M26.75 13.37 C26.75 14.15, 26.68 14.93, 26.54 15.7 C26.41 16.46, 26.2 17.22, 25.94 17.95 C25.68 18.67, 25.34 19.39, 24.96 20.06 C24.57 20.73, 24.12 21.38, 23.62 21.97 C23.12 22.56, 22.56 23.12, 21.97 23.62 C21.38 24.12, 20.73 24.57, 20.06 24.96 C19.39 25.34, 18.67 25.68, 17.95 25.94 C17.22 26.2, 16.46 26.41, 15.7 26.54 C14.93 26.68, 14.15 26.75, 13.37 26.75 C12.6 26.75, 11.81 26.68, 11.05 26.54 C10.29 26.41, 9.53 26.2, 8.8 25.94 C8.07 25.68, 7.36 25.34, 6.69 24.96 C6.02 24.57, 5.37 24.12, 4.78 23.62 C4.18 23.12, 3.63 22.56, 3.13 21.97 C2.63 21.38, 2.18 20.73, 1.79 20.06 C1.4 19.39, 1.07 18.67, 0.81 17.95 C0.54 17.22, 0.34 16.46, 0.2 15.7 C0.07 14.93, 0 14.15, 0 13.37 C0 12.6, 0.07 11.81, 0.2 11.05 C0.34 10.29, 0.54 9.53, 0.81 8.8 C1.07 8.07, 1.4 7.36, 1.79 6.69 C2.18 6.02, 2.63 5.37, 3.13 4.78 C3.63 4.18, 4.18 3.63, 4.78 3.13 C5.37 2.63, 6.02 2.18, 6.69 1.79 C7.36 1.4, 8.07 1.07, 8.8 0.81 C9.53 0.54, 10.29 0.34, 11.05 0.2 C11.81 0.07, 12.6 0, 13.37 0 C14.15 0, 14.93 0.07, 15.7 0.2 C16.46 0.34, 17.22 0.54, 17.95 0.81 C18.67 1.07, 19.39 1.4, 20.06 1.79 C20.73 2.18, 21.38 2.63, 21.97 3.13 C22.56 3.63, 23.12 4.18, 23.62 4.78 C24.12 5.37, 24.57 6.02, 24.96 6.69 C25.34 7.36, 25.68 8.07, 25.94 8.8 C26.2 9.53, 26.41 10.29, 26.54 11.05 C26.68 11.81, 26.71 12.99, 26.75 13.37 C26.78 13.76, 26.78 12.99, 26.75 13.37" stroke="none" stroke-width="0" fill="#868e96"></path><path d="M26.75 13.37 C26.75 14.15, 26.68 14.93, 26.54 15.7 C26.41 16.46, 26.2 17.22, 25.94 17.95 C25.68 18.67, 25.34 19.39, 24.96 20.06 C24.57 20.73, 24.12 21.38, 23.62 21.97 C23.12 22.56, 22.56 23.12, 21.97 23.62 C21.38 24.12, 20.73 24.57, 20.06 24.96 C19.39 25.34, 18.67 25.68, 17.95 25.94 C17.22 26.2, 16.46 26.41, 15.7 26.54 C14.93 26.68, 14.15 26.75, 13.37 26.75 C12.6 26.75, 11.81 26.68, 11.05 26.54 C10.29 26.41, 9.53 26.2, 8.8 25.94 C8.07 25.68, 7.36 25.34, 6.69 24.96 C6.02 24.57, 5.37 24.12, 4.78 23.62 C4.18 23.12, 3.63 22.56, 3.13 21.97 C2.63 21.38, 2.18 20.73, 1.79 20.06 C1.4 19.39, 1.07 18.67, 0.81 17.95 C0.54 17.22, 0.34 16.46, 0.2 15.7 C0.07 14.93, 0 14.15, 0 13.37 C0 12.6, 0.07 11.81, 0.2 11.05 C0.34 10.29, 0.54 9.53, 0.81 8.8 C1.07 8.07, 1.4 7.36, 1.79 6.69 C2.18 6.02, 2.63 5.37, 3.13 4.78 C3.63 4.18, 4.18 3.63, 4.78 3.13 C5.37 2.63, 6.02 2.18, 6.69 1.79 C7.36 1.4, 8.07 1.07, 8.8 0.81 C9.53 0.54, 10.29 0.34, 11.05 0.2 C11.81 0.07, 12.6 0, 13.37 0 C14.15 0, 14.93 0.07, 15.7 0.2 C16.46 0.34, 17.22 0.54, 17.95 0.81 C18.67 1.07, 19.39 1.4, 20.06 1.79 C20.73 2.18, 21.38 2.63, 21.97 3.13 C22.56 3.63, 23.12 4.18, 23.62 4.78 C24.12 5.37, 24.57 6.02, 24.96 6.69 C25.34 7.36, 25.68 8.07, 25.94 8.8 C26.2 9.53, 26.41 10.29, 26.54 11.05 C26.68 11.81, 26.71 12.99, 26.75 13.37 C26.78 13.76, 26.78 12.99, 26.75 13.37" stroke="#000000" stroke-width="4" fill="none"></path></g><g stroke-linecap="round"><g transform="translate(390.5567266772855 89.5079079674972) rotate(269.8685561241723 0.03231524157445165 13.111884023032474)"><path d="M0 0 C0.01 4.37, 0.05 21.85, 0.06 26.22 M0 0 C0.01 4.37, 0.05 21.85, 0.06 26.22" stroke="#000000" stroke-width="4" fill="none"></path></g></g><g stroke-linecap="round"><g transform="translate(397.6009858234502 88.78491712739014) rotate(269.8685561241723 0.03231524157445165 13.111884023032474)"><path d="M0 0 C0.01 4.37, 0.05 21.85, 0.06 26.22 M0 0 C0.01 4.37, 0.05 21.85, 0.06 26.22" stroke="#000000" stroke-width="4" fill="none"></path></g></g><g stroke-linecap="round" transform="translate(410 90) rotate(0 13.373374241769284 13.373374241769312)"><path d="M26.75 13.37 C26.75 14.15, 26.68 14.93, 26.54 15.7 C26.41 16.46, 26.2 17.22, 25.94 17.95 C25.68 18.67, 25.34 19.39, 24.96 20.06 C24.57 20.73, 24.12 21.38, 23.62 21.97 C23.12 22.56, 22.56 23.12, 21.97 23.62 C21.38 24.12, 20.73 24.57, 20.06 24.96 C19.39 25.34, 18.67 25.68, 17.95 25.94 C17.22 26.2, 16.46 26.41, 15.7 26.54 C14.93 26.68, 14.15 26.75, 13.37 26.75 C12.6 26.75, 11.81 26.68, 11.05 26.54 C10.29 26.41, 9.53 26.2, 8.8 25.94 C8.07 25.68, 7.36 25.34, 6.69 24.96 C6.02 24.57, 5.37 24.12, 4.78 23.62 C4.18 23.12, 3.63 22.56, 3.13 21.97 C2.63 21.38, 2.18 20.73, 1.79 20.06 C1.4 19.39, 1.07 18.67, 0.81 17.95 C0.54 17.22, 0.34 16.46, 0.2 15.7 C0.07 14.93, 0 14.15, 0 13.37 C0 12.6, 0.07 11.81, 0.2 11.05 C0.34 10.29, 0.54 9.53, 0.81 8.8 C1.07 8.07, 1.4 7.36, 1.79 6.69 C2.18 6.02, 2.63 5.37, 3.13 4.78 C3.63 4.18, 4.18 3.63, 4.78 3.13 C5.37 2.63, 6.02 2.18, 6.69 1.79 C7.36 1.4, 8.07 1.07, 8.8 0.81 C9.53 0.54, 10.29 0.34, 11.05 0.2 C11.81 0.07, 12.6 0, 13.37 0 C14.15 0, 14.93 0.07, 15.7 0.2 C16.46 0.34, 17.22 0.54, 17.95 0.81 C18.67 1.07, 19.39 1.4, 20.06 1.79 C20.73 2.18, 21.38 2.63, 21.97 3.13 C22.56 3.63, 23.12 4.18, 23.62 4.78 C24.12 5.37, 24.57 6.02, 24.96 6.69 C25.34 7.36, 25.68 8.07, 25.94 8.8 C26.2 9.53, 26.41 10.29, 26.54 11.05 C26.68 11.81, 26.71 12.99, 26.75 13.37 C26.78 13.76, 26.78 12.99, 26.75 13.37" stroke="none" stroke-width="0" fill="#868e96"></path><path d="M26.75 13.37 C26.75 14.15, 26.68 14.93, 26.54 15.7 C26.41 16.46, 26.2 17.22, 25.94 17.95 C25.68 18.67, 25.34 19.39, 24.96 20.06 C24.57 20.73, 24.12 21.38, 23.62 21.97 C23.12 22.56, 22.56 23.12, 21.97 23.62 C21.38 24.12, 20.73 24.57, 20.06 24.96 C19.39 25.34, 18.67 25.68, 17.95 25.94 C17.22 26.2, 16.46 26.41, 15.7 26.54 C14.93 26.68, 14.15 26.75, 13.37 26.75 C12.6 26.75, 11.81 26.68, 11.05 26.54 C10.29 26.41, 9.53 26.2, 8.8 25.94 C8.07 25.68, 7.36 25.34, 6.69 24.96 C6.02 24.57, 5.37 24.12, 4.78 23.62 C4.18 23.12, 3.63 22.56, 3.13 21.97 C2.63 21.38, 2.18 20.73, 1.79 20.06 C1.4 19.39, 1.07 18.67, 0.81 17.95 C0.54 17.22, 0.34 16.46, 0.2 15.7 C0.07 14.93, 0 14.15, 0 13.37 C0 12.6, 0.07 11.81, 0.2 11.05 C0.34 10.29, 0.54 9.53, 0.81 8.8 C1.07 8.07, 1.4 7.36, 1.79 6.69 C2.18 6.02, 2.63 5.37, 3.13 4.78 C3.63 4.18, 4.18 3.63, 4.78 3.13 C5.37 2.63, 6.02 2.18, 6.69 1.79 C7.36 1.4, 8.07 1.07, 8.8 0.81 C9.53 0.54, 10.29 0.34, 11.05 0.2 C11.81 0.07, 12.6 0, 13.37 0 C14.15 0, 14.93 0.07, 15.7 0.2 C16.46 0.34, 17.22 0.54, 17.95 0.81 C18.67 1.07, 19.39 1.4, 20.06 1.79 C20.73 2.18, 21.38 2.63, 21.97 3.13 C22.56 3.63, 23.12 4.18, 23.62 4.78 C24.12 5.37, 24.57 6.02, 24.96 6.69 C25.34 7.36, 25.68 8.07, 25.94 8.8 C26.2 9.53, 26.41 10.29, 26.54 11.05 C26.68 11.81, 26.71 12.99, 26.75 13.37 C26.78 13.76, 26.78 12.99, 26.75 13.37" stroke="#000000" stroke-width="4" fill="none"></path></g><g stroke-linecap="round"><g transform="translate(450.5567266772855 89.5079079674972) rotate(269.8685561241723 0.03231524157445165 13.111884023032474)"><path d="M0 0 C0.01 4.37, 0.05 21.85, 0.06 26.22 M0 0 C0.01 4.37, 0.05 21.85, 0.06 26.22" stroke="#000000" stroke-width="4" fill="none"></path></g></g><g stroke-linecap="round"><g transform="translate(546.8009858234507 13.584917127390213) rotate(269.8685561241723 0.03231524157445165 13.111884023032474)"><path d="M0 0 C0.01 4.37, 0.05 21.85, 0.06 26.22 M0 0 C0.01 4.37, 0.05 21.85, 0.06 26.22" stroke="#000000" stroke-width="4" fill="none"></path></g></g><g stroke-linecap="round" transform="translate(559.2000000000005 14.800000000000068) rotate(0 13.373374241769284 13.373374241769312)"><path d="M26.75 13.37 C26.75 14.15, 26.68 14.93, 26.54 15.7 C26.41 16.46, 26.2 17.22, 25.94 17.95 C25.68 18.67, 25.34 19.39, 24.96 20.06 C24.57 20.73, 24.12 21.38, 23.62 21.97 C23.12 22.56, 22.56 23.12, 21.97 23.62 C21.38 24.12, 20.73 24.57, 20.06 24.96 C19.39 25.34, 18.67 25.68, 17.95 25.94 C17.22 26.2, 16.46 26.41, 15.7 26.54 C14.93 26.68, 14.15 26.75, 13.37 26.75 C12.6 26.75, 11.81 26.68, 11.05 26.54 C10.29 26.41, 9.53 26.2, 8.8 25.94 C8.07 25.68, 7.36 25.34, 6.69 24.96 C6.02 24.57, 5.37 24.12, 4.78 23.62 C4.18 23.12, 3.63 22.56, 3.13 21.97 C2.63 21.38, 2.18 20.73, 1.79 20.06 C1.4 19.39, 1.07 18.67, 0.81 17.95 C0.54 17.22, 0.34 16.46, 0.2 15.7 C0.07 14.93, 0 14.15, 0 13.37 C0 12.6, 0.07 11.81, 0.2 11.05 C0.34 10.29, 0.54 9.53, 0.81 8.8 C1.07 8.07, 1.4 7.36, 1.79 6.69 C2.18 6.02, 2.63 5.37, 3.13 4.78 C3.63 4.18, 4.18 3.63, 4.78 3.13 C5.37 2.63, 6.02 2.18, 6.69 1.79 C7.36 1.4, 8.07 1.07, 8.8 0.81 C9.53 0.54, 10.29 0.34, 11.05 0.2 C11.81 0.07, 12.6 0, 13.37 0 C14.15 0, 14.93 0.07, 15.7 0.2 C16.46 0.34, 17.22 0.54, 17.95 0.81 C18.67 1.07, 19.39 1.4, 20.06 1.79 C20.73 2.18, 21.38 2.63, 21.97 3.13 C22.56 3.63, 23.12 4.18, 23.62 4.78 C24.12 5.37, 24.57 6.02, 24.96 6.69 C25.34 7.36, 25.68 8.07, 25.94 8.8 C26.2 9.53, 26.41 10.29, 26.54 11.05 C26.68 11.81, 26.71 12.99, 26.75 13.37 C26.78 13.76, 26.78 12.99, 26.75 13.37" stroke="none" stroke-width="0" fill="#868e96"></path><path d="M26.75 13.37 C26.75 14.15, 26.68 14.93, 26.54 15.7 C26.41 16.46, 26.2 17.22, 25.94 17.95 C25.68 18.67, 25.34 19.39, 24.96 20.06 C24.57 20.73, 24.12 21.38, 23.62 21.97 C23.12 22.56, 22.56 23.12, 21.97 23.62 C21.38 24.12, 20.73 24.57, 20.06 24.96 C19.39 25.34, 18.67 25.68, 17.95 25.94 C17.22 26.2, 16.46 26.41, 15.7 26.54 C14.93 26.68, 14.15 26.75, 13.37 26.75 C12.6 26.75, 11.81 26.68, 11.05 26.54 C10.29 26.41, 9.53 26.2, 8.8 25.94 C8.07 25.68, 7.36 25.34, 6.69 24.96 C6.02 24.57, 5.37 24.12, 4.78 23.62 C4.18 23.12, 3.63 22.56, 3.13 21.97 C2.63 21.38, 2.18 20.73, 1.79 20.06 C1.4 19.39, 1.07 18.67, 0.81 17.95 C0.54 17.22, 0.34 16.46, 0.2 15.7 C0.07 14.93, 0 14.15, 0 13.37 C0 12.6, 0.07 11.81, 0.2 11.05 C0.34 10.29, 0.54 9.53, 0.81 8.8 C1.07 8.07, 1.4 7.36, 1.79 6.69 C2.18 6.02, 2.63 5.37, 3.13 4.78 C3.63 4.18, 4.18 3.63, 4.78 3.13 C5.37 2.63, 6.02 2.18, 6.69 1.79 C7.36 1.4, 8.07 1.07, 8.8 0.81 C9.53 0.54, 10.29 0.34, 11.05 0.2 C11.81 0.07, 12.6 0, 13.37 0 C14.15 0, 14.93 0.07, 15.7 0.2 C16.46 0.34, 17.22 0.54, 17.95 0.81 C18.67 1.07, 19.39 1.4, 20.06 1.79 C20.73 2.18, 21.38 2.63, 21.97 3.13 C22.56 3.63, 23.12 4.18, 23.62 4.78 C24.12 5.37, 24.57 6.02, 24.96 6.69 C25.34 7.36, 25.68 8.07, 25.94 8.8 C26.2 9.53, 26.41 10.29, 26.54 11.05 C26.68 11.81, 26.71 12.99, 26.75 13.37 C26.78 13.76, 26.78 12.99, 26.75 13.37" stroke="#000000" stroke-width="4" fill="none"></path></g><g stroke-linecap="round"><g transform="translate(599.756726677286 14.307907967497272) rotate(269.8685561241723 0.03231524157445165 13.111884023032474)"><path d="M0 0 C0.01 4.37, 0.05 21.85, 0.06 26.22 M0 0 C0.01 4.37, 0.05 21.85, 0.06 26.22" stroke="#000000" stroke-width="4" fill="none"></path></g></g><g stroke-linecap="round"><g transform="translate(604.8009858234507 14.384917127390281) rotate(269.8685561241723 0.03231524157445165 13.111884023032474)"><path d="M0 0 C0.01 4.37, 0.05 21.85, 0.06 26.22 M0 0 C0.01 4.37, 0.05 21.85, 0.06 26.22" stroke="#000000" stroke-width="4" fill="none"></path></g></g><g stroke-linecap="round" transform="translate(617.2000000000005 15.600000000000136) rotate(0 13.373374241769284 13.373374241769312)"><path d="M26.75 13.37 C26.75 14.15, 26.68 14.93, 26.54 15.7 C26.41 16.46, 26.2 17.22, 25.94 17.95 C25.68 18.67, 25.34 19.39, 24.96 20.06 C24.57 20.73, 24.12 21.38, 23.62 21.97 C23.12 22.56, 22.56 23.12, 21.97 23.62 C21.38 24.12, 20.73 24.57, 20.06 24.96 C19.39 25.34, 18.67 25.68, 17.95 25.94 C17.22 26.2, 16.46 26.41, 15.7 26.54 C14.93 26.68, 14.15 26.75, 13.37 26.75 C12.6 26.75, 11.81 26.68, 11.05 26.54 C10.29 26.41, 9.53 26.2, 8.8 25.94 C8.07 25.68, 7.36 25.34, 6.69 24.96 C6.02 24.57, 5.37 24.12, 4.78 23.62 C4.18 23.12, 3.63 22.56, 3.13 21.97 C2.63 21.38, 2.18 20.73, 1.79 20.06 C1.4 19.39, 1.07 18.67, 0.81 17.95 C0.54 17.22, 0.34 16.46, 0.2 15.7 C0.07 14.93, 0 14.15, 0 13.37 C0 12.6, 0.07 11.81, 0.2 11.05 C0.34 10.29, 0.54 9.53, 0.81 8.8 C1.07 8.07, 1.4 7.36, 1.79 6.69 C2.18 6.02, 2.63 5.37, 3.13 4.78 C3.63 4.18, 4.18 3.63, 4.78 3.13 C5.37 2.63, 6.02 2.18, 6.69 1.79 C7.36 1.4, 8.07 1.07, 8.8 0.81 C9.53 0.54, 10.29 0.34, 11.05 0.2 C11.81 0.07, 12.6 0, 13.37 0 C14.15 0, 14.93 0.07, 15.7 0.2 C16.46 0.34, 17.22 0.54, 17.95 0.81 C18.67 1.07, 19.39 1.4, 20.06 1.79 C20.73 2.18, 21.38 2.63, 21.97 3.13 C22.56 3.63, 23.12 4.18, 23.62 4.78 C24.12 5.37, 24.57 6.02, 24.96 6.69 C25.34 7.36, 25.68 8.07, 25.94 8.8 C26.2 9.53, 26.41 10.29, 26.54 11.05 C26.68 11.81, 26.71 12.99, 26.75 13.37 C26.78 13.76, 26.78 12.99, 26.75 13.37" stroke="none" stroke-width="0" fill="#228be6"></path><path d="M26.75 13.37 C26.75 14.15, 26.68 14.93, 26.54 15.7 C26.41 16.46, 26.2 17.22, 25.94 17.95 C25.68 18.67, 25.34 19.39, 24.96 20.06 C24.57 20.73, 24.12 21.38, 23.62 21.97 C23.12 22.56, 22.56 23.12, 21.97 23.62 C21.38 24.12, 20.73 24.57, 20.06 24.96 C19.39 25.34, 18.67 25.68, 17.95 25.94 C17.22 26.2, 16.46 26.41, 15.7 26.54 C14.93 26.68, 14.15 26.75, 13.37 26.75 C12.6 26.75, 11.81 26.68, 11.05 26.54 C10.29 26.41, 9.53 26.2, 8.8 25.94 C8.07 25.68, 7.36 25.34, 6.69 24.96 C6.02 24.57, 5.37 24.12, 4.78 23.62 C4.18 23.12, 3.63 22.56, 3.13 21.97 C2.63 21.38, 2.18 20.73, 1.79 20.06 C1.4 19.39, 1.07 18.67, 0.81 17.95 C0.54 17.22, 0.34 16.46, 0.2 15.7 C0.07 14.93, 0 14.15, 0 13.37 C0 12.6, 0.07 11.81, 0.2 11.05 C0.34 10.29, 0.54 9.53, 0.81 8.8 C1.07 8.07, 1.4 7.36, 1.79 6.69 C2.18 6.02, 2.63 5.37, 3.13 4.78 C3.63 4.18, 4.18 3.63, 4.78 3.13 C5.37 2.63, 6.02 2.18, 6.69 1.79 C7.36 1.4, 8.07 1.07, 8.8 0.81 C9.53 0.54, 10.29 0.34, 11.05 0.2 C11.81 0.07, 12.6 0, 13.37 0 C14.15 0, 14.93 0.07, 15.7 0.2 C16.46 0.34, 17.22 0.54, 17.95 0.81 C18.67 1.07, 19.39 1.4, 20.06 1.79 C20.73 2.18, 21.38 2.63, 21.97 3.13 C22.56 3.63, 23.12 4.18, 23.62 4.78 C24.12 5.37, 24.57 6.02, 24.96 6.69 C25.34 7.36, 25.68 8.07, 25.94 8.8 C26.2 9.53, 26.41 10.29, 26.54 11.05 C26.68 11.81, 26.71 12.99, 26.75 13.37 C26.78 13.76, 26.78 12.99, 26.75 13.37" stroke="#c92a2a" stroke-width="4" fill="none"></path></g><g stroke-linecap="round"><g transform="translate(180.60098582345017 10.784917127390145) rotate(269.8685561241723 0.03231524157450849 13.111884023032474)"><path d="M0 0 C0.01 4.37, 0.05 21.85, 0.06 26.22 M0 0 C0.01 4.37, 0.05 21.85, 0.06 26.22" stroke="#000000" stroke-width="4" fill="none"></path></g></g><g stroke-linecap="round" transform="translate(193 12) rotate(0 13.373374241769284 13.373374241769312)"><path d="M26.75 13.37 C26.75 14.15, 26.68 14.93, 26.54 15.7 C26.41 16.46, 26.2 17.22, 25.94 17.95 C25.68 18.67, 25.34 19.39, 24.96 20.06 C24.57 20.73, 24.12 21.38, 23.62 21.97 C23.12 22.56, 22.56 23.12, 21.97 23.62 C21.38 24.12, 20.73 24.57, 20.06 24.96 C19.39 25.34, 18.67 25.68, 17.95 25.94 C17.22 26.2, 16.46 26.41, 15.7 26.54 C14.93 26.68, 14.15 26.75, 13.37 26.75 C12.6 26.75, 11.81 26.68, 11.05 26.54 C10.29 26.41, 9.53 26.2, 8.8 25.94 C8.07 25.68, 7.36 25.34, 6.69 24.96 C6.02 24.57, 5.37 24.12, 4.78 23.62 C4.18 23.12, 3.63 22.56, 3.13 21.97 C2.63 21.38, 2.18 20.73, 1.79 20.06 C1.4 19.39, 1.07 18.67, 0.81 17.95 C0.54 17.22, 0.34 16.46, 0.2 15.7 C0.07 14.93, 0 14.15, 0 13.37 C0 12.6, 0.07 11.81, 0.2 11.05 C0.34 10.29, 0.54 9.53, 0.81 8.8 C1.07 8.07, 1.4 7.36, 1.79 6.69 C2.18 6.02, 2.63 5.37, 3.13 4.78 C3.63 4.18, 4.18 3.63, 4.78 3.13 C5.37 2.63, 6.02 2.18, 6.69 1.79 C7.36 1.4, 8.07 1.07, 8.8 0.81 C9.53 0.54, 10.29 0.34, 11.05 0.2 C11.81 0.07, 12.6 0, 13.37 0 C14.15 0, 14.93 0.07, 15.7 0.2 C16.46 0.34, 17.22 0.54, 17.95 0.81 C18.67 1.07, 19.39 1.4, 20.06 1.79 C20.73 2.18, 21.38 2.63, 21.97 3.13 C22.56 3.63, 23.12 4.18, 23.62 4.78 C24.12 5.37, 24.57 6.02, 24.96 6.69 C25.34 7.36, 25.68 8.07, 25.94 8.8 C26.2 9.53, 26.41 10.29, 26.54 11.05 C26.68 11.81, 26.71 12.99, 26.75 13.37 C26.78 13.76, 26.78 12.99, 26.75 13.37" stroke="none" stroke-width="0" fill="#228be6"></path><path d="M26.75 13.37 C26.75 14.15, 26.68 14.93, 26.54 15.7 C26.41 16.46, 26.2 17.22, 25.94 17.95 C25.68 18.67, 25.34 19.39, 24.96 20.06 C24.57 20.73, 24.12 21.38, 23.62 21.97 C23.12 22.56, 22.56 23.12, 21.97 23.62 C21.38 24.12, 20.73 24.57, 20.06 24.96 C19.39 25.34, 18.67 25.68, 17.95 25.94 C17.22 26.2, 16.46 26.41, 15.7 26.54 C14.93 26.68, 14.15 26.75, 13.37 26.75 C12.6 26.75, 11.81 26.68, 11.05 26.54 C10.29 26.41, 9.53 26.2, 8.8 25.94 C8.07 25.68, 7.36 25.34, 6.69 24.96 C6.02 24.57, 5.37 24.12, 4.78 23.62 C4.18 23.12, 3.63 22.56, 3.13 21.97 C2.63 21.38, 2.18 20.73, 1.79 20.06 C1.4 19.39, 1.07 18.67, 0.81 17.95 C0.54 17.22, 0.34 16.46, 0.2 15.7 C0.07 14.93, 0 14.15, 0 13.37 C0 12.6, 0.07 11.81, 0.2 11.05 C0.34 10.29, 0.54 9.53, 0.81 8.8 C1.07 8.07, 1.4 7.36, 1.79 6.69 C2.18 6.02, 2.63 5.37, 3.13 4.78 C3.63 4.18, 4.18 3.63, 4.78 3.13 C5.37 2.63, 6.02 2.18, 6.69 1.79 C7.36 1.4, 8.07 1.07, 8.8 0.81 C9.53 0.54, 10.29 0.34, 11.05 0.2 C11.81 0.07, 12.6 0, 13.37 0 C14.15 0, 14.93 0.07, 15.7 0.2 C16.46 0.34, 17.22 0.54, 17.95 0.81 C18.67 1.07, 19.39 1.4, 20.06 1.79 C20.73 2.18, 21.38 2.63, 21.97 3.13 C22.56 3.63, 23.12 4.18, 23.62 4.78 C24.12 5.37, 24.57 6.02, 24.96 6.69 C25.34 7.36, 25.68 8.07, 25.94 8.8 C26.2 9.53, 26.41 10.29, 26.54 11.05 C26.68 11.81, 26.71 12.99, 26.75 13.37 C26.78 13.76, 26.78 12.99, 26.75 13.37" stroke="#000000" stroke-width="4" fill="none"></path></g><g stroke-linecap="round"><g transform="translate(233.5567266772855 11.507907967497204) rotate(269.8685561241723 0.03231524157450849 13.111884023032474)"><path d="M0 0 C0.01 4.37, 0.05 21.85, 0.06 26.22 M0 0 C0.01 4.37, 0.05 21.85, 0.06 26.22" stroke="#000000" stroke-width="4" fill="none"></path></g></g><g stroke-linecap="round"><g transform="translate(363.6009858234502 11.784917127390145) rotate(269.8685561241723 0.03231524157445165 13.111884023032474)"><path d="M0 0 C0.01 4.37, 0.05 21.85, 0.06 26.22 M0 0 C0.01 4.37, 0.05 21.85, 0.06 26.22" stroke="#000000" stroke-width="4" fill="none"></path></g></g><g stroke-linecap="round" transform="translate(376 13) rotate(0 13.373374241769284 13.373374241769312)"><path d="M26.75 13.37 C26.75 14.15, 26.68 14.93, 26.54 15.7 C26.41 16.46, 26.2 17.22, 25.94 17.95 C25.68 18.67, 25.34 19.39, 24.96 20.06 C24.57 20.73, 24.12 21.38, 23.62 21.97 C23.12 22.56, 22.56 23.12, 21.97 23.62 C21.38 24.12, 20.73 24.57, 20.06 24.96 C19.39 25.34, 18.67 25.68, 17.95 25.94 C17.22 26.2, 16.46 26.41, 15.7 26.54 C14.93 26.68, 14.15 26.75, 13.37 26.75 C12.6 26.75, 11.81 26.68, 11.05 26.54 C10.29 26.41, 9.53 26.2, 8.8 25.94 C8.07 25.68, 7.36 25.34, 6.69 24.96 C6.02 24.57, 5.37 24.12, 4.78 23.62 C4.18 23.12, 3.63 22.56, 3.13 21.97 C2.63 21.38, 2.18 20.73, 1.79 20.06 C1.4 19.39, 1.07 18.67, 0.81 17.95 C0.54 17.22, 0.34 16.46, 0.2 15.7 C0.07 14.93, 0 14.15, 0 13.37 C0 12.6, 0.07 11.81, 0.2 11.05 C0.34 10.29, 0.54 9.53, 0.81 8.8 C1.07 8.07, 1.4 7.36, 1.79 6.69 C2.18 6.02, 2.63 5.37, 3.13 4.78 C3.63 4.18, 4.18 3.63, 4.78 3.13 C5.37 2.63, 6.02 2.18, 6.69 1.79 C7.36 1.4, 8.07 1.07, 8.8 0.81 C9.53 0.54, 10.29 0.34, 11.05 0.2 C11.81 0.07, 12.6 0, 13.37 0 C14.15 0, 14.93 0.07, 15.7 0.2 C16.46 0.34, 17.22 0.54, 17.95 0.81 C18.67 1.07, 19.39 1.4, 20.06 1.79 C20.73 2.18, 21.38 2.63, 21.97 3.13 C22.56 3.63, 23.12 4.18, 23.62 4.78 C24.12 5.37, 24.57 6.02, 24.96 6.69 C25.34 7.36, 25.68 8.07, 25.94 8.8 C26.2 9.53, 26.41 10.29, 26.54 11.05 C26.68 11.81, 26.71 12.99, 26.75 13.37 C26.78 13.76, 26.78 12.99, 26.75 13.37" stroke="none" stroke-width="0" fill="#228be6"></path><path d="M26.75 13.37 C26.75 14.15, 26.68 14.93, 26.54 15.7 C26.41 16.46, 26.2 17.22, 25.94 17.95 C25.68 18.67, 25.34 19.39, 24.96 20.06 C24.57 20.73, 24.12 21.38, 23.62 21.97 C23.12 22.56, 22.56 23.12, 21.97 23.62 C21.38 24.12, 20.73 24.57, 20.06 24.96 C19.39 25.34, 18.67 25.68, 17.95 25.94 C17.22 26.2, 16.46 26.41, 15.7 26.54 C14.93 26.68, 14.15 26.75, 13.37 26.75 C12.6 26.75, 11.81 26.68, 11.05 26.54 C10.29 26.41, 9.53 26.2, 8.8 25.94 C8.07 25.68, 7.36 25.34, 6.69 24.96 C6.02 24.57, 5.37 24.12, 4.78 23.62 C4.18 23.12, 3.63 22.56, 3.13 21.97 C2.63 21.38, 2.18 20.73, 1.79 20.06 C1.4 19.39, 1.07 18.67, 0.81 17.95 C0.54 17.22, 0.34 16.46, 0.2 15.7 C0.07 14.93, 0 14.15, 0 13.37 C0 12.6, 0.07 11.81, 0.2 11.05 C0.34 10.29, 0.54 9.53, 0.81 8.8 C1.07 8.07, 1.4 7.36, 1.79 6.69 C2.18 6.02, 2.63 5.37, 3.13 4.78 C3.63 4.18, 4.18 3.63, 4.78 3.13 C5.37 2.63, 6.02 2.18, 6.69 1.79 C7.36 1.4, 8.07 1.07, 8.8 0.81 C9.53 0.54, 10.29 0.34, 11.05 0.2 C11.81 0.07, 12.6 0, 13.37 0 C14.15 0, 14.93 0.07, 15.7 0.2 C16.46 0.34, 17.22 0.54, 17.95 0.81 C18.67 1.07, 19.39 1.4, 20.06 1.79 C20.73 2.18, 21.38 2.63, 21.97 3.13 C22.56 3.63, 23.12 4.18, 23.62 4.78 C24.12 5.37, 24.57 6.02, 24.96 6.69 C25.34 7.36, 25.68 8.07, 25.94 8.8 C26.2 9.53, 26.41 10.29, 26.54 11.05 C26.68 11.81, 26.71 12.99, 26.75 13.37 C26.78 13.76, 26.78 12.99, 26.75 13.37" stroke="#000000" stroke-width="4" fill="none"></path></g><g stroke-linecap="round"><g transform="translate(416.5567266772855 12.507907967497204) rotate(269.8685561241723 0.03231524157445165 13.111884023032474)"><path d="M0 0 C0.01 4.37, 0.05 21.85, 0.06 26.22 M0 0 C0.01 4.37, 0.05 21.85, 0.06 26.22" stroke="#000000" stroke-width="4" fill="none"></path></g></g><g stroke-linecap="round"><g transform="translate(243.60098582345017 11.784917127390145) rotate(269.8685561241723 0.03231524157450849 13.111884023032474)"><path d="M0 0 C0.01 4.37, 0.05 21.85, 0.06 26.22 M0 0 C0.01 4.37, 0.05 21.85, 0.06 26.22" stroke="#000000" stroke-width="4" fill="none"></path></g></g><g stroke-linecap="round" transform="translate(256 13) rotate(0 13.373374241769284 13.373374241769312)"><path d="M26.75 13.37 C26.75 14.15, 26.68 14.93, 26.54 15.7 C26.41 16.46, 26.2 17.22, 25.94 17.95 C25.68 18.67, 25.34 19.39, 24.96 20.06 C24.57 20.73, 24.12 21.38, 23.62 21.97 C23.12 22.56, 22.56 23.12, 21.97 23.62 C21.38 24.12, 20.73 24.57, 20.06 24.96 C19.39 25.34, 18.67 25.68, 17.95 25.94 C17.22 26.2, 16.46 26.41, 15.7 26.54 C14.93 26.68, 14.15 26.75, 13.37 26.75 C12.6 26.75, 11.81 26.68, 11.05 26.54 C10.29 26.41, 9.53 26.2, 8.8 25.94 C8.07 25.68, 7.36 25.34, 6.69 24.96 C6.02 24.57, 5.37 24.12, 4.78 23.62 C4.18 23.12, 3.63 22.56, 3.13 21.97 C2.63 21.38, 2.18 20.73, 1.79 20.06 C1.4 19.39, 1.07 18.67, 0.81 17.95 C0.54 17.22, 0.34 16.46, 0.2 15.7 C0.07 14.93, 0 14.15, 0 13.37 C0 12.6, 0.07 11.81, 0.2 11.05 C0.34 10.29, 0.54 9.53, 0.81 8.8 C1.07 8.07, 1.4 7.36, 1.79 6.69 C2.18 6.02, 2.63 5.37, 3.13 4.78 C3.63 4.18, 4.18 3.63, 4.78 3.13 C5.37 2.63, 6.02 2.18, 6.69 1.79 C7.36 1.4, 8.07 1.07, 8.8 0.81 C9.53 0.54, 10.29 0.34, 11.05 0.2 C11.81 0.07, 12.6 0, 13.37 0 C14.15 0, 14.93 0.07, 15.7 0.2 C16.46 0.34, 17.22 0.54, 17.95 0.81 C18.67 1.07, 19.39 1.4, 20.06 1.79 C20.73 2.18, 21.38 2.63, 21.97 3.13 C22.56 3.63, 23.12 4.18, 23.62 4.78 C24.12 5.37, 24.57 6.02, 24.96 6.69 C25.34 7.36, 25.68 8.07, 25.94 8.8 C26.2 9.53, 26.41 10.29, 26.54 11.05 C26.68 11.81, 26.71 12.99, 26.75 13.37 C26.78 13.76, 26.78 12.99, 26.75 13.37" stroke="none" stroke-width="0" fill="#228be6"></path><path d="M26.75 13.37 C26.75 14.15, 26.68 14.93, 26.54 15.7 C26.41 16.46, 26.2 17.22, 25.94 17.95 C25.68 18.67, 25.34 19.39, 24.96 20.06 C24.57 20.73, 24.12 21.38, 23.62 21.97 C23.12 22.56, 22.56 23.12, 21.97 23.62 C21.38 24.12, 20.73 24.57, 20.06 24.96 C19.39 25.34, 18.67 25.68, 17.95 25.94 C17.22 26.2, 16.46 26.41, 15.7 26.54 C14.93 26.68, 14.15 26.75, 13.37 26.75 C12.6 26.75, 11.81 26.68, 11.05 26.54 C10.29 26.41, 9.53 26.2, 8.8 25.94 C8.07 25.68, 7.36 25.34, 6.69 24.96 C6.02 24.57, 5.37 24.12, 4.78 23.62 C4.18 23.12, 3.63 22.56, 3.13 21.97 C2.63 21.38, 2.18 20.73, 1.79 20.06 C1.4 19.39, 1.07 18.67, 0.81 17.95 C0.54 17.22, 0.34 16.46, 0.2 15.7 C0.07 14.93, 0 14.15, 0 13.37 C0 12.6, 0.07 11.81, 0.2 11.05 C0.34 10.29, 0.54 9.53, 0.81 8.8 C1.07 8.07, 1.4 7.36, 1.79 6.69 C2.18 6.02, 2.63 5.37, 3.13 4.78 C3.63 4.18, 4.18 3.63, 4.78 3.13 C5.37 2.63, 6.02 2.18, 6.69 1.79 C7.36 1.4, 8.07 1.07, 8.8 0.81 C9.53 0.54, 10.29 0.34, 11.05 0.2 C11.81 0.07, 12.6 0, 13.37 0 C14.15 0, 14.93 0.07, 15.7 0.2 C16.46 0.34, 17.22 0.54, 17.95 0.81 C18.67 1.07, 19.39 1.4, 20.06 1.79 C20.73 2.18, 21.38 2.63, 21.97 3.13 C22.56 3.63, 23.12 4.18, 23.62 4.78 C24.12 5.37, 24.57 6.02, 24.96 6.69 C25.34 7.36, 25.68 8.07, 25.94 8.8 C26.2 9.53, 26.41 10.29, 26.54 11.05 C26.68 11.81, 26.71 12.99, 26.75 13.37 C26.78 13.76, 26.78 12.99, 26.75 13.37" stroke="#000000" stroke-width="4" fill="none"></path></g><g stroke-linecap="round"><g transform="translate(296.5567266772855 12.507907967497204) rotate(269.8685561241723 0.03231524157450849 13.111884023032474)"><path d="M0 0 C0.01 4.37, 0.05 21.85, 0.06 26.22 M0 0 C0.01 4.37, 0.05 21.85, 0.06 26.22" stroke="#000000" stroke-width="4" fill="none"></path></g></g><g stroke-linecap="round"><g transform="translate(426.6009858234502 12.784917127390145) rotate(269.8685561241723 0.03231524157445165 13.111884023032474)"><path d="M0 0 C0.01 4.37, 0.05 21.85, 0.06 26.22 M0 0 C0.01 4.37, 0.05 21.85, 0.06 26.22" stroke="#000000" stroke-width="4" fill="none"></path></g></g><g stroke-linecap="round" transform="translate(439 14) rotate(0 13.373374241769284 13.373374241769312)"><path d="M26.75 13.37 C26.75 14.15, 26.68 14.93, 26.54 15.7 C26.41 16.46, 26.2 17.22, 25.94 17.95 C25.68 18.67, 25.34 19.39, 24.96 20.06 C24.57 20.73, 24.12 21.38, 23.62 21.97 C23.12 22.56, 22.56 23.12, 21.97 23.62 C21.38 24.12, 20.73 24.57, 20.06 24.96 C19.39 25.34, 18.67 25.68, 17.95 25.94 C17.22 26.2, 16.46 26.41, 15.7 26.54 C14.93 26.68, 14.15 26.75, 13.37 26.75 C12.6 26.75, 11.81 26.68, 11.05 26.54 C10.29 26.41, 9.53 26.2, 8.8 25.94 C8.07 25.68, 7.36 25.34, 6.69 24.96 C6.02 24.57, 5.37 24.12, 4.78 23.62 C4.18 23.12, 3.63 22.56, 3.13 21.97 C2.63 21.38, 2.18 20.73, 1.79 20.06 C1.4 19.39, 1.07 18.67, 0.81 17.95 C0.54 17.22, 0.34 16.46, 0.2 15.7 C0.07 14.93, 0 14.15, 0 13.37 C0 12.6, 0.07 11.81, 0.2 11.05 C0.34 10.29, 0.54 9.53, 0.81 8.8 C1.07 8.07, 1.4 7.36, 1.79 6.69 C2.18 6.02, 2.63 5.37, 3.13 4.78 C3.63 4.18, 4.18 3.63, 4.78 3.13 C5.37 2.63, 6.02 2.18, 6.69 1.79 C7.36 1.4, 8.07 1.07, 8.8 0.81 C9.53 0.54, 10.29 0.34, 11.05 0.2 C11.81 0.07, 12.6 0, 13.37 0 C14.15 0, 14.93 0.07, 15.7 0.2 C16.46 0.34, 17.22 0.54, 17.95 0.81 C18.67 1.07, 19.39 1.4, 20.06 1.79 C20.73 2.18, 21.38 2.63, 21.97 3.13 C22.56 3.63, 23.12 4.18, 23.62 4.78 C24.12 5.37, 24.57 6.02, 24.96 6.69 C25.34 7.36, 25.68 8.07, 25.94 8.8 C26.2 9.53, 26.41 10.29, 26.54 11.05 C26.68 11.81, 26.71 12.99, 26.75 13.37 C26.78 13.76, 26.78 12.99, 26.75 13.37" stroke="none" stroke-width="0" fill="#228be6"></path><path d="M26.75 13.37 C26.75 14.15, 26.68 14.93, 26.54 15.7 C26.41 16.46, 26.2 17.22, 25.94 17.95 C25.68 18.67, 25.34 19.39, 24.96 20.06 C24.57 20.73, 24.12 21.38, 23.62 21.97 C23.12 22.56, 22.56 23.12, 21.97 23.62 C21.38 24.12, 20.73 24.57, 20.06 24.96 C19.39 25.34, 18.67 25.68, 17.95 25.94 C17.22 26.2, 16.46 26.41, 15.7 26.54 C14.93 26.68, 14.15 26.75, 13.37 26.75 C12.6 26.75, 11.81 26.68, 11.05 26.54 C10.29 26.41, 9.53 26.2, 8.8 25.94 C8.07 25.68, 7.36 25.34, 6.69 24.96 C6.02 24.57, 5.37 24.12, 4.78 23.62 C4.18 23.12, 3.63 22.56, 3.13 21.97 C2.63 21.38, 2.18 20.73, 1.79 20.06 C1.4 19.39, 1.07 18.67, 0.81 17.95 C0.54 17.22, 0.34 16.46, 0.2 15.7 C0.07 14.93, 0 14.15, 0 13.37 C0 12.6, 0.07 11.81, 0.2 11.05 C0.34 10.29, 0.54 9.53, 0.81 8.8 C1.07 8.07, 1.4 7.36, 1.79 6.69 C2.18 6.02, 2.63 5.37, 3.13 4.78 C3.63 4.18, 4.18 3.63, 4.78 3.13 C5.37 2.63, 6.02 2.18, 6.69 1.79 C7.36 1.4, 8.07 1.07, 8.8 0.81 C9.53 0.54, 10.29 0.34, 11.05 0.2 C11.81 0.07, 12.6 0, 13.37 0 C14.15 0, 14.93 0.07, 15.7 0.2 C16.46 0.34, 17.22 0.54, 17.95 0.81 C18.67 1.07, 19.39 1.4, 20.06 1.79 C20.73 2.18, 21.38 2.63, 21.97 3.13 C22.56 3.63, 23.12 4.18, 23.62 4.78 C24.12 5.37, 24.57 6.02, 24.96 6.69 C25.34 7.36, 25.68 8.07, 25.94 8.8 C26.2 9.53, 26.41 10.29, 26.54 11.05 C26.68 11.81, 26.71 12.99, 26.75 13.37 C26.78 13.76, 26.78 12.99, 26.75 13.37" stroke="#000000" stroke-width="4" fill="none"></path></g><g stroke-linecap="round"><g transform="translate(479.5567266772855 13.507907967497204) rotate(269.8685561241723 0.03231524157445165 13.111884023032474)"><path d="M0 0 C0.01 4.37, 0.05 21.85, 0.06 26.22 M0 0 C0.01 4.37, 0.05 21.85, 0.06 26.22" stroke="#000000" stroke-width="4" fill="none"></path></g></g><g stroke-linecap="round"><g transform="translate(303.6009858234502 11.784917127390145) rotate(269.8685561241723 0.03231524157450849 13.111884023032474)"><path d="M0 0 C0.01 4.37, 0.05 21.85, 0.06 26.22 M0 0 C0.01 4.37, 0.05 21.85, 0.06 26.22" stroke="#000000" stroke-width="4" fill="none"></path></g></g><g stroke-linecap="round" transform="translate(316 13) rotate(0 13.373374241769284 13.373374241769312)"><path d="M26.75 13.37 C26.75 14.15, 26.68 14.93, 26.54 15.7 C26.41 16.46, 26.2 17.22, 25.94 17.95 C25.68 18.67, 25.34 19.39, 24.96 20.06 C24.57 20.73, 24.12 21.38, 23.62 21.97 C23.12 22.56, 22.56 23.12, 21.97 23.62 C21.38 24.12, 20.73 24.57, 20.06 24.96 C19.39 25.34, 18.67 25.68, 17.95 25.94 C17.22 26.2, 16.46 26.41, 15.7 26.54 C14.93 26.68, 14.15 26.75, 13.37 26.75 C12.6 26.75, 11.81 26.68, 11.05 26.54 C10.29 26.41, 9.53 26.2, 8.8 25.94 C8.07 25.68, 7.36 25.34, 6.69 24.96 C6.02 24.57, 5.37 24.12, 4.78 23.62 C4.18 23.12, 3.63 22.56, 3.13 21.97 C2.63 21.38, 2.18 20.73, 1.79 20.06 C1.4 19.39, 1.07 18.67, 0.81 17.95 C0.54 17.22, 0.34 16.46, 0.2 15.7 C0.07 14.93, 0 14.15, 0 13.37 C0 12.6, 0.07 11.81, 0.2 11.05 C0.34 10.29, 0.54 9.53, 0.81 8.8 C1.07 8.07, 1.4 7.36, 1.79 6.69 C2.18 6.02, 2.63 5.37, 3.13 4.78 C3.63 4.18, 4.18 3.63, 4.78 3.13 C5.37 2.63, 6.02 2.18, 6.69 1.79 C7.36 1.4, 8.07 1.07, 8.8 0.81 C9.53 0.54, 10.29 0.34, 11.05 0.2 C11.81 0.07, 12.6 0, 13.37 0 C14.15 0, 14.93 0.07, 15.7 0.2 C16.46 0.34, 17.22 0.54, 17.95 0.81 C18.67 1.07, 19.39 1.4, 20.06 1.79 C20.73 2.18, 21.38 2.63, 21.97 3.13 C22.56 3.63, 23.12 4.18, 23.62 4.78 C24.12 5.37, 24.57 6.02, 24.96 6.69 C25.34 7.36, 25.68 8.07, 25.94 8.8 C26.2 9.53, 26.41 10.29, 26.54 11.05 C26.68 11.81, 26.71 12.99, 26.75 13.37 C26.78 13.76, 26.78 12.99, 26.75 13.37" stroke="none" stroke-width="0" fill="#228be6"></path><path d="M26.75 13.37 C26.75 14.15, 26.68 14.93, 26.54 15.7 C26.41 16.46, 26.2 17.22, 25.94 17.95 C25.68 18.67, 25.34 19.39, 24.96 20.06 C24.57 20.73, 24.12 21.38, 23.62 21.97 C23.12 22.56, 22.56 23.12, 21.97 23.62 C21.38 24.12, 20.73 24.57, 20.06 24.96 C19.39 25.34, 18.67 25.68, 17.95 25.94 C17.22 26.2, 16.46 26.41, 15.7 26.54 C14.93 26.68, 14.15 26.75, 13.37 26.75 C12.6 26.75, 11.81 26.68, 11.05 26.54 C10.29 26.41, 9.53 26.2, 8.8 25.94 C8.07 25.68, 7.36 25.34, 6.69 24.96 C6.02 24.57, 5.37 24.12, 4.78 23.62 C4.18 23.12, 3.63 22.56, 3.13 21.97 C2.63 21.38, 2.18 20.73, 1.79 20.06 C1.4 19.39, 1.07 18.67, 0.81 17.95 C0.54 17.22, 0.34 16.46, 0.2 15.7 C0.07 14.93, 0 14.15, 0 13.37 C0 12.6, 0.07 11.81, 0.2 11.05 C0.34 10.29, 0.54 9.53, 0.81 8.8 C1.07 8.07, 1.4 7.36, 1.79 6.69 C2.18 6.02, 2.63 5.37, 3.13 4.78 C3.63 4.18, 4.18 3.63, 4.78 3.13 C5.37 2.63, 6.02 2.18, 6.69 1.79 C7.36 1.4, 8.07 1.07, 8.8 0.81 C9.53 0.54, 10.29 0.34, 11.05 0.2 C11.81 0.07, 12.6 0, 13.37 0 C14.15 0, 14.93 0.07, 15.7 0.2 C16.46 0.34, 17.22 0.54, 17.95 0.81 C18.67 1.07, 19.39 1.4, 20.06 1.79 C20.73 2.18, 21.38 2.63, 21.97 3.13 C22.56 3.63, 23.12 4.18, 23.62 4.78 C24.12 5.37, 24.57 6.02, 24.96 6.69 C25.34 7.36, 25.68 8.07, 25.94 8.8 C26.2 9.53, 26.41 10.29, 26.54 11.05 C26.68 11.81, 26.71 12.99, 26.75 13.37 C26.78 13.76, 26.78 12.99, 26.75 13.37" stroke="#000000" stroke-width="4" fill="none"></path></g><g stroke-linecap="round"><g transform="translate(356.5567266772855 12.507907967497204) rotate(269.8685561241723 0.03231524157445165 13.111884023032474)"><path d="M0 0 C0.01 4.37, 0.05 21.85, 0.06 26.22 M0 0 C0.01 4.37, 0.05 21.85, 0.06 26.22" stroke="#000000" stroke-width="4" fill="none"></path></g></g><g stroke-linecap="round"><g transform="translate(486.6009858234502 12.784917127390145) rotate(269.8685561241723 0.03231524157445165 13.111884023032474)"><path d="M0 0 C0.01 4.37, 0.05 21.85, 0.06 26.22 M0 0 C0.01 4.37, 0.05 21.85, 0.06 26.22" stroke="#000000" stroke-width="4" fill="none"></path></g></g><g stroke-linecap="round" transform="translate(499 14) rotate(0 13.373374241769284 13.373374241769312)"><path d="M26.75 13.37 C26.75 14.15, 26.68 14.93, 26.54 15.7 C26.41 16.46, 26.2 17.22, 25.94 17.95 C25.68 18.67, 25.34 19.39, 24.96 20.06 C24.57 20.73, 24.12 21.38, 23.62 21.97 C23.12 22.56, 22.56 23.12, 21.97 23.62 C21.38 24.12, 20.73 24.57, 20.06 24.96 C19.39 25.34, 18.67 25.68, 17.95 25.94 C17.22 26.2, 16.46 26.41, 15.7 26.54 C14.93 26.68, 14.15 26.75, 13.37 26.75 C12.6 26.75, 11.81 26.68, 11.05 26.54 C10.29 26.41, 9.53 26.2, 8.8 25.94 C8.07 25.68, 7.36 25.34, 6.69 24.96 C6.02 24.57, 5.37 24.12, 4.78 23.62 C4.18 23.12, 3.63 22.56, 3.13 21.97 C2.63 21.38, 2.18 20.73, 1.79 20.06 C1.4 19.39, 1.07 18.67, 0.81 17.95 C0.54 17.22, 0.34 16.46, 0.2 15.7 C0.07 14.93, 0 14.15, 0 13.37 C0 12.6, 0.07 11.81, 0.2 11.05 C0.34 10.29, 0.54 9.53, 0.81 8.8 C1.07 8.07, 1.4 7.36, 1.79 6.69 C2.18 6.02, 2.63 5.37, 3.13 4.78 C3.63 4.18, 4.18 3.63, 4.78 3.13 C5.37 2.63, 6.02 2.18, 6.69 1.79 C7.36 1.4, 8.07 1.07, 8.8 0.81 C9.53 0.54, 10.29 0.34, 11.05 0.2 C11.81 0.07, 12.6 0, 13.37 0 C14.15 0, 14.93 0.07, 15.7 0.2 C16.46 0.34, 17.22 0.54, 17.95 0.81 C18.67 1.07, 19.39 1.4, 20.06 1.79 C20.73 2.18, 21.38 2.63, 21.97 3.13 C22.56 3.63, 23.12 4.18, 23.62 4.78 C24.12 5.37, 24.57 6.02, 24.96 6.69 C25.34 7.36, 25.68 8.07, 25.94 8.8 C26.2 9.53, 26.41 10.29, 26.54 11.05 C26.68 11.81, 26.71 12.99, 26.75 13.37 C26.78 13.76, 26.78 12.99, 26.75 13.37" stroke="none" stroke-width="0" fill="#228be6"></path><path d="M26.75 13.37 C26.75 14.15, 26.68 14.93, 26.54 15.7 C26.41 16.46, 26.2 17.22, 25.94 17.95 C25.68 18.67, 25.34 19.39, 24.96 20.06 C24.57 20.73, 24.12 21.38, 23.62 21.97 C23.12 22.56, 22.56 23.12, 21.97 23.62 C21.38 24.12, 20.73 24.57, 20.06 24.96 C19.39 25.34, 18.67 25.68, 17.95 25.94 C17.22 26.2, 16.46 26.41, 15.7 26.54 C14.93 26.68, 14.15 26.75, 13.37 26.75 C12.6 26.75, 11.81 26.68, 11.05 26.54 C10.29 26.41, 9.53 26.2, 8.8 25.94 C8.07 25.68, 7.36 25.34, 6.69 24.96 C6.02 24.57, 5.37 24.12, 4.78 23.62 C4.18 23.12, 3.63 22.56, 3.13 21.97 C2.63 21.38, 2.18 20.73, 1.79 20.06 C1.4 19.39, 1.07 18.67, 0.81 17.95 C0.54 17.22, 0.34 16.46, 0.2 15.7 C0.07 14.93, 0 14.15, 0 13.37 C0 12.6, 0.07 11.81, 0.2 11.05 C0.34 10.29, 0.54 9.53, 0.81 8.8 C1.07 8.07, 1.4 7.36, 1.79 6.69 C2.18 6.02, 2.63 5.37, 3.13 4.78 C3.63 4.18, 4.18 3.63, 4.78 3.13 C5.37 2.63, 6.02 2.18, 6.69 1.79 C7.36 1.4, 8.07 1.07, 8.8 0.81 C9.53 0.54, 10.29 0.34, 11.05 0.2 C11.81 0.07, 12.6 0, 13.37 0 C14.15 0, 14.93 0.07, 15.7 0.2 C16.46 0.34, 17.22 0.54, 17.95 0.81 C18.67 1.07, 19.39 1.4, 20.06 1.79 C20.73 2.18, 21.38 2.63, 21.97 3.13 C22.56 3.63, 23.12 4.18, 23.62 4.78 C24.12 5.37, 24.57 6.02, 24.96 6.69 C25.34 7.36, 25.68 8.07, 25.94 8.8 C26.2 9.53, 26.41 10.29, 26.54 11.05 C26.68 11.81, 26.71 12.99, 26.75 13.37 C26.78 13.76, 26.78 12.99, 26.75 13.37" stroke="#000000" stroke-width="4" fill="none"></path></g><g stroke-linecap="round"><g transform="translate(539.5567266772855 13.507907967497204) rotate(269.8685561241723 0.03231524157445165 13.111884023032474)"><path d="M0 0 C0.01 4.37, 0.05 21.85, 0.06 26.22 M0 0 C0.01 4.37, 0.05 21.85, 0.06 26.22" stroke="#000000" stroke-width="4" fill="none"></path></g></g><g stroke-linecap="round"><g transform="translate(161.90099723997128 23.065146751936595) rotate(0 57.5 38.99999999999997)"><path d="M0 0 C4.4 2.87, 14.05 5.4, 26.4 17.2 C38.75 29, 59.33 60.67, 74.1 70.8 C88.87 80.93, 108.18 76.8, 115 78 M0 0 C4.4 2.87, 14.05 5.4, 26.4 17.2 C38.75 29, 59.33 60.67, 74.1 70.8 C88.87 80.93, 108.18 76.8, 115 78" stroke="#000000" stroke-width="4" fill="none"></path></g></g><g stroke-linecap="round"><g transform="translate(445.5009972399712 102.66514675193662) rotate(0 54.69999999999993 -38.00000000000006)"><path d="M0 0 C7.13 -1.2, 27.65 3.27, 42.8 -7.2 C57.95 -17.67, 79.8 -51.33, 90.9 -62.8 C102 -74.27, 106.32 -73.8, 109.4 -76 M0 0 C7.13 -1.2, 27.65 3.27, 42.8 -7.2 C57.95 -17.67, 79.8 -51.33, 90.9 -62.8 C102 -74.27, 106.32 -73.8, 109.4 -76" stroke="#000000" stroke-width="4" fill="none"></path></g></g><g transform="translate(608.4754968144712 52.10808529487531) rotate(0 24 12)"><text x="0" y="19" font-family="Cascadia, Segoe UI Emoji" font-size="20px" fill="#c92a2a" text-anchor="start" style="white-space: pre;" direction="ltr">HEAD</text></g><g transform="translate(275.47549681447117 135.6080852948753) rotate(0 88.5 12)"><text x="0" y="19" font-family="Cascadia, Segoe UI Emoji" font-size="20px" fill="#343a40" text-anchor="start" style="white-space: pre;" direction="ltr">styles@gh-pages</text></g><g transform="translate(309.47549681447117 52.10808529487531) rotate(0 53 12)"><text x="0" y="19" font-family="Cascadia, Segoe UI Emoji" font-size="20px" fill="#364fc7" text-anchor="start" style="white-space: pre;" direction="ltr">repo@main</text></g><g stroke-linecap="round"><g transform="translate(603.8009858234507 261.28491712739026) rotate(269.8685561241723 0.03231524157445165 13.111884023032474)"><path d="M0 0 C0.01 4.37, 0.05 21.85, 0.06 26.22 M0 0 C0.01 4.37, 0.05 21.85, 0.06 26.22" stroke="#000000" stroke-width="4" fill="none"></path></g></g><g stroke-linecap="round" transform="translate(616.2000000000005 262.5000000000001) rotate(0 13.373374241769284 13.373374241769284)"><path d="M26.75 13.37 C26.75 14.15, 26.68 14.93, 26.54 15.7 C26.41 16.46, 26.2 17.22, 25.94 17.95 C25.68 18.67, 25.34 19.39, 24.96 20.06 C24.57 20.73, 24.12 21.38, 23.62 21.97 C23.12 22.56, 22.56 23.12, 21.97 23.62 C21.38 24.12, 20.73 24.57, 20.06 24.96 C19.39 25.34, 18.67 25.68, 17.95 25.94 C17.22 26.2, 16.46 26.41, 15.7 26.54 C14.93 26.68, 14.15 26.75, 13.37 26.75 C12.6 26.75, 11.81 26.68, 11.05 26.54 C10.29 26.41, 9.53 26.2, 8.8 25.94 C8.07 25.68, 7.36 25.34, 6.69 24.96 C6.02 24.57, 5.37 24.12, 4.78 23.62 C4.18 23.12, 3.63 22.56, 3.13 21.97 C2.63 21.38, 2.18 20.73, 1.79 20.06 C1.4 19.39, 1.07 18.67, 0.81 17.95 C0.54 17.22, 0.34 16.46, 0.2 15.7 C0.07 14.93, 0 14.15, 0 13.37 C0 12.6, 0.07 11.81, 0.2 11.05 C0.34 10.29, 0.54 9.53, 0.81 8.8 C1.07 8.07, 1.4 7.36, 1.79 6.69 C2.18 6.02, 2.63 5.37, 3.13 4.78 C3.63 4.18, 4.18 3.63, 4.78 3.13 C5.37 2.63, 6.02 2.18, 6.69 1.79 C7.36 1.4, 8.07 1.07, 8.8 0.81 C9.53 0.54, 10.29 0.34, 11.05 0.2 C11.81 0.07, 12.6 0, 13.37 0 C14.15 0, 14.93 0.07, 15.7 0.2 C16.46 0.34, 17.22 0.54, 17.95 0.81 C18.67 1.07, 19.39 1.4, 20.06 1.79 C20.73 2.18, 21.38 2.63, 21.97 3.13 C22.56 3.63, 23.12 4.18, 23.62 4.78 C24.12 5.37, 24.57 6.02, 24.96 6.69 C25.34 7.36, 25.68 8.07, 25.94 8.8 C26.2 9.53, 26.41 10.29, 26.54 11.05 C26.68 11.81, 26.71 12.99, 26.75 13.37 C26.78 13.76, 26.78 12.99, 26.75 13.37" stroke="none" stroke-width="0" fill="#228be6"></path><path d="M26.75 13.37 C26.75 14.15, 26.68 14.93, 26.54 15.7 C26.41 16.46, 26.2 17.22, 25.94 17.95 C25.68 18.67, 25.34 19.39, 24.96 20.06 C24.57 20.73, 24.12 21.38, 23.62 21.97 C23.12 22.56, 22.56 23.12, 21.97 23.62 C21.38 24.12, 20.73 24.57, 20.06 24.96 C19.39 25.34, 18.67 25.68, 17.95 25.94 C17.22 26.2, 16.46 26.41, 15.7 26.54 C14.93 26.68, 14.15 26.75, 13.37 26.75 C12.6 26.75, 11.81 26.68, 11.05 26.54 C10.29 26.41, 9.53 26.2, 8.8 25.94 C8.07 25.68, 7.36 25.34, 6.69 24.96 C6.02 24.57, 5.37 24.12, 4.78 23.62 C4.18 23.12, 3.63 22.56, 3.13 21.97 C2.63 21.38, 2.18 20.73, 1.79 20.06 C1.4 19.39, 1.07 18.67, 0.81 17.95 C0.54 17.22, 0.34 16.46, 0.2 15.7 C0.07 14.93, 0 14.15, 0 13.37 C0 12.6, 0.07 11.81, 0.2 11.05 C0.34 10.29, 0.54 9.53, 0.81 8.8 C1.07 8.07, 1.4 7.36, 1.79 6.69 C2.18 6.02, 2.63 5.37, 3.13 4.78 C3.63 4.18, 4.18 3.63, 4.78 3.13 C5.37 2.63, 6.02 2.18, 6.69 1.79 C7.36 1.4, 8.07 1.07, 8.8 0.81 C9.53 0.54, 10.29 0.34, 11.05 0.2 C11.81 0.07, 12.6 0, 13.37 0 C14.15 0, 14.93 0.07, 15.7 0.2 C16.46 0.34, 17.22 0.54, 17.95 0.81 C18.67 1.07, 19.39 1.4, 20.06 1.79 C20.73 2.18, 21.38 2.63, 21.97 3.13 C22.56 3.63, 23.12 4.18, 23.62 4.78 C24.12 5.37, 24.57 6.02, 24.96 6.69 C25.34 7.36, 25.68 8.07, 25.94 8.8 C26.2 9.53, 26.41 10.29, 26.54 11.05 C26.68 11.81, 26.71 12.99, 26.75 13.37 C26.78 13.76, 26.78 12.99, 26.75 13.37" stroke="#000000" stroke-width="4" fill="none"></path></g><g stroke-linecap="round"><g transform="translate(656.756726677286 262.0079079674973) rotate(269.8685561241723 0.03231524157445165 13.111884023032474)"><path d="M0 0 C0.01 4.37, 0.05 21.85, 0.06 26.22 M0 0 C0.01 4.37, 0.05 21.85, 0.06 26.22" stroke="#000000" stroke-width="4" fill="none"></path></g></g><g stroke-linecap="round"><g transform="translate(660.8009858234507 262.28491712739026) rotate(269.8685561241723 0.03231524157445165 13.111884023032474)"><path d="M0 0 C0.01 4.37, 0.05 21.85, 0.06 26.22 M0 0 C0.01 4.37, 0.05 21.85, 0.06 26.22" stroke="#000000" stroke-width="4" fill="none"></path></g></g><g stroke-linecap="round" transform="translate(673.2000000000005 263.5000000000001) rotate(0 13.373374241769284 13.373374241769284)"><path d="M26.75 13.37 C26.75 14.15, 26.68 14.93, 26.54 15.7 C26.41 16.46, 26.2 17.22, 25.94 17.95 C25.68 18.67, 25.34 19.39, 24.96 20.06 C24.57 20.73, 24.12 21.38, 23.62 21.97 C23.12 22.56, 22.56 23.12, 21.97 23.62 C21.38 24.12, 20.73 24.57, 20.06 24.96 C19.39 25.34, 18.67 25.68, 17.95 25.94 C17.22 26.2, 16.46 26.41, 15.7 26.54 C14.93 26.68, 14.15 26.75, 13.37 26.75 C12.6 26.75, 11.81 26.68, 11.05 26.54 C10.29 26.41, 9.53 26.2, 8.8 25.94 C8.07 25.68, 7.36 25.34, 6.69 24.96 C6.02 24.57, 5.37 24.12, 4.78 23.62 C4.18 23.12, 3.63 22.56, 3.13 21.97 C2.63 21.38, 2.18 20.73, 1.79 20.06 C1.4 19.39, 1.07 18.67, 0.81 17.95 C0.54 17.22, 0.34 16.46, 0.2 15.7 C0.07 14.93, 0 14.15, 0 13.37 C0 12.6, 0.07 11.81, 0.2 11.05 C0.34 10.29, 0.54 9.53, 0.81 8.8 C1.07 8.07, 1.4 7.36, 1.79 6.69 C2.18 6.02, 2.63 5.37, 3.13 4.78 C3.63 4.18, 4.18 3.63, 4.78 3.13 C5.37 2.63, 6.02 2.18, 6.69 1.79 C7.36 1.4, 8.07 1.07, 8.8 0.81 C9.53 0.54, 10.29 0.34, 11.05 0.2 C11.81 0.07, 12.6 0, 13.37 0 C14.15 0, 14.93 0.07, 15.7 0.2 C16.46 0.34, 17.22 0.54, 17.95 0.81 C18.67 1.07, 19.39 1.4, 20.06 1.79 C20.73 2.18, 21.38 2.63, 21.97 3.13 C22.56 3.63, 23.12 4.18, 23.62 4.78 C24.12 5.37, 24.57 6.02, 24.96 6.69 C25.34 7.36, 25.68 8.07, 25.94 8.8 C26.2 9.53, 26.41 10.29, 26.54 11.05 C26.68 11.81, 26.71 12.99, 26.75 13.37 C26.78 13.76, 26.78 12.99, 26.75 13.37" stroke="none" stroke-width="0" fill="#fab005"></path><path d="M26.75 13.37 C26.75 14.15, 26.68 14.93, 26.54 15.7 C26.41 16.46, 26.2 17.22, 25.94 17.95 C25.68 18.67, 25.34 19.39, 24.96 20.06 C24.57 20.73, 24.12 21.38, 23.62 21.97 C23.12 22.56, 22.56 23.12, 21.97 23.62 C21.38 24.12, 20.73 24.57, 20.06 24.96 C19.39 25.34, 18.67 25.68, 17.95 25.94 C17.22 26.2, 16.46 26.41, 15.7 26.54 C14.93 26.68, 14.15 26.75, 13.37 26.75 C12.6 26.75, 11.81 26.68, 11.05 26.54 C10.29 26.41, 9.53 26.2, 8.8 25.94 C8.07 25.68, 7.36 25.34, 6.69 24.96 C6.02 24.57, 5.37 24.12, 4.78 23.62 C4.18 23.12, 3.63 22.56, 3.13 21.97 C2.63 21.38, 2.18 20.73, 1.79 20.06 C1.4 19.39, 1.07 18.67, 0.81 17.95 C0.54 17.22, 0.34 16.46, 0.2 15.7 C0.07 14.93, 0 14.15, 0 13.37 C0 12.6, 0.07 11.81, 0.2 11.05 C0.34 10.29, 0.54 9.53, 0.81 8.8 C1.07 8.07, 1.4 7.36, 1.79 6.69 C2.18 6.02, 2.63 5.37, 3.13 4.78 C3.63 4.18, 4.18 3.63, 4.78 3.13 C5.37 2.63, 6.02 2.18, 6.69 1.79 C7.36 1.4, 8.07 1.07, 8.8 0.81 C9.53 0.54, 10.29 0.34, 11.05 0.2 C11.81 0.07, 12.6 0, 13.37 0 C14.15 0, 14.93 0.07, 15.7 0.2 C16.46 0.34, 17.22 0.54, 17.95 0.81 C18.67 1.07, 19.39 1.4, 20.06 1.79 C20.73 2.18, 21.38 2.63, 21.97 3.13 C22.56 3.63, 23.12 4.18, 23.62 4.78 C24.12 5.37, 24.57 6.02, 24.96 6.69 C25.34 7.36, 25.68 8.07, 25.94 8.8 C26.2 9.53, 26.41 10.29, 26.54 11.05 C26.68 11.81, 26.71 12.99, 26.75 13.37 C26.78 13.76, 26.78 12.99, 26.75 13.37" stroke="#000000" stroke-width="4" fill="none"></path></g><g stroke-linecap="round"><g transform="translate(713.756726677286 263.0079079674973) rotate(269.8685561241723 0.03231524157445165 13.111884023032474)"><path d="M0 0 C0.01 4.37, 0.05 21.85, 0.06 26.22 M0 0 C0.01 4.37, 0.05 21.85, 0.06 26.22" stroke="#000000" stroke-width="4" fill="none"></path></g></g><g stroke-linecap="round"><g transform="translate(719.8009858234507 263.28491712739026) rotate(269.8685561241723 0.03231524157445165 13.111884023032474)"><path d="M0 0 C0.01 4.37, 0.05 21.85, 0.06 26.22 M0 0 C0.01 4.37, 0.05 21.85, 0.06 26.22" stroke="#000000" stroke-width="4" fill="none"></path></g></g><g stroke-linecap="round" transform="translate(732.2000000000005 264.5000000000001) rotate(0 13.373374241769284 13.373374241769284)"><path d="M26.75 13.37 C26.75 14.15, 26.68 14.93, 26.54 15.7 C26.41 16.46, 26.2 17.22, 25.94 17.95 C25.68 18.67, 25.34 19.39, 24.96 20.06 C24.57 20.73, 24.12 21.38, 23.62 21.97 C23.12 22.56, 22.56 23.12, 21.97 23.62 C21.38 24.12, 20.73 24.57, 20.06 24.96 C19.39 25.34, 18.67 25.68, 17.95 25.94 C17.22 26.2, 16.46 26.41, 15.7 26.54 C14.93 26.68, 14.15 26.75, 13.37 26.75 C12.6 26.75, 11.81 26.68, 11.05 26.54 C10.29 26.41, 9.53 26.2, 8.8 25.94 C8.07 25.68, 7.36 25.34, 6.69 24.96 C6.02 24.57, 5.37 24.12, 4.78 23.62 C4.18 23.12, 3.63 22.56, 3.13 21.97 C2.63 21.38, 2.18 20.73, 1.79 20.06 C1.4 19.39, 1.07 18.67, 0.81 17.95 C0.54 17.22, 0.34 16.46, 0.2 15.7 C0.07 14.93, 0 14.15, 0 13.37 C0 12.6, 0.07 11.81, 0.2 11.05 C0.34 10.29, 0.54 9.53, 0.81 8.8 C1.07 8.07, 1.4 7.36, 1.79 6.69 C2.18 6.02, 2.63 5.37, 3.13 4.78 C3.63 4.18, 4.18 3.63, 4.78 3.13 C5.37 2.63, 6.02 2.18, 6.69 1.79 C7.36 1.4, 8.07 1.07, 8.8 0.81 C9.53 0.54, 10.29 0.34, 11.05 0.2 C11.81 0.07, 12.6 0, 13.37 0 C14.15 0, 14.93 0.07, 15.7 0.2 C16.46 0.34, 17.22 0.54, 17.95 0.81 C18.67 1.07, 19.39 1.4, 20.06 1.79 C20.73 2.18, 21.38 2.63, 21.97 3.13 C22.56 3.63, 23.12 4.18, 23.62 4.78 C24.12 5.37, 24.57 6.02, 24.96 6.69 C25.34 7.36, 25.68 8.07, 25.94 8.8 C26.2 9.53, 26.41 10.29, 26.54 11.05 C26.68 11.81, 26.71 12.99, 26.75 13.37 C26.78 13.76, 26.78 12.99, 26.75 13.37" stroke="none" stroke-width="0" fill="#fab005"></path><path d="M26.75 13.37 C26.75 14.15, 26.68 14.93, 26.54 15.7 C26.41 16.46, 26.2 17.22, 25.94 17.95 C25.68 18.67, 25.34 19.39, 24.96 20.06 C24.57 20.73, 24.12 21.38, 23.62 21.97 C23.12 22.56, 22.56 23.12, 21.97 23.62 C21.38 24.12, 20.73 24.57, 20.06 24.96 C19.39 25.34, 18.67 25.68, 17.95 25.94 C17.22 26.2, 16.46 26.41, 15.7 26.54 C14.93 26.68, 14.15 26.75, 13.37 26.75 C12.6 26.75, 11.81 26.68, 11.05 26.54 C10.29 26.41, 9.53 26.2, 8.8 25.94 C8.07 25.68, 7.36 25.34, 6.69 24.96 C6.02 24.57, 5.37 24.12, 4.78 23.62 C4.18 23.12, 3.63 22.56, 3.13 21.97 C2.63 21.38, 2.18 20.73, 1.79 20.06 C1.4 19.39, 1.07 18.67, 0.81 17.95 C0.54 17.22, 0.34 16.46, 0.2 15.7 C0.07 14.93, 0 14.15, 0 13.37 C0 12.6, 0.07 11.81, 0.2 11.05 C0.34 10.29, 0.54 9.53, 0.81 8.8 C1.07 8.07, 1.4 7.36, 1.79 6.69 C2.18 6.02, 2.63 5.37, 3.13 4.78 C3.63 4.18, 4.18 3.63, 4.78 3.13 C5.37 2.63, 6.02 2.18, 6.69 1.79 C7.36 1.4, 8.07 1.07, 8.8 0.81 C9.53 0.54, 10.29 0.34, 11.05 0.2 C11.81 0.07, 12.6 0, 13.37 0 C14.15 0, 14.93 0.07, 15.7 0.2 C16.46 0.34, 17.22 0.54, 17.95 0.81 C18.67 1.07, 19.39 1.4, 20.06 1.79 C20.73 2.18, 21.38 2.63, 21.97 3.13 C22.56 3.63, 23.12 4.18, 23.62 4.78 C24.12 5.37, 24.57 6.02, 24.96 6.69 C25.34 7.36, 25.68 8.07, 25.94 8.8 C26.2 9.53, 26.41 10.29, 26.54 11.05 C26.68 11.81, 26.71 12.99, 26.75 13.37 C26.78 13.76, 26.78 12.99, 26.75 13.37" stroke="#c92a2a" stroke-width="4" fill="none"></path></g><g stroke-linecap="round" transform="translate(195.33333333333303 260.5000000000001) rotate(0 13.373374241769284 13.373374241769284)"><path d="M26.75 13.37 C26.75 14.15, 26.68 14.93, 26.54 15.7 C26.41 16.46, 26.2 17.22, 25.94 17.95 C25.68 18.67, 25.34 19.39, 24.96 20.06 C24.57 20.73, 24.12 21.38, 23.62 21.97 C23.12 22.56, 22.56 23.12, 21.97 23.62 C21.38 24.12, 20.73 24.57, 20.06 24.96 C19.39 25.34, 18.67 25.68, 17.95 25.94 C17.22 26.2, 16.46 26.41, 15.7 26.54 C14.93 26.68, 14.15 26.75, 13.37 26.75 C12.6 26.75, 11.81 26.68, 11.05 26.54 C10.29 26.41, 9.53 26.2, 8.8 25.94 C8.07 25.68, 7.36 25.34, 6.69 24.96 C6.02 24.57, 5.37 24.12, 4.78 23.62 C4.18 23.12, 3.63 22.56, 3.13 21.97 C2.63 21.38, 2.18 20.73, 1.79 20.06 C1.4 19.39, 1.07 18.67, 0.81 17.95 C0.54 17.22, 0.34 16.46, 0.2 15.7 C0.07 14.93, 0 14.15, 0 13.37 C0 12.6, 0.07 11.81, 0.2 11.05 C0.34 10.29, 0.54 9.53, 0.81 8.8 C1.07 8.07, 1.4 7.36, 1.79 6.69 C2.18 6.02, 2.63 5.37, 3.13 4.78 C3.63 4.18, 4.18 3.63, 4.78 3.13 C5.37 2.63, 6.02 2.18, 6.69 1.79 C7.36 1.4, 8.07 1.07, 8.8 0.81 C9.53 0.54, 10.29 0.34, 11.05 0.2 C11.81 0.07, 12.6 0, 13.37 0 C14.15 0, 14.93 0.07, 15.7 0.2 C16.46 0.34, 17.22 0.54, 17.95 0.81 C18.67 1.07, 19.39 1.4, 20.06 1.79 C20.73 2.18, 21.38 2.63, 21.97 3.13 C22.56 3.63, 23.12 4.18, 23.62 4.78 C24.12 5.37, 24.57 6.02, 24.96 6.69 C25.34 7.36, 25.68 8.07, 25.94 8.8 C26.2 9.53, 26.41 10.29, 26.54 11.05 C26.68 11.81, 26.71 12.99, 26.75 13.37 C26.78 13.76, 26.78 12.99, 26.75 13.37" stroke="none" stroke-width="0" fill="#228be6"></path><path d="M26.75 13.37 C26.75 14.15, 26.68 14.93, 26.54 15.7 C26.41 16.46, 26.2 17.22, 25.94 17.95 C25.68 18.67, 25.34 19.39, 24.96 20.06 C24.57 20.73, 24.12 21.38, 23.62 21.97 C23.12 22.56, 22.56 23.12, 21.97 23.62 C21.38 24.12, 20.73 24.57, 20.06 24.96 C19.39 25.34, 18.67 25.68, 17.95 25.94 C17.22 26.2, 16.46 26.41, 15.7 26.54 C14.93 26.68, 14.15 26.75, 13.37 26.75 C12.6 26.75, 11.81 26.68, 11.05 26.54 C10.29 26.41, 9.53 26.2, 8.8 25.94 C8.07 25.68, 7.36 25.34, 6.69 24.96 C6.02 24.57, 5.37 24.12, 4.78 23.62 C4.18 23.12, 3.63 22.56, 3.13 21.97 C2.63 21.38, 2.18 20.73, 1.79 20.06 C1.4 19.39, 1.07 18.67, 0.81 17.95 C0.54 17.22, 0.34 16.46, 0.2 15.7 C0.07 14.93, 0 14.15, 0 13.37 C0 12.6, 0.07 11.81, 0.2 11.05 C0.34 10.29, 0.54 9.53, 0.81 8.8 C1.07 8.07, 1.4 7.36, 1.79 6.69 C2.18 6.02, 2.63 5.37, 3.13 4.78 C3.63 4.18, 4.18 3.63, 4.78 3.13 C5.37 2.63, 6.02 2.18, 6.69 1.79 C7.36 1.4, 8.07 1.07, 8.8 0.81 C9.53 0.54, 10.29 0.34, 11.05 0.2 C11.81 0.07, 12.6 0, 13.37 0 C14.15 0, 14.93 0.07, 15.7 0.2 C16.46 0.34, 17.22 0.54, 17.95 0.81 C18.67 1.07, 19.39 1.4, 20.06 1.79 C20.73 2.18, 21.38 2.63, 21.97 3.13 C22.56 3.63, 23.12 4.18, 23.62 4.78 C24.12 5.37, 24.57 6.02, 24.96 6.69 C25.34 7.36, 25.68 8.07, 25.94 8.8 C26.2 9.53, 26.41 10.29, 26.54 11.05 C26.68 11.81, 26.71 12.99, 26.75 13.37 C26.78 13.76, 26.78 12.99, 26.75 13.37" stroke="#000000" stroke-width="4" fill="none"></path></g><g stroke-linecap="round"><g transform="translate(235.89006001061853 260.0079079674973) rotate(269.8685561241723 0.03231524157450849 13.111884023032474)"><path d="M0 0 C0.01 4.37, 0.05 21.85, 0.06 26.22 M0 0 C0.01 4.37, 0.05 21.85, 0.06 26.22" stroke="#000000" stroke-width="4" fill="none"></path></g></g><g stroke-linecap="round"><g transform="translate(365.9343191567832 260.2849171273904) rotate(269.8685561241723 0.03231524157445165 13.111884023032474)"><path d="M0 0 C0.01 4.37, 0.05 21.85, 0.06 26.22 M0 0 C0.01 4.37, 0.05 21.85, 0.06 26.22" stroke="#000000" stroke-width="4" fill="none"></path></g></g><g stroke-linecap="round" transform="translate(378.33333333333303 261.5000000000001) rotate(0 13.373374241769284 13.373374241769284)"><path d="M26.75 13.37 C26.75 14.15, 26.68 14.93, 26.54 15.7 C26.41 16.46, 26.2 17.22, 25.94 17.95 C25.68 18.67, 25.34 19.39, 24.96 20.06 C24.57 20.73, 24.12 21.38, 23.62 21.97 C23.12 22.56, 22.56 23.12, 21.97 23.62 C21.38 24.12, 20.73 24.57, 20.06 24.96 C19.39 25.34, 18.67 25.68, 17.95 25.94 C17.22 26.2, 16.46 26.41, 15.7 26.54 C14.93 26.68, 14.15 26.75, 13.37 26.75 C12.6 26.75, 11.81 26.68, 11.05 26.54 C10.29 26.41, 9.53 26.2, 8.8 25.94 C8.07 25.68, 7.36 25.34, 6.69 24.96 C6.02 24.57, 5.37 24.12, 4.78 23.62 C4.18 23.12, 3.63 22.56, 3.13 21.97 C2.63 21.38, 2.18 20.73, 1.79 20.06 C1.4 19.39, 1.07 18.67, 0.81 17.95 C0.54 17.22, 0.34 16.46, 0.2 15.7 C0.07 14.93, 0 14.15, 0 13.37 C0 12.6, 0.07 11.81, 0.2 11.05 C0.34 10.29, 0.54 9.53, 0.81 8.8 C1.07 8.07, 1.4 7.36, 1.79 6.69 C2.18 6.02, 2.63 5.37, 3.13 4.78 C3.63 4.18, 4.18 3.63, 4.78 3.13 C5.37 2.63, 6.02 2.18, 6.69 1.79 C7.36 1.4, 8.07 1.07, 8.8 0.81 C9.53 0.54, 10.29 0.34, 11.05 0.2 C11.81 0.07, 12.6 0, 13.37 0 C14.15 0, 14.93 0.07, 15.7 0.2 C16.46 0.34, 17.22 0.54, 17.95 0.81 C18.67 1.07, 19.39 1.4, 20.06 1.79 C20.73 2.18, 21.38 2.63, 21.97 3.13 C22.56 3.63, 23.12 4.18, 23.62 4.78 C24.12 5.37, 24.57 6.02, 24.96 6.69 C25.34 7.36, 25.68 8.07, 25.94 8.8 C26.2 9.53, 26.41 10.29, 26.54 11.05 C26.68 11.81, 26.71 12.99, 26.75 13.37 C26.78 13.76, 26.78 12.99, 26.75 13.37" stroke="none" stroke-width="0" fill="#228be6"></path><path d="M26.75 13.37 C26.75 14.15, 26.68 14.93, 26.54 15.7 C26.41 16.46, 26.2 17.22, 25.94 17.95 C25.68 18.67, 25.34 19.39, 24.96 20.06 C24.57 20.73, 24.12 21.38, 23.62 21.97 C23.12 22.56, 22.56 23.12, 21.97 23.62 C21.38 24.12, 20.73 24.57, 20.06 24.96 C19.39 25.34, 18.67 25.68, 17.95 25.94 C17.22 26.2, 16.46 26.41, 15.7 26.54 C14.93 26.68, 14.15 26.75, 13.37 26.75 C12.6 26.75, 11.81 26.68, 11.05 26.54 C10.29 26.41, 9.53 26.2, 8.8 25.94 C8.07 25.68, 7.36 25.34, 6.69 24.96 C6.02 24.57, 5.37 24.12, 4.78 23.62 C4.18 23.12, 3.63 22.56, 3.13 21.97 C2.63 21.38, 2.18 20.73, 1.79 20.06 C1.4 19.39, 1.07 18.67, 0.81 17.95 C0.54 17.22, 0.34 16.46, 0.2 15.7 C0.07 14.93, 0 14.15, 0 13.37 C0 12.6, 0.07 11.81, 0.2 11.05 C0.34 10.29, 0.54 9.53, 0.81 8.8 C1.07 8.07, 1.4 7.36, 1.79 6.69 C2.18 6.02, 2.63 5.37, 3.13 4.78 C3.63 4.18, 4.18 3.63, 4.78 3.13 C5.37 2.63, 6.02 2.18, 6.69 1.79 C7.36 1.4, 8.07 1.07, 8.8 0.81 C9.53 0.54, 10.29 0.34, 11.05 0.2 C11.81 0.07, 12.6 0, 13.37 0 C14.15 0, 14.93 0.07, 15.7 0.2 C16.46 0.34, 17.22 0.54, 17.95 0.81 C18.67 1.07, 19.39 1.4, 20.06 1.79 C20.73 2.18, 21.38 2.63, 21.97 3.13 C22.56 3.63, 23.12 4.18, 23.62 4.78 C24.12 5.37, 24.57 6.02, 24.96 6.69 C25.34 7.36, 25.68 8.07, 25.94 8.8 C26.2 9.53, 26.41 10.29, 26.54 11.05 C26.68 11.81, 26.71 12.99, 26.75 13.37 C26.78 13.76, 26.78 12.99, 26.75 13.37" stroke="#000000" stroke-width="4" fill="none"></path></g><g stroke-linecap="round"><g transform="translate(418.8900600106185 261.0079079674973) rotate(269.8685561241723 0.03231524157445165 13.111884023032474)"><path d="M0 0 C0.01 4.37, 0.05 21.85, 0.06 26.22 M0 0 C0.01 4.37, 0.05 21.85, 0.06 26.22" stroke="#000000" stroke-width="4" fill="none"></path></g></g><g stroke-linecap="round"><g transform="translate(245.9343191567832 260.2849171273904) rotate(269.8685561241723 0.03231524157450849 13.111884023032474)"><path d="M0 0 C0.01 4.37, 0.05 21.85, 0.06 26.22 M0 0 C0.01 4.37, 0.05 21.85, 0.06 26.22" stroke="#000000" stroke-width="4" fill="none"></path></g></g><g stroke-linecap="round" transform="translate(258.33333333333303 261.5000000000001) rotate(0 13.373374241769284 13.373374241769284)"><path d="M26.75 13.37 C26.75 14.15, 26.68 14.93, 26.54 15.7 C26.41 16.46, 26.2 17.22, 25.94 17.95 C25.68 18.67, 25.34 19.39, 24.96 20.06 C24.57 20.73, 24.12 21.38, 23.62 21.97 C23.12 22.56, 22.56 23.12, 21.97 23.62 C21.38 24.12, 20.73 24.57, 20.06 24.96 C19.39 25.34, 18.67 25.68, 17.95 25.94 C17.22 26.2, 16.46 26.41, 15.7 26.54 C14.93 26.68, 14.15 26.75, 13.37 26.75 C12.6 26.75, 11.81 26.68, 11.05 26.54 C10.29 26.41, 9.53 26.2, 8.8 25.94 C8.07 25.68, 7.36 25.34, 6.69 24.96 C6.02 24.57, 5.37 24.12, 4.78 23.62 C4.18 23.12, 3.63 22.56, 3.13 21.97 C2.63 21.38, 2.18 20.73, 1.79 20.06 C1.4 19.39, 1.07 18.67, 0.81 17.95 C0.54 17.22, 0.34 16.46, 0.2 15.7 C0.07 14.93, 0 14.15, 0 13.37 C0 12.6, 0.07 11.81, 0.2 11.05 C0.34 10.29, 0.54 9.53, 0.81 8.8 C1.07 8.07, 1.4 7.36, 1.79 6.69 C2.18 6.02, 2.63 5.37, 3.13 4.78 C3.63 4.18, 4.18 3.63, 4.78 3.13 C5.37 2.63, 6.02 2.18, 6.69 1.79 C7.36 1.4, 8.07 1.07, 8.8 0.81 C9.53 0.54, 10.29 0.34, 11.05 0.2 C11.81 0.07, 12.6 0, 13.37 0 C14.15 0, 14.93 0.07, 15.7 0.2 C16.46 0.34, 17.22 0.54, 17.95 0.81 C18.67 1.07, 19.39 1.4, 20.06 1.79 C20.73 2.18, 21.38 2.63, 21.97 3.13 C22.56 3.63, 23.12 4.18, 23.62 4.78 C24.12 5.37, 24.57 6.02, 24.96 6.69 C25.34 7.36, 25.68 8.07, 25.94 8.8 C26.2 9.53, 26.41 10.29, 26.54 11.05 C26.68 11.81, 26.71 12.99, 26.75 13.37 C26.78 13.76, 26.78 12.99, 26.75 13.37" stroke="none" stroke-width="0" fill="#228be6"></path><path d="M26.75 13.37 C26.75 14.15, 26.68 14.93, 26.54 15.7 C26.41 16.46, 26.2 17.22, 25.94 17.95 C25.68 18.67, 25.34 19.39, 24.96 20.06 C24.57 20.73, 24.12 21.38, 23.62 21.97 C23.12 22.56, 22.56 23.12, 21.97 23.62 C21.38 24.12, 20.73 24.57, 20.06 24.96 C19.39 25.34, 18.67 25.68, 17.95 25.94 C17.22 26.2, 16.46 26.41, 15.7 26.54 C14.93 26.68, 14.15 26.75, 13.37 26.75 C12.6 26.75, 11.81 26.68, 11.05 26.54 C10.29 26.41, 9.53 26.2, 8.8 25.94 C8.07 25.68, 7.36 25.34, 6.69 24.96 C6.02 24.57, 5.37 24.12, 4.78 23.62 C4.18 23.12, 3.63 22.56, 3.13 21.97 C2.63 21.38, 2.18 20.73, 1.79 20.06 C1.4 19.39, 1.07 18.67, 0.81 17.95 C0.54 17.22, 0.34 16.46, 0.2 15.7 C0.07 14.93, 0 14.15, 0 13.37 C0 12.6, 0.07 11.81, 0.2 11.05 C0.34 10.29, 0.54 9.53, 0.81 8.8 C1.07 8.07, 1.4 7.36, 1.79 6.69 C2.18 6.02, 2.63 5.37, 3.13 4.78 C3.63 4.18, 4.18 3.63, 4.78 3.13 C5.37 2.63, 6.02 2.18, 6.69 1.79 C7.36 1.4, 8.07 1.07, 8.8 0.81 C9.53 0.54, 10.29 0.34, 11.05 0.2 C11.81 0.07, 12.6 0, 13.37 0 C14.15 0, 14.93 0.07, 15.7 0.2 C16.46 0.34, 17.22 0.54, 17.95 0.81 C18.67 1.07, 19.39 1.4, 20.06 1.79 C20.73 2.18, 21.38 2.63, 21.97 3.13 C22.56 3.63, 23.12 4.18, 23.62 4.78 C24.12 5.37, 24.57 6.02, 24.96 6.69 C25.34 7.36, 25.68 8.07, 25.94 8.8 C26.2 9.53, 26.41 10.29, 26.54 11.05 C26.68 11.81, 26.71 12.99, 26.75 13.37 C26.78 13.76, 26.78 12.99, 26.75 13.37" stroke="#000000" stroke-width="4" fill="none"></path></g><g stroke-linecap="round"><g transform="translate(298.8900600106185 261.0079079674973) rotate(269.8685561241723 0.03231524157450849 13.111884023032474)"><path d="M0 0 C0.01 4.37, 0.05 21.85, 0.06 26.22 M0 0 C0.01 4.37, 0.05 21.85, 0.06 26.22" stroke="#000000" stroke-width="4" fill="none"></path></g></g><g stroke-linecap="round"><g transform="translate(428.9343191567832 261.2849171273904) rotate(269.8685561241723 0.03231524157445165 13.111884023032474)"><path d="M0 0 C0.01 4.37, 0.05 21.85, 0.06 26.22 M0 0 C0.01 4.37, 0.05 21.85, 0.06 26.22" stroke="#000000" stroke-width="4" fill="none"></path></g></g><g stroke-linecap="round" transform="translate(441.33333333333303 262.5000000000001) rotate(0 13.373374241769284 13.373374241769284)"><path d="M26.75 13.37 C26.75 14.15, 26.68 14.93, 26.54 15.7 C26.41 16.46, 26.2 17.22, 25.94 17.95 C25.68 18.67, 25.34 19.39, 24.96 20.06 C24.57 20.73, 24.12 21.38, 23.62 21.97 C23.12 22.56, 22.56 23.12, 21.97 23.62 C21.38 24.12, 20.73 24.57, 20.06 24.96 C19.39 25.34, 18.67 25.68, 17.95 25.94 C17.22 26.2, 16.46 26.41, 15.7 26.54 C14.93 26.68, 14.15 26.75, 13.37 26.75 C12.6 26.75, 11.81 26.68, 11.05 26.54 C10.29 26.41, 9.53 26.2, 8.8 25.94 C8.07 25.68, 7.36 25.34, 6.69 24.96 C6.02 24.57, 5.37 24.12, 4.78 23.62 C4.18 23.12, 3.63 22.56, 3.13 21.97 C2.63 21.38, 2.18 20.73, 1.79 20.06 C1.4 19.39, 1.07 18.67, 0.81 17.95 C0.54 17.22, 0.34 16.46, 0.2 15.7 C0.07 14.93, 0 14.15, 0 13.37 C0 12.6, 0.07 11.81, 0.2 11.05 C0.34 10.29, 0.54 9.53, 0.81 8.8 C1.07 8.07, 1.4 7.36, 1.79 6.69 C2.18 6.02, 2.63 5.37, 3.13 4.78 C3.63 4.18, 4.18 3.63, 4.78 3.13 C5.37 2.63, 6.02 2.18, 6.69 1.79 C7.36 1.4, 8.07 1.07, 8.8 0.81 C9.53 0.54, 10.29 0.34, 11.05 0.2 C11.81 0.07, 12.6 0, 13.37 0 C14.15 0, 14.93 0.07, 15.7 0.2 C16.46 0.34, 17.22 0.54, 17.95 0.81 C18.67 1.07, 19.39 1.4, 20.06 1.79 C20.73 2.18, 21.38 2.63, 21.97 3.13 C22.56 3.63, 23.12 4.18, 23.62 4.78 C24.12 5.37, 24.57 6.02, 24.96 6.69 C25.34 7.36, 25.68 8.07, 25.94 8.8 C26.2 9.53, 26.41 10.29, 26.54 11.05 C26.68 11.81, 26.71 12.99, 26.75 13.37 C26.78 13.76, 26.78 12.99, 26.75 13.37" stroke="none" stroke-width="0" fill="#228be6"></path><path d="M26.75 13.37 C26.75 14.15, 26.68 14.93, 26.54 15.7 C26.41 16.46, 26.2 17.22, 25.94 17.95 C25.68 18.67, 25.34 19.39, 24.96 20.06 C24.57 20.73, 24.12 21.38, 23.62 21.97 C23.12 22.56, 22.56 23.12, 21.97 23.62 C21.38 24.12, 20.73 24.57, 20.06 24.96 C19.39 25.34, 18.67 25.68, 17.95 25.94 C17.22 26.2, 16.46 26.41, 15.7 26.54 C14.93 26.68, 14.15 26.75, 13.37 26.75 C12.6 26.75, 11.81 26.68, 11.05 26.54 C10.29 26.41, 9.53 26.2, 8.8 25.94 C8.07 25.68, 7.36 25.34, 6.69 24.96 C6.02 24.57, 5.37 24.12, 4.78 23.62 C4.18 23.12, 3.63 22.56, 3.13 21.97 C2.63 21.38, 2.18 20.73, 1.79 20.06 C1.4 19.39, 1.07 18.67, 0.81 17.95 C0.54 17.22, 0.34 16.46, 0.2 15.7 C0.07 14.93, 0 14.15, 0 13.37 C0 12.6, 0.07 11.81, 0.2 11.05 C0.34 10.29, 0.54 9.53, 0.81 8.8 C1.07 8.07, 1.4 7.36, 1.79 6.69 C2.18 6.02, 2.63 5.37, 3.13 4.78 C3.63 4.18, 4.18 3.63, 4.78 3.13 C5.37 2.63, 6.02 2.18, 6.69 1.79 C7.36 1.4, 8.07 1.07, 8.8 0.81 C9.53 0.54, 10.29 0.34, 11.05 0.2 C11.81 0.07, 12.6 0, 13.37 0 C14.15 0, 14.93 0.07, 15.7 0.2 C16.46 0.34, 17.22 0.54, 17.95 0.81 C18.67 1.07, 19.39 1.4, 20.06 1.79 C20.73 2.18, 21.38 2.63, 21.97 3.13 C22.56 3.63, 23.12 4.18, 23.62 4.78 C24.12 5.37, 24.57 6.02, 24.96 6.69 C25.34 7.36, 25.68 8.07, 25.94 8.8 C26.2 9.53, 26.41 10.29, 26.54 11.05 C26.68 11.81, 26.71 12.99, 26.75 13.37 C26.78 13.76, 26.78 12.99, 26.75 13.37" stroke="#000000" stroke-width="4" fill="none"></path></g><g stroke-linecap="round"><g transform="translate(481.890060010619 262.0079079674973) rotate(269.8685561241723 0.03231524157445165 13.111884023032474)"><path d="M0 0 C0.01 4.37, 0.05 21.85, 0.06 26.22 M0 0 C0.01 4.37, 0.05 21.85, 0.06 26.22" stroke="#000000" stroke-width="4" fill="none"></path></g></g><g stroke-linecap="round"><g transform="translate(305.9343191567832 260.2849171273904) rotate(269.8685561241723 0.03231524157450849 13.111884023032474)"><path d="M0 0 C0.01 4.37, 0.05 21.85, 0.06 26.22 M0 0 C0.01 4.37, 0.05 21.85, 0.06 26.22" stroke="#000000" stroke-width="4" fill="none"></path></g></g><g stroke-linecap="round" transform="translate(318.33333333333303 261.5000000000001) rotate(0 13.373374241769284 13.373374241769284)"><path d="M26.75 13.37 C26.75 14.15, 26.68 14.93, 26.54 15.7 C26.41 16.46, 26.2 17.22, 25.94 17.95 C25.68 18.67, 25.34 19.39, 24.96 20.06 C24.57 20.73, 24.12 21.38, 23.62 21.97 C23.12 22.56, 22.56 23.12, 21.97 23.62 C21.38 24.12, 20.73 24.57, 20.06 24.96 C19.39 25.34, 18.67 25.68, 17.95 25.94 C17.22 26.2, 16.46 26.41, 15.7 26.54 C14.93 26.68, 14.15 26.75, 13.37 26.75 C12.6 26.75, 11.81 26.68, 11.05 26.54 C10.29 26.41, 9.53 26.2, 8.8 25.94 C8.07 25.68, 7.36 25.34, 6.69 24.96 C6.02 24.57, 5.37 24.12, 4.78 23.62 C4.18 23.12, 3.63 22.56, 3.13 21.97 C2.63 21.38, 2.18 20.73, 1.79 20.06 C1.4 19.39, 1.07 18.67, 0.81 17.95 C0.54 17.22, 0.34 16.46, 0.2 15.7 C0.07 14.93, 0 14.15, 0 13.37 C0 12.6, 0.07 11.81, 0.2 11.05 C0.34 10.29, 0.54 9.53, 0.81 8.8 C1.07 8.07, 1.4 7.36, 1.79 6.69 C2.18 6.02, 2.63 5.37, 3.13 4.78 C3.63 4.18, 4.18 3.63, 4.78 3.13 C5.37 2.63, 6.02 2.18, 6.69 1.79 C7.36 1.4, 8.07 1.07, 8.8 0.81 C9.53 0.54, 10.29 0.34, 11.05 0.2 C11.81 0.07, 12.6 0, 13.37 0 C14.15 0, 14.93 0.07, 15.7 0.2 C16.46 0.34, 17.22 0.54, 17.95 0.81 C18.67 1.07, 19.39 1.4, 20.06 1.79 C20.73 2.18, 21.38 2.63, 21.97 3.13 C22.56 3.63, 23.12 4.18, 23.62 4.78 C24.12 5.37, 24.57 6.02, 24.96 6.69 C25.34 7.36, 25.68 8.07, 25.94 8.8 C26.2 9.53, 26.41 10.29, 26.54 11.05 C26.68 11.81, 26.71 12.99, 26.75 13.37 C26.78 13.76, 26.78 12.99, 26.75 13.37" stroke="none" stroke-width="0" fill="#228be6"></path><path d="M26.75 13.37 C26.75 14.15, 26.68 14.93, 26.54 15.7 C26.41 16.46, 26.2 17.22, 25.94 17.95 C25.68 18.67, 25.34 19.39, 24.96 20.06 C24.57 20.73, 24.12 21.38, 23.62 21.97 C23.12 22.56, 22.56 23.12, 21.97 23.62 C21.38 24.12, 20.73 24.57, 20.06 24.96 C19.39 25.34, 18.67 25.68, 17.95 25.94 C17.22 26.2, 16.46 26.41, 15.7 26.54 C14.93 26.68, 14.15 26.75, 13.37 26.75 C12.6 26.75, 11.81 26.68, 11.05 26.54 C10.29 26.41, 9.53 26.2, 8.8 25.94 C8.07 25.68, 7.36 25.34, 6.69 24.96 C6.02 24.57, 5.37 24.12, 4.78 23.62 C4.18 23.12, 3.63 22.56, 3.13 21.97 C2.63 21.38, 2.18 20.73, 1.79 20.06 C1.4 19.39, 1.07 18.67, 0.81 17.95 C0.54 17.22, 0.34 16.46, 0.2 15.7 C0.07 14.93, 0 14.15, 0 13.37 C0 12.6, 0.07 11.81, 0.2 11.05 C0.34 10.29, 0.54 9.53, 0.81 8.8 C1.07 8.07, 1.4 7.36, 1.79 6.69 C2.18 6.02, 2.63 5.37, 3.13 4.78 C3.63 4.18, 4.18 3.63, 4.78 3.13 C5.37 2.63, 6.02 2.18, 6.69 1.79 C7.36 1.4, 8.07 1.07, 8.8 0.81 C9.53 0.54, 10.29 0.34, 11.05 0.2 C11.81 0.07, 12.6 0, 13.37 0 C14.15 0, 14.93 0.07, 15.7 0.2 C16.46 0.34, 17.22 0.54, 17.95 0.81 C18.67 1.07, 19.39 1.4, 20.06 1.79 C20.73 2.18, 21.38 2.63, 21.97 3.13 C22.56 3.63, 23.12 4.18, 23.62 4.78 C24.12 5.37, 24.57 6.02, 24.96 6.69 C25.34 7.36, 25.68 8.07, 25.94 8.8 C26.2 9.53, 26.41 10.29, 26.54 11.05 C26.68 11.81, 26.71 12.99, 26.75 13.37 C26.78 13.76, 26.78 12.99, 26.75 13.37" stroke="#000000" stroke-width="4" fill="none"></path></g><g stroke-linecap="round"><g transform="translate(358.8900600106185 261.0079079674973) rotate(269.8685561241723 0.03231524157445165 13.111884023032474)"><path d="M0 0 C0.01 4.37, 0.05 21.85, 0.06 26.22 M0 0 C0.01 4.37, 0.05 21.85, 0.06 26.22" stroke="#000000" stroke-width="4" fill="none"></path></g></g><g stroke-linecap="round"><g transform="translate(488.93431915678366 261.2849171273904) rotate(269.8685561241723 0.03231524157445165 13.111884023032474)"><path d="M0 0 C0.01 4.37, 0.05 21.85, 0.06 26.22 M0 0 C0.01 4.37, 0.05 21.85, 0.06 26.22" stroke="#000000" stroke-width="4" fill="none"></path></g></g><g stroke-linecap="round" transform="translate(501.3333333333335 262.5000000000001) rotate(0 13.373374241769284 13.373374241769284)"><path d="M26.75 13.37 C26.75 14.15, 26.68 14.93, 26.54 15.7 C26.41 16.46, 26.2 17.22, 25.94 17.95 C25.68 18.67, 25.34 19.39, 24.96 20.06 C24.57 20.73, 24.12 21.38, 23.62 21.97 C23.12 22.56, 22.56 23.12, 21.97 23.62 C21.38 24.12, 20.73 24.57, 20.06 24.96 C19.39 25.34, 18.67 25.68, 17.95 25.94 C17.22 26.2, 16.46 26.41, 15.7 26.54 C14.93 26.68, 14.15 26.75, 13.37 26.75 C12.6 26.75, 11.81 26.68, 11.05 26.54 C10.29 26.41, 9.53 26.2, 8.8 25.94 C8.07 25.68, 7.36 25.34, 6.69 24.96 C6.02 24.57, 5.37 24.12, 4.78 23.62 C4.18 23.12, 3.63 22.56, 3.13 21.97 C2.63 21.38, 2.18 20.73, 1.79 20.06 C1.4 19.39, 1.07 18.67, 0.81 17.95 C0.54 17.22, 0.34 16.46, 0.2 15.7 C0.07 14.93, 0 14.15, 0 13.37 C0 12.6, 0.07 11.81, 0.2 11.05 C0.34 10.29, 0.54 9.53, 0.81 8.8 C1.07 8.07, 1.4 7.36, 1.79 6.69 C2.18 6.02, 2.63 5.37, 3.13 4.78 C3.63 4.18, 4.18 3.63, 4.78 3.13 C5.37 2.63, 6.02 2.18, 6.69 1.79 C7.36 1.4, 8.07 1.07, 8.8 0.81 C9.53 0.54, 10.29 0.34, 11.05 0.2 C11.81 0.07, 12.6 0, 13.37 0 C14.15 0, 14.93 0.07, 15.7 0.2 C16.46 0.34, 17.22 0.54, 17.95 0.81 C18.67 1.07, 19.39 1.4, 20.06 1.79 C20.73 2.18, 21.38 2.63, 21.97 3.13 C22.56 3.63, 23.12 4.18, 23.62 4.78 C24.12 5.37, 24.57 6.02, 24.96 6.69 C25.34 7.36, 25.68 8.07, 25.94 8.8 C26.2 9.53, 26.41 10.29, 26.54 11.05 C26.68 11.81, 26.71 12.99, 26.75 13.37 C26.78 13.76, 26.78 12.99, 26.75 13.37" stroke="none" stroke-width="0" fill="#228be6"></path><path d="M26.75 13.37 C26.75 14.15, 26.68 14.93, 26.54 15.7 C26.41 16.46, 26.2 17.22, 25.94 17.95 C25.68 18.67, 25.34 19.39, 24.96 20.06 C24.57 20.73, 24.12 21.38, 23.62 21.97 C23.12 22.56, 22.56 23.12, 21.97 23.62 C21.38 24.12, 20.73 24.57, 20.06 24.96 C19.39 25.34, 18.67 25.68, 17.95 25.94 C17.22 26.2, 16.46 26.41, 15.7 26.54 C14.93 26.68, 14.15 26.75, 13.37 26.75 C12.6 26.75, 11.81 26.68, 11.05 26.54 C10.29 26.41, 9.53 26.2, 8.8 25.94 C8.07 25.68, 7.36 25.34, 6.69 24.96 C6.02 24.57, 5.37 24.12, 4.78 23.62 C4.18 23.12, 3.63 22.56, 3.13 21.97 C2.63 21.38, 2.18 20.73, 1.79 20.06 C1.4 19.39, 1.07 18.67, 0.81 17.95 C0.54 17.22, 0.34 16.46, 0.2 15.7 C0.07 14.93, 0 14.15, 0 13.37 C0 12.6, 0.07 11.81, 0.2 11.05 C0.34 10.29, 0.54 9.53, 0.81 8.8 C1.07 8.07, 1.4 7.36, 1.79 6.69 C2.18 6.02, 2.63 5.37, 3.13 4.78 C3.63 4.18, 4.18 3.63, 4.78 3.13 C5.37 2.63, 6.02 2.18, 6.69 1.79 C7.36 1.4, 8.07 1.07, 8.8 0.81 C9.53 0.54, 10.29 0.34, 11.05 0.2 C11.81 0.07, 12.6 0, 13.37 0 C14.15 0, 14.93 0.07, 15.7 0.2 C16.46 0.34, 17.22 0.54, 17.95 0.81 C18.67 1.07, 19.39 1.4, 20.06 1.79 C20.73 2.18, 21.38 2.63, 21.97 3.13 C22.56 3.63, 23.12 4.18, 23.62 4.78 C24.12 5.37, 24.57 6.02, 24.96 6.69 C25.34 7.36, 25.68 8.07, 25.94 8.8 C26.2 9.53, 26.41 10.29, 26.54 11.05 C26.68 11.81, 26.71 12.99, 26.75 13.37 C26.78 13.76, 26.78 12.99, 26.75 13.37" stroke="#000000" stroke-width="4" fill="none"></path></g><g stroke-linecap="round"><g transform="translate(541.890060010619 262.0079079674973) rotate(269.8685561241723 0.03231524157445165 13.111884023032474)"><path d="M0 0 C0.01 4.37, 0.05 21.85, 0.06 26.22 M0 0 C0.01 4.37, 0.05 21.85, 0.06 26.22" stroke="#000000" stroke-width="4" fill="none"></path></g></g><g stroke-linecap="round"><g transform="translate(554.7607855997599 274.82176050855037) rotate(0 18.42592592592598 -0.18518518518516203)"><path d="M0 0 C6.14 -0.06, 30.71 -0.31, 36.85 -0.37 M0 0 C6.14 -0.06, 30.71 -0.31, 36.85 -0.37" stroke="#e67700" stroke-width="4" fill="none"></path></g></g><g transform="translate(722.4754968144712 302.1080852948753) rotate(0 24 12)"><text x="0" y="19" font-family="Cascadia, Segoe UI Emoji" font-size="20px" fill="#c92a2a" text-anchor="start" style="white-space: pre;" direction="ltr">HEAD</text></g><g transform="translate(315.47549681447117 302.1080852948753) rotate(0 53 12)"><text x="0" y="19" font-family="Cascadia, Segoe UI Emoji" font-size="20px" fill="#364fc7" text-anchor="start" style="white-space: pre;" direction="ltr">repo@main</text></g><g stroke-linecap="round"><g transform="translate(630.358178378717 84.10808529487531) rotate(0 -0.44134078212289296 79)"><path d="M0 0 C-0.15 26.33, -0.74 131.67, -0.88 158" stroke="#000000" stroke-width="4.5" fill="none" stroke-dasharray="8 12"></path></g><g transform="translate(630.358178378717 84.10808529487531) rotate(0 -0.44134078212289296 79)"><path d="M-10.99 129.75 C-8.74 136.02, -6.5 142.29, -0.88 158" stroke="#000000" stroke-width="4.5" fill="none"></path></g><g transform="translate(630.358178378717 84.10808529487531) rotate(0 -0.44134078212289296 79)"><path d="M9.54 129.87 C7.22 136.11, 4.91 142.36, -0.88 158" stroke="#000000" stroke-width="4.5" fill="none"></path></g></g><g stroke-linecap="round"><g transform="translate(204.47549681447117 80.10808529487531) rotate(0 0 79)"><path d="M0 0 C0 26.33, 0 131.67, 0 158" stroke="#000000" stroke-width="4.5" fill="none" stroke-dasharray="8 12"></path></g><g transform="translate(204.47549681447117 80.10808529487531) rotate(0 0 79)"><path d="M-10.26 129.81 C-6.88 139.1, -3.5 148.39, 0 158" stroke="#000000" stroke-width="4.5" fill="none"></path></g><g transform="translate(204.47549681447117 80.10808529487531) rotate(0 0 79)"><path d="M10.26 129.81 C6.88 139.1, 3.5 148.39, 0 158" stroke="#000000" stroke-width="4.5" fill="none"></path></g></g><g stroke-linecap="round" transform="translate(250.47549681447117 176.13544091797564) rotate(0 129 25.486322188449833)"><path d="M0 0 C0 0, 0 0, 0 0 M0 0 C0 0, 0 0, 0 0 M-0.73 6.99 C1.86 4.25, 1.77 2.45, 4.73 0.33 M-0.38 6.02 C1.95 3.71, 3.53 1.95, 4.8 0.72 M1.32 11.79 C3.62 9.78, 6.37 3.08, 9.1 -0.67 M-0.23 12.08 C2.26 9.57, 6.08 6.23, 9.86 -0.01 M-1.07 16.59 C1.66 16.44, 6.59 8.82, 15.8 1.34 M-0.34 18.66 C6.57 11.76, 10.38 5.57, 14.81 -0.09 M1.81 25.52 C7.4 15.76, 11.96 9.86, 22.17 1.05 M0.49 24.42 C5.2 17.69, 11.28 10.32, 21.19 -0.09 M0.97 31.09 C9.72 20.16, 18.22 8.95, 24.83 1.09 M0.4 29.67 C7.56 19.89, 17.26 10.58, 26.64 0.44 M0.14 37.06 C9.41 26.43, 20.75 14.11, 31.43 1.7 M-1.18 36.98 C6.05 29.46, 12.43 22.17, 32.36 -0.06 M-0.95 43.65 C8.76 32.59, 17.79 24.94, 36.04 1.58 M-0.09 41.92 C14.1 25.88, 26.5 11.44, 37.14 -0.62 M0.53 48.84 C8.13 38.29, 18.39 29.08, 41.37 -1.1 M0.12 49.82 C14.06 33.74, 27.7 16.56, 42.16 0.75 M1.99 51.78 C13.99 40.04, 25.23 28.59, 46.54 0.31 M2.18 52.79 C17.16 33.45, 32.75 16.79, 47.19 -0.45 M8.63 52.86 C18.2 40.2, 28.46 25.47, 53.32 -2.08 M6.82 53.2 C24.08 33.43, 41.73 14.39, 53.37 -0.71 M11.04 51.97 C24.28 37.71, 34.3 25.05, 57.92 -1.68 M12.87 53.44 C29.59 32.81, 47.12 12.15, 57.44 0 M16.11 52.66 C26.72 38.39, 37.12 27.3, 65.15 -0.45 M18.65 51.68 C28.77 39.65, 39.16 27.36, 64.5 0.72 M22.83 51.27 C36.4 36.59, 48.73 22.07, 68.28 0.13 M22.27 52.34 C35.12 40.42, 45.82 26.93, 68.27 0.02 M27.81 54.54 C46.43 31.19, 63.79 12.73, 75.2 0.04 M27.69 53.35 C42.46 35.79, 55.32 21.23, 73.82 0.47 M33.07 52.73 C49.49 35.59, 64.02 18.21, 80.23 1.76 M32.99 52.66 C45.27 39.05, 59.1 22.59, 79.82 -0.84 M40.3 52.53 C52.09 37.61, 64.52 22.42, 86.33 -0.82 M39.1 52.75 C54.06 34.33, 70.67 16.45, 85.32 0.21 M42.6 54.12 C59.45 34, 75.17 17.93, 88.87 -1.27 M44.05 53.09 C57.49 38.59, 70.5 22.33, 89.97 -0.77 M50.7 52.13 C60.76 40.28, 73.25 23.68, 93.88 0.24 M49.74 52.68 C64.6 33.98, 80.08 15.86, 94.78 -0.13 M52.77 52.7 C66.46 39.11, 80.3 23.02, 101.8 -1.93 M54.2 52.55 C67.43 39.14, 80.1 23.72, 100.36 0.28 M60.62 54.39 C74.11 38.96, 85 23.42, 105.72 -2 M60.27 52.21 C77.31 34.26, 93.79 15.76, 105.7 -0.37 M65.45 53.26 C82.19 30.95, 102.21 12.19, 111.12 -1.7 M65.95 52.21 C79.64 37.65, 92.05 21.81, 110.38 0.61 M72.14 51.82 C87.03 32.07, 103.82 14.28, 117.52 -0.53 M71.07 52.62 C79.93 41.17, 90.37 28.34, 116.69 0.67 M74.97 52.07 C86.88 39.82, 98.43 25.98, 121.44 1.45 M75.57 53.51 C85.72 41.34, 95.47 29.21, 121.16 0.76 M79.87 52.45 C93.14 37.01, 109.74 21.35, 127.47 0.93 M82.27 51.47 C93.2 39.87, 103.33 28.03, 126.08 0.15 M88.19 52.9 C97.93 40.13, 108.4 25.57, 133.85 1.03 M87.08 52.11 C101.47 35.13, 117.23 17.76, 131.59 -0.45 M90.92 51.79 C102.86 37.79, 113.16 27.01, 136.24 0.4 M91.76 52.56 C106.92 36.21, 119.57 22.24, 137.97 -0.25 M96.47 51.02 C112.4 38.91, 122.53 21.77, 141.96 -1.92 M98.22 51.95 C114.3 33.52, 129.4 15.25, 142.31 0.01 M104.89 52.88 C115.07 36.27, 126.88 23.02, 149.71 -1.35 M103.19 51.93 C119.2 35.3, 133.63 18.11, 148.87 0.65 M107.65 53.2 C121.66 33.58, 137.54 18.52, 151.86 1.11 M108.51 53.19 C116.65 41.12, 127.41 29.69, 153.71 -0.54 M113.87 54.24 C128.76 34.33, 146.69 14.44, 158.2 -0.03 M113.92 51.9 C127.12 36.18, 140.23 21.4, 159.04 0.28 M118.08 53.73 C126.25 41.05, 137.03 31.14, 166.17 -1.84 M119.23 52.27 C133.65 36.36, 146.88 20.48, 163.91 -0.56 M122.47 53.88 C140.24 35.37, 151.52 19.58, 168.59 0.12 M125.11 53.01 C141.85 32.33, 158.29 12.58, 168.5 0.3 M128.62 54.38 C140.45 38.56, 152.74 24.9, 175.97 0.73 M129.36 51.86 C138.38 42.6, 147.83 30.87, 174.82 -0.25 M135.13 54.1 C146.66 39.04, 158.3 25.26, 180.21 -1.63 M134.98 52.82 C151.08 33.36, 168.55 13.49, 181.01 0.66 M140.62 52.41 C151.27 40.87, 160.41 31.65, 184.88 -0.14 M139.69 52.89 C155.92 33.9, 170.12 17.25, 186.06 0.44 M142.77 54.39 C159.85 32.58, 176.99 15.76, 188.93 1.5 M145.48 52.86 C159.6 35.91, 174.25 18.2, 190.07 -0.48 M151.92 52.6 C169.29 31.11, 185.8 9.16, 196.99 -1.93 M150.71 52.52 C164.47 36.17, 181.16 18.76, 197.01 -0.18 M154.83 52.05 C168.1 40.69, 179.15 26.56, 203.09 -0.21 M156.34 53.2 C167.26 38.62, 179.67 24.54, 200.96 -0.7 M160.89 51.22 C172.9 36.48, 188.54 18.92, 208.91 1.38 M160.7 52.2 C172.78 38.24, 184.45 25.06, 206.83 0.43 M165.92 51.09 C176.04 39.86, 186.82 26.82, 211.54 -0.99 M165.7 53.38 C179.25 37.74, 193.26 22.89, 212.68 0.69 M170.37 52.06 C189.37 30.48, 205.96 9.16, 217.73 -0.69 M171.65 51.59 C181.5 40.51, 192.49 28.01, 218.39 -0.92 M175.13 51.03 C185.11 43.76, 195.36 29.32, 223.64 0.42 M177.45 53.21 C191.5 36.71, 204.25 20.09, 221.99 0.61 M183.72 54.37 C194.58 35.63, 210.1 20.77, 229.07 0.9 M181.35 52.61 C198.39 34.35, 214.08 15.17, 228.34 -1.19 M186.07 50.91 C201.29 35.68, 217.9 16.65, 233.24 0.81 M187.22 52.73 C197.12 39.82, 208.16 26.48, 233.41 0.24 M192.78 52.94 C201.96 38.95, 212.79 28.89, 236.36 -0.59 M193.29 51.46 C208.59 34.27, 225.92 15.28, 238.39 -0.31 M198.84 53.24 C208.35 38.63, 220.63 24.14, 242.68 0.44 M198.39 52.25 C208.38 39.56, 219.98 26.76, 243.2 -1.01 M201.91 54.04 C214.65 40.59, 221.73 29.13, 247.51 1.37 M202.74 52.54 C214.14 41.23, 222.76 28.75, 248.01 -0.25 M210.04 52.05 C223.91 34.3, 239.19 16.85, 254.82 -0.9 M208.12 52.31 C222.32 36.77, 235.49 21.17, 255.36 0.56 M215.96 51.44 C231.1 35.68, 247.1 15.85, 260.33 -0.21 M214.7 52.54 C229.41 34.93, 243.9 17.72, 259.76 0.3 M220.78 52.86 C231.33 37.36, 244.34 24.11, 259.12 6.84 M219.27 51.73 C227.69 43.15, 234.9 33.49, 259.76 7.65 M224.28 50.41 C234.49 41.65, 242.01 32.01, 257.22 12.29 M223.95 52.38 C234.92 39.1, 247.17 25.67, 258.1 13.97 M228.65 52.69 C241.28 42.31, 249.1 29.17, 260.06 17.68 M230.49 53.54 C235.91 45.63, 241.96 38.69, 258.57 19.68 M236.72 51.74 C243.9 44.73, 253.1 32.82, 260.12 26.05 M235 53.24 C240.73 46.95, 245.63 39.75, 258.25 25.72 M239.75 52.07 C245.58 46.53, 253.14 37.73, 259.92 31.12 M240.17 53.06 C246.31 45.1, 253.48 38.21, 258.95 32.3 M246.98 52.44 C246.59 49.23, 250.29 46.06, 257.65 39.09 M245.44 53.3 C248.8 48.48, 253.31 42.83, 259.35 38.12 M252.04 51.66 C254.1 50.32, 254.6 47.07, 258.91 42.42 M250.69 52.14 C253.31 49.27, 256.11 47.61, 259.13 43.18 M255.88 53.34 C256.81 52.6, 257.54 51.43, 258.59 49.91 M256.16 52.93 C256.66 52.31, 257.53 51.64, 258.87 50.11" stroke="#fd7e144f" stroke-width="0.5" fill="none"></path><path d="M-0.32 0.48 C56.73 0.7, 110.97 0.31, 257.62 0.75 M-0.44 0.25 C89.05 0.54, 176.61 1.43, 258.22 -0.09 M258.53 1.88 C257.82 15.91, 256.43 34.44, 256.54 50.24 M258.75 -0.36 C258.4 11.5, 257.61 23.5, 257.01 51.16 M259.5 51.41 C179.36 53.29, 101.95 52.08, -0.81 49.48 M258.74 51.75 C200.56 51.53, 143.88 50.05, 0.68 50.2 M-1.56 52.78 C-1.21 39.39, 1.03 30.93, 0.01 -0.98 M-0.4 51.46 C0.16 32.67, 0.03 16.33, 0.02 -0.22" stroke="#00000000" stroke-width="1" fill="none"></path></g><g transform="translate(253.61227492997432 183.58528894229198) rotate(0 124.29483282674767 16.860182370820667)"><text x="0" y="26.72036474164134" font-family="Cascadia, Segoe UI Emoji" font-size="28.231003039513663px" fill="#000000" text-anchor="start" style="white-space: pre;" direction="ltr">git-filter-repo</text></g></svg>